<?xml version="1.0" standalone="no"?>
<!DOCTYPE svg PUBLIC "-//W3C//DTD SVG 1.1//EN" "http://www.w3.org/Graphics/SVG/1.1/DTD/svg11.dtd" >
<svg xmlns="http://www.w3.org/2000/svg" xmlns:xlink="http://www.w3.org/1999/xlink" version="1.1">
<metadata>
Created by FontForge 20170731 at Mon Aug 10 12:14:06 2020
 By Aleksey,,,
Copyright (c) 2015 Berton Hasebe, under exclusive license to Schwartzco Inc./ Commercial Type. All rights reserved.
</metadata>
<defs>
<font id="DrukText-Super" horiz-adv-x="1024" >
  <font-face 
    font-family="Druk Text"
    font-weight="900"
    font-stretch="normal"
    units-per-em="2048"
    panose-1="0 0 0 0 0 0 0 0 0 0"
    ascent="1665"
    descent="-383"
    x-height="1147"
    cap-height="1524"
    bbox="-84 -545 3199 2374"
    underline-thickness="186"
    underline-position="-227"
    unicode-range="U+000D-FB02"
  />
<missing-glyph horiz-adv-x="368" 
 />
    <glyph glyph-name="f_t" unicode="ft" horiz-adv-x="1603" 
d="M221 0v844h-178v303h178v156q0 122 69.5 184.5t198.5 62.5h308v-268h-90q-41 0 -55.5 -13t-14.5 -48v-74h307v360h420v-360h178v-303h-178v-465q0 -39 15 -54.5t57 -15.5h106v-309h-356q-125 0 -183.5 57.5t-58.5 180.5v606h-307v-844h-416z" />
    <glyph glyph-name="f_f_t" unicode="fft" horiz-adv-x="2326" 
d="M221 0v844h-178v303h178v156q0 122 69.5 184.5t198.5 62.5h328v-268h-110q-41 0 -55.5 -13t-14.5 -48v-74h307v156q0 122 69.5 184.5t198.5 62.5h308v-268h-90q-41 0 -55.5 -13t-14.5 -48v-74h307v360h420v-360h178v-303h-178v-465q0 -39 15 -54.5t57 -15.5h106v-309
h-356q-125 0 -183.5 57.5t-58.5 180.5v606h-307v-844h-416v844h-307v-844h-416z" />
    <glyph glyph-name="f_f" unicode="ff" horiz-adv-x="1585" 
d="M221 0v844h-178v303h178v156q0 122 69.5 184.5t198.5 62.5h328v-268h-110q-41 0 -55.5 -13t-14.5 -48v-74h307v156q0 122 69.5 184.5t198.5 62.5h328v-268h-110q-41 0 -55.5 -13t-14.5 -48v-74h180v-303h-180v-844h-416v844h-307v-844h-416z" />
    <glyph glyph-name="f_i" unicode="fi" horiz-adv-x="1452" 
d="M813 1282h-106q-41 0 -55.5 -13t-14.5 -48v-74h176v-303h-176v-844h-416v844h-178v303h178v156q0 122 69.5 184.5t198.5 62.5h324v-268zM1366 1241h-422v322h422v-322zM1366 0h-422v1147h422v-1147z" />
    <glyph glyph-name="f_l" unicode="fl" horiz-adv-x="1449" 
d="M813 1282h-106q-41 0 -55.5 -13t-14.5 -48v-74h176v-303h-176v-844h-416v844h-178v303h178v156q0 122 69.5 184.5t198.5 62.5h324v-268zM1366 0h-422v1550h422v-1550z" />
    <glyph glyph-name="emdash.alt" unicode="&#x2014;&#x2014;" horiz-adv-x="3280" 
d="M3199 500h-3117v235h3117v-235z" />
    <glyph glyph-name=".notdef" horiz-adv-x="368" 
 />
    <glyph glyph-name=".null" horiz-adv-x="0" 
 />
    <glyph glyph-name="nonmarkingreturn" horiz-adv-x="682" 
 />
    <glyph glyph-name="NULL" horiz-adv-x="0" 
 />
    <glyph glyph-name="NULL" horiz-adv-x="0" 
 />
    <glyph glyph-name="CR" unicode="&#xd;" horiz-adv-x="368" 
 />
    <glyph glyph-name="space" unicode=" " horiz-adv-x="368" 
 />
    <glyph glyph-name="exclam" unicode="!" horiz-adv-x="593" 
d="M522 1524l-112 -1043h-226l-112 1043h450zM496 0h-398v393h398v-393z" />
    <glyph glyph-name="quotedbl" unicode="&#x22;" horiz-adv-x="944" 
d="M856 1012h-324v512h324v-512zM412 1012h-324v512h324v-512z" />
    <glyph glyph-name="numbersign" unicode="#" horiz-adv-x="1120" 
d="M651 922h-155l-29 -250h156zM600 471h-156l-53 -471h-237l53 471h-176l22 201h176l27 250h-176l22 200h177l45 402h239l-45 -402h158l45 402h240l-48 -402h177l-23 -200h-176l-29 -250h178l-22 -201h-178l-56 -471h-237z" />
    <glyph glyph-name="dollar" unicode="$" horiz-adv-x="1153" 
d="M438 1163q0 -44 18.5 -73t65.5 -58v244q-84 -15 -84 -109v-4zM702 403q0 58 -18.5 90t-67.5 62v-281q86 15 86 117v12zM522 -154v131q-135 0 -229.5 28t-146 80.5t-73.5 116.5t-22 148v178h387v-143q0 -96 84 -111v332l-180 96q-146 77 -216.5 177t-70.5 254v41
q0 178 113.5 275t353.5 97v117h94v-117q135 0 226.5 -25t141 -76t69.5 -115.5t20 -155.5v-95h-373v70q0 57 -19 87t-65 40v-295l201 -109q156 -85 223.5 -181.5t67.5 -246.5v-43q0 -95 -27 -170.5t-84 -133.5t-153.5 -89t-227.5 -31v-131h-94z" />
    <glyph glyph-name="percent" unicode="%" horiz-adv-x="1759" 
d="M725 993q0 -137 -77.5 -210.5t-229.5 -73.5h-39q-307 0 -307 284v267q0 282 307 282h39q307 0 307 -282v-267zM1382 1524l-774 -1524h-237l780 1524h231zM399 922q60 0 60 65v281q0 65 -60 65q-59 0 -59 -65v-281q0 -65 59 -65zM1688 268q0 -137 -78 -210.5t-230 -73.5
h-39q-307 0 -307 284v267q0 282 307 282h39q308 0 308 -282v-267zM1362 197q59 0 59 65v281q0 65 -59 65t-59 -65v-281q0 -65 59 -65z" />
    <glyph glyph-name="ampersand" unicode="&#x26;" horiz-adv-x="1431" 
d="M1313 -25q-244 0 -373 76q-124 -71 -315 -71h-2q-152 0 -265 31.5t-180.5 90t-100 135.5t-32.5 175v30q0 148 78 240.5t221 155.5q-73 100 -108 177.5t-35 174.5v8q0 167 109.5 257.5t340.5 90.5h41q125 0 213 -23t137.5 -68.5t71 -104t21.5 -138.5v-20q0 -133 -90 -222
t-263 -159l201 -303q14 134 14 342h371q-8 -334 -129 -524q72 -17 191 -17zM590 1190q0 -51 16 -91t62 -112q54 49 74 93t20 110v16q0 103 -86 103t-86 -103v-16zM700 258q34 0 48 2l-269 385q-30 -73 -30 -149v-15q0 -105 67 -164t184 -59z" />
    <glyph glyph-name="quotesingle" unicode="'" horiz-adv-x="503" 
d="M416 1012h-328v512h328v-512z" />
    <glyph glyph-name="parenleft" unicode="(" horiz-adv-x="612" 
d="M51 694q0 163 24.5 310t70.5 270t85.5 203t96.5 178h254q-46 -102 -86.5 -226t-76.5 -328.5t-36 -406.5q0 -201 36 -405t76.5 -329.5t86.5 -227.5h-254q-55 93 -96 176.5t-86.5 206t-70 270t-24.5 309.5z" />
    <glyph glyph-name="parenright" unicode=")" horiz-adv-x="612" 
d="M561 694q0 -162 -24.5 -309.5t-69.5 -270t-86 -206.5t-96 -176h-254q198 473 198 962q0 493 -198 961h254q44 -76 76 -136.5t72.5 -158t66 -190.5t43.5 -218.5t18 -257.5z" />
    <glyph glyph-name="asterisk" unicode="*" horiz-adv-x="868" 
d="M559 1550l-55 -247l201 163l108 -202l-264 -78l264 -78l-108 -203l-201 164l55 -250h-250l58 250l-203 -164l-109 203l264 78l-264 78l109 202l203 -163l-58 247h250z" />
    <glyph glyph-name="plus" unicode="+" horiz-adv-x="1048" 
d="M664 496v-332h-279v332h-313v258h313v331h279v-331h313v-258h-313z" />
    <glyph glyph-name="comma" unicode="," horiz-adv-x="565" 
d="M176 -272q22 57 44.5 137.5t29.5 134.5h-168v397h401v-305q0 -160 -80 -364h-227z" />
    <glyph glyph-name="hyphen" unicode="-" horiz-adv-x="669" 
d="M588 791v-353h-506v353h506z" />
    <glyph glyph-name="period" unicode="." horiz-adv-x="565" 
d="M483 0h-401v397h401v-397z" />
    <glyph glyph-name="slash" unicode="/" horiz-adv-x="696" 
d="M270 -268h-258l383 1923h260z" />
    <glyph glyph-name="zero" unicode="0" horiz-adv-x="1212" 
d="M1126 438q0 -225 -127 -343t-358 -118h-70q-241 0 -363 120t-122 341v633q0 229 114.5 352t370.5 123h70q485 0 485 -475v-633zM694 1073q0 59 -19.5 89t-68.5 30t-68.5 -29.5t-19.5 -89.5v-627q0 -56 20 -84t68 -28q88 0 88 112v627z" />
    <glyph glyph-name="one" unicode="1" horiz-adv-x="806" 
d="M47 1014v336q140 0 207 41t88 133h367v-1524h-428v1014h-234z" />
    <glyph glyph-name="two" unicode="2" horiz-adv-x="1118" 
d="M55 0v207v49.5t2 44t6 46.5t12.5 45t21 51.5t31.5 54.5t45 65.5t60.5 72.5t77.5 87l166 174q74 78 105.5 128.5t31.5 100.5v4q0 97 -79 97q-80 0 -80 -97v-129h-383v183q0 171 107.5 265.5t334.5 94.5h53q256 0 368 -98t112 -281v-20q0 -121 -35.5 -206.5t-132.5 -182.5
q-22 -20 -103.5 -91.5t-118.5 -105.5q-120 -108 -166.5 -159.5t-46.5 -75.5h244v180h367v-504h-1000z" />
    <glyph glyph-name="three" unicode="3" horiz-adv-x="1118" 
d="M74 1059v104q0 64 11 117t40.5 103.5t77 84.5t124.5 55t179 21h57q135 0 228.5 -25.5t145 -75t73.5 -111.5t22 -146v-78q0 -100 -51.5 -160t-116.5 -74q33 -8 64 -26.5t60 -50t47 -81.5t18 -112v-211q0 -88 -27 -161t-83 -131.5t-151 -91t-221 -32.5h-57
q-105 0 -184.5 20.5t-130.5 55.5t-83 86.5t-44.5 108.5t-12.5 127v145h404v-112q0 -91 80 -91q78 0 78 91v124q0 47 -16 64.5t-58 17.5h-219v351h204q43 0 61.5 19.5t18.5 59.5v93q0 44 -18 66t-59 22q-40 0 -57 -22t-17 -66v-78h-387z" />
    <glyph glyph-name="four" unicode="4" horiz-adv-x="1093" 
d="M47 594q32 78 181.5 427.5t215.5 512.5h441v-891h164v-364h-164v-279h-406v279h-432v315zM479 1114l-192 -471h192v471z" />
    <glyph glyph-name="five" unicode="5" horiz-adv-x="1142" 
d="M88 664v860h930v-340h-545v-232q123 138 285 138h14q149 0 222 -84.5t73 -231.5v-379q0 -192 -119.5 -305t-355.5 -113h-60q-456 0 -456 383v172h407v-131q0 -90 76 -90q37 0 56.5 25.5t19.5 64.5v289q0 92 -76 92t-76 -92v-26h-395z" />
    <glyph glyph-name="six" unicode="6" horiz-adv-x="1193" 
d="M831 987q143 0 218 -84.5t75 -228.5v-250q0 -208 -126.5 -327.5t-368.5 -119.5h-49q-247 0 -370.5 117.5t-123.5 329.5v670q0 227 120 337.5t367 110.5h52q247 0 362 -105.5t115 -308.5v-69h-424v49q0 56 -19 81t-63 25q-46 0 -65 -25t-19 -81v-262q119 141 307 141h12z
M512 430q0 -113 92 -113t92 113v154q0 58 -23 84t-69 26t-69 -26t-23 -84v-154z" />
    <glyph glyph-name="seven" unicode="7" horiz-adv-x="1083" 
d="M1014 1524v-293q-4 -15 -55.5 -197.5t-84.5 -322.5q-43 -180 -64.5 -309t-21.5 -261v-141h-495v98q0 146 30.5 269.5t116.5 304.5q162 341 195 418t33 118h-226v-198h-362v514h934z" />
    <glyph glyph-name="eight" unicode="8" horiz-adv-x="1179" 
d="M1096 1120q0 -229 -178 -301q35 -14 66 -35.5t62 -57t49.5 -89.5t18.5 -121v-119q0 -420 -493 -420h-62q-493 0 -493 420v119q0 67 18.5 121t50 89.5t62 57t65.5 35.5q-178 73 -178 301v47q0 375 475 375h62q475 0 475 -375v-47zM684 1126q0 105 -94 105t-94 -105v-84
q0 -104 94 -104q52 0 73 26t21 78v84zM684 559q0 109 -94 109t-94 -109v-135q0 -109 94 -109t94 109v135z" />
    <glyph glyph-name="nine" unicode="9" horiz-adv-x="1193" 
d="M682 1090q0 110 -92 110t-92 -110v-154q0 -111 92 -111t92 111v154zM379 532q-155 0 -232 88.5t-77 247.5v244q0 103 23.5 178.5t78.5 134t153 88t238 29.5h51q260 0 377 -115t117 -331v-672q0 -218 -121.5 -332.5t-365.5 -114.5h-52q-253 0 -365 103t-112 311v70h424
v-58q0 -98 82 -98q84 0 84 98v271q-15 -19 -35 -37.5t-57 -45t-89 -43t-110 -16.5h-12z" />
    <glyph glyph-name="colon" unicode=":" horiz-adv-x="585" 
d="M494 608h-402v398h402v-398zM494 0h-402v397h402v-397z" />
    <glyph glyph-name="semicolon" unicode=";" horiz-adv-x="585" 
d="M186 -272q22 57 44.5 137.5t29.5 134.5h-168v397h402v-305q0 -160 -80 -364h-228zM494 608h-402v398h402v-398z" />
    <glyph glyph-name="less" unicode="&#x3c;" horiz-adv-x="917" 
d="M72 496v245l774 322v-272l-465 -173l465 -172v-272z" />
    <glyph glyph-name="equal" unicode="=" horiz-adv-x="1028" 
d="M946 944v-248h-864v248h864zM946 547v-248h-864v248h864z" />
    <glyph glyph-name="greater" unicode="&#x3e;" horiz-adv-x="917" 
d="M72 446l465 172l-465 173v272l774 -322v-245l-774 -322v272z" />
    <glyph glyph-name="question" unicode="?" horiz-adv-x="1044" 
d="M322 481v62q0 87 21 142.5t83 139.5l92 119q41 54 53.5 85.5t12.5 86.5v53q0 82 -76 82t-76 -84v-166h-369v175q0 82 19 144.5t64 114.5t129.5 79.5t205.5 27.5h56q239 0 344.5 -92t105.5 -272v-37q0 -116 -34 -195.5t-107 -159.5l-148 -157q-40 -45 -50.5 -69t-10.5 -75
v-4h-315zM680 0h-397v393h397v-393z" />
    <glyph glyph-name="at" unicode="@" horiz-adv-x="1773" 
d="M1497 -109q-32 -32 -79 -62t-117.5 -60t-172 -48t-217.5 -18h-12q-96 0 -180 10.5t-169 36.5t-153.5 68.5t-129 109.5t-101.5 154.5t-64.5 209t-23.5 269.5v72q0 423 208.5 645.5t616.5 222.5h2q147 0 265.5 -23t219 -75t168 -133.5t105 -203t37.5 -278.5v-69
q0 -641 -426 -641h-12q-213 0 -285 141q-16 -19 -24.5 -29t-36.5 -35t-53 -38.5t-65.5 -26t-82.5 -12.5h-8q-145 0 -215.5 88.5t-59.5 255.5l23 391q18 301 260 301h8q56 0 102 -13t79 -38t47.5 -39t32.5 -37q2 -2 3 -3.5t2 -2.5l6 121h367l-51 -787q-3 -51 39 -51
q63 0 104 120t41 335v63q0 99 -16.5 178t-44.5 134.5t-71.5 96.5t-91 65t-110.5 38.5t-122.5 19.5t-133.5 5h-2q-146 0 -256 -37.5t-190.5 -118.5t-122 -214.5t-41.5 -317.5v-70q0 -163 32 -284.5t84.5 -195.5t132.5 -119t164.5 -61t192.5 -16h12q298 0 475 158zM975 782
q8 103 -74 103q-37 0 -54 -25t-22 -78l-22 -374q-11 -103 67 -103q70 0 80 101z" />
    <glyph glyph-name="A" unicode="A" horiz-adv-x="1105" 
d="M459 514h145l-29 205q-16 107 -43 377q-23 -229 -45 -377zM647 199h-231l-27 -199h-366l235 1524h563l262 -1524h-409z" />
    <glyph glyph-name="B" unicode="B" horiz-adv-x="1179" 
d="M92 1524h649q173 0 258.5 -78t85.5 -256v-78q0 -115 -52 -184t-113 -88q202 -70 202 -303v-162q0 -375 -356 -375h-674v1524zM506 1233v-289h78q92 0 92 109v73q0 58 -20 82.5t-72 24.5h-78zM506 659v-358h90q52 0 73 27.5t21 85.5v133q0 59 -21 85.5t-73 26.5h-90z" />
    <glyph glyph-name="C" unicode="C" horiz-adv-x="1169" 
d="M600 319q47 0 66.5 28.5t19.5 82.5v229h412v-258q0 -88 -24.5 -161t-76.5 -134t-144 -95t-216 -34h-72q-258 0 -371.5 120.5t-113.5 355.5v628q0 111 25 193.5t80.5 145t150 94.5t227.5 32h72q463 0 463 -407v-215h-412v186q0 104 -86 104q-45 0 -63.5 -26.5t-18.5 -77.5
v-680q0 -57 18.5 -84t63.5 -27z" />
    <glyph glyph-name="D" unicode="D" horiz-adv-x="1226" 
d="M92 1524h629q214 0 318 -99.5t104 -318.5v-688q0 -219 -103 -318.5t-311 -99.5h-637v1524zM526 330h78q54 0 76 29t22 98v624q0 64 -22 92.5t-76 28.5h-78v-872z" />
    <glyph glyph-name="E" unicode="E" horiz-adv-x="966" 
d="M895 1524v-355h-389v-202h334v-361h-334v-248h399v-358h-813v1524h803z" />
    <glyph glyph-name="F" unicode="F" horiz-adv-x="944" 
d="M92 1524h795v-355h-381v-202h321v-361h-321v-606h-414v1524z" />
    <glyph glyph-name="G" unicode="G" horiz-adv-x="1185" 
d="M457 -23q-97 0 -171 33t-118 91.5t-66 133t-22 162.5v709q0 440 479 440h64q129 0 223 -31t145.5 -86.5t75 -122.5t23.5 -149v-151h-398v98q0 55 -21.5 84t-72.5 29t-70.5 -27.5t-19.5 -85.5v-680q0 -127 104 -127q103 0 103 127v182h-123v293h516v-899h-283
q-12 67 -43 135q-109 -158 -311 -158h-14z" />
    <glyph glyph-name="H" unicode="H" horiz-adv-x="1228" 
d="M92 1524h434v-520h176v520h435v-1524h-435v584h-176v-584h-434v1524z" />
    <glyph glyph-name="I" unicode="I" horiz-adv-x="618" 
d="M526 0h-434v1524h434v-1524z" />
    <glyph glyph-name="J" unicode="J" horiz-adv-x="1120" 
d="M444 692v-280q0 -95 76 -95h2q41 0 58.5 22.5t17.5 72.5v1112h434v-1145q0 -402 -448 -402h-115q-113 0 -194 28t-126.5 81t-65.5 119.5t-20 152.5v334h381z" />
    <glyph glyph-name="K" unicode="K" horiz-adv-x="1181" 
d="M92 0v1524h420v-590l227 590h426l-272 -672l278 -852h-442l-217 668v-668h-420z" />
    <glyph glyph-name="L" unicode="L" horiz-adv-x="897" 
d="M524 1524v-1145h324v-379h-756v1524h432z" />
    <glyph glyph-name="M" unicode="M" horiz-adv-x="1423" 
d="M780 0h-153l-121 555q-46 213 -84 430q10 -182 10 -450v-535h-342v1524h485l93 -502q35 -185 45 -277q10 92 45 277l96 502h475v-1524h-350v535q0 258 10 450q-37 -204 -86 -430z" />
    <glyph glyph-name="N" unicode="N" horiz-adv-x="1193" 
d="M682 967q52 -155 78 -267q-6 113 -6 299v525h348v-1524h-369l-223 641q-46 133 -74 244q8 -96 8 -299v-586h-352v1524h410z" />
    <glyph glyph-name="O" unicode="O" horiz-adv-x="1220" 
d="M1141 438q0 -212 -125 -336.5t-369 -124.5h-74q-128 0 -224 33.5t-154 96t-86.5 145t-28.5 186.5v647q0 461 493 461h74q248 0 371 -119.5t123 -341.5v-647zM702 1077q0 115 -92 115q-49 0 -70.5 -28.5t-21.5 -86.5v-635q0 -55 21.5 -81.5t70.5 -26.5q92 0 92 108v635z
" />
    <glyph glyph-name="P" unicode="P" horiz-adv-x="1157" 
d="M526 545v-545h-434v1524h647q177 0 269 -84t92 -273v-264q0 -181 -94.5 -269.5t-266.5 -88.5h-213zM526 848h58q47 0 66.5 22t19.5 76v189q0 56 -19 77t-67 21h-58v-385z" />
    <glyph glyph-name="Q" unicode="Q" horiz-adv-x="1220" 
d="M459 -14q-193 28 -286 147t-93 305v647q0 461 493 461h74q248 0 371 -120t123 -341v-647q0 -177 -87.5 -294.5t-260.5 -151.5l143 -309h-477v303zM702 1077q0 115 -92 115q-49 0 -70.5 -28.5t-21.5 -86.5v-635q0 -55 21.5 -81.5t70.5 -26.5q92 0 92 108v635z" />
    <glyph glyph-name="R" unicode="R" horiz-adv-x="1173" 
d="M512 915h74q86 0 86 95v127q0 52 -18.5 74t-65.5 22h-76v-318zM512 0h-420v1524h672q157 0 241.5 -79.5t84.5 -236.5v-90q0 -219 -164 -293q168 -63 168 -262v-428q0 -79 24 -125v-10h-416q-30 30 -30 113v376q0 61 -18 86t-64 25h-78v-600z" />
    <glyph glyph-name="S" unicode="S" horiz-adv-x="1118" 
d="M512 -23q-461 0 -461 375v178h402v-139q0 -92 88 -92t88 100v15q0 62 -26 95.5t-93 76.5l-205 131q-123 77 -182.5 171.5t-59.5 235.5v43q0 379 476 379h57q129 0 220 -24.5t142 -72t73 -108t22 -141.5v-129h-400v92q0 90 -84 90q-90 0 -90 -86v-4q0 -47 24 -75t85 -68
l205 -133q145 -93 210.5 -189.5t65.5 -251.5v-45q0 -90 -28 -164.5t-86 -133.5t-156.5 -92.5t-229.5 -33.5h-57z" />
    <glyph glyph-name="T" unicode="T" horiz-adv-x="983" 
d="M287 1178h-240v346h889v-346h-240v-1178h-409v1178z" />
    <glyph glyph-name="U" unicode="U" horiz-adv-x="1196" 
d="M561 -27q-127 0 -220.5 32.5t-148 91.5t-80.5 134.5t-26 169.5v1123h424v-1055q0 -113 88 -113q49 0 69.5 28t20.5 85v1055h422v-1123q0 -90 -30 -166.5t-88 -135.5t-151 -92.5t-210 -33.5h-70z" />
    <glyph glyph-name="V" unicode="V" horiz-adv-x="1161" 
d="M23 1524h442l133 -1016l131 1016h410l-262 -1524h-572z" />
    <glyph glyph-name="W" unicode="W" horiz-adv-x="1667" 
d="M870 543q-23 178 -36 356q-3 -36 -8 -83.5t-13.5 -126t-15.5 -144.5l-62 -545h-448l-262 1524h428l73 -662q10 -93 20.5 -215t10.5 -125q29 309 33 340l80 662h352l80 -656q3 -27 35 -342q2 15 11.5 130.5t18.5 205.5l74 662h401l-262 -1524h-448z" />
    <glyph glyph-name="X" unicode="X" horiz-adv-x="1150" 
d="M20 0l238 809l-227 715h444l109 -447l106 447h412l-215 -725l243 -799h-436l-123 485l-129 -485h-422z" />
    <glyph glyph-name="Y" unicode="Y" horiz-adv-x="1097" 
d="M326 559l-320 965h436l123 -508l123 508h404l-299 -973v-551h-467v559z" />
    <glyph glyph-name="Z" unicode="Z" horiz-adv-x="1042" 
d="M70 0v334l407 831h-395v359h881v-334l-416 -828h432v-362h-909z" />
    <glyph glyph-name="bracketleft" unicode="[" horiz-adv-x="630" 
d="M86 1655h483v-264h-170v-1399h170v-264h-483v1927z" />
    <glyph glyph-name="backslash" unicode="\" horiz-adv-x="696" 
d="M426 -268l-385 1923h260l383 -1923h-258z" />
    <glyph glyph-name="bracketright" unicode="]" horiz-adv-x="630" 
d="M61 -8h170v1399h-170v264h484v-1927h-484v264z" />
    <glyph glyph-name="asciicircum" unicode="^" horiz-adv-x="813" 
d="M408 1243l-103 -473h-264l195 754h339l197 -754h-264z" />
    <glyph glyph-name="underscore" unicode="_" horiz-adv-x="1028" 
d="M20 -43h988v-246h-988v246z" />
    <glyph glyph-name="grave" unicode="`" horiz-adv-x="819" 
d="M297 1241l-129 328h367l116 -328h-354z" />
    <glyph glyph-name="a" unicode="a" horiz-adv-x="1105" 
d="M610 559q-88 -40 -112 -55q-30 -20 -42 -43t-12 -60v-73q0 -88 82 -88q40 0 62 25.5t22 62.5v231zM55 403q0 120 55.5 186.5t176.5 102.5q52 18 158.5 44t136.5 36q19 6 23.5 14t4.5 33v17q0 47 -18.5 68.5t-67.5 21.5h-2q-48 0 -67 -21.5t-19 -70.5v-52h-366v72
q0 160 105 240t343 80h47q239 0 343 -79t104 -241v-500q0 -25 10 -35t39 -10h10v-309h-334q-50 0 -83.5 33t-39.5 98q-34 -48 -112 -97.5t-166 -49.5h-2q-131 0 -205 75.5t-74 196.5v147z" />
    <glyph glyph-name="b" unicode="b" horiz-adv-x="1171" 
d="M506 1550v-549q12 17 25 32.5t41 39.5t58 41.5t75 30t94 12.5h14q135 0 208 -80t73 -223v-535q0 -149 -80.5 -245.5t-227.5 -96.5h-14q-48 0 -92 13t-73 29.5t-58.5 43t-43 42t-31.5 38.5q-5 6 -7 9q-8 -28 -17.5 -78t-9.5 -74h-354v1550h420zM588 256q40 0 62 30t22 76
v406q0 49 -21.5 77.5t-62.5 28.5q-82 0 -82 -108v-404q0 -47 20 -76.5t62 -29.5z" />
    <glyph glyph-name="c" unicode="c" horiz-adv-x="1093" 
d="M518 -27q-229 0 -336.5 99.5t-107.5 292.5v421q0 186 109 288t335 102h88q212 0 313 -92t101 -259v-133h-377v109q0 98 -76 98q-73 0 -73 -98v-449q0 -92 73 -92q76 0 76 92v142h377v-160q0 -166 -102 -263.5t-312 -97.5h-88z" />
    <glyph glyph-name="d" unicode="d" horiz-adv-x="1175" 
d="M588 258q40 0 63 29.5t23 77.5v397q0 108 -86 108q-46 0 -65 -26t-19 -82v-400q0 -104 84 -104zM1092 1550v-1550h-414v125q-25 -28 -42.5 -44t-55.5 -45t-86 -44t-103 -15h-12q-141 0 -221 90t-80 226v555q0 143 77.5 227t213.5 84h12q57 0 106 -12.5t86.5 -36.5t57 -40
t43.5 -40v520h418z" />
    <glyph glyph-name="e" unicode="e" horiz-adv-x="1114" 
d="M483 735h164v107q0 53 -19.5 74.5t-62.5 21.5q-82 0 -82 -96v-107zM1040 360q0 -183 -111.5 -285t-322.5 -102h-82q-220 0 -335 100.5t-115 301.5v389q0 412 450 412h82q211 0 322.5 -96t111.5 -310v-238h-557v-198q0 -98 82 -98t82 98v102h393v-76z" />
    <glyph glyph-name="f" unicode="f" horiz-adv-x="862" 
d="M817 1282h-110q-41 0 -55.5 -13t-14.5 -48v-74h180v-303h-180v-844h-416v844h-178v303h178v156q0 122 69.5 184.5t198.5 62.5h328v-268z" />
    <glyph glyph-name="g" unicode="g" horiz-adv-x="1175" 
d="M588 266q86 0 86 111v379q0 114 -86 114q-47 0 -65.5 -28t-18.5 -86v-379q0 -57 18.5 -84t65.5 -27zM541 -406q-128 0 -216.5 24t-136.5 70.5t-68 103t-20 132.5v13h406q0 -68 82 -68h2q39 0 61.5 24t22.5 66v174q-1 -1 -13 -13.5t-20 -20t-25.5 -22.5t-32 -25t-37 -22.5
t-44.5 -19.5t-49.5 -12.5t-55.5 -5.5h-12q-152 0 -229.5 80.5t-77.5 234.5v539q0 137 73.5 225t217.5 88h12q37 0 71 -6t61.5 -18t49 -23.5t42 -28.5t31.5 -27t25.5 -26t16.5 -18v135h412v-1190q0 -76 -22.5 -138t-72.5 -114t-141.5 -81.5t-218.5 -29.5h-94z" />
    <glyph glyph-name="h" unicode="h" horiz-adv-x="1183" 
d="M86 1550h418v-549q118 162 297 162h18q139 0 210 -78t71 -215v-870h-422v750q0 48 -21.5 77t-66.5 29q-86 0 -86 -108v-748h-418v1550z" />
    <glyph glyph-name="i" unicode="i" horiz-adv-x="593" 
d="M508 1241h-422v322h422v-322zM508 0h-422v1147h422v-1147z" />
    <glyph glyph-name="j" unicode="j" horiz-adv-x="595" 
d="M510 1241h-422v322h422v-322zM20 -55q37 0 52.5 14.5t15.5 52.5v1135h422v-1270q0 -117 -59 -185.5t-181 -68.5h-311v322h61z" />
    <glyph glyph-name="k" unicode="k" horiz-adv-x="1138" 
d="M86 0v1550h422v-823l180 420h418l-225 -494l254 -653h-439l-188 528v-528h-422z" />
    <glyph glyph-name="l" unicode="l" horiz-adv-x="591" 
d="M508 0h-422v1550h422v-1550z" />
    <glyph glyph-name="m" unicode="m" horiz-adv-x="1746" 
d="M86 0v1147h414v-152q15 25 38 50t60 53.5t90 46.5t113 18h16q107 0 167.5 -43.5t84.5 -109.5q17 24 41.5 47.5t61.5 49t90 41t112 15.5h17q136 0 204 -71.5t68 -198.5v-893h-418v754q0 45 -20.5 72.5t-61.5 27.5t-60.5 -28t-19.5 -72v-754h-417v754q0 45 -20.5 72.5
t-61.5 27.5q-80 0 -80 -100v-754h-418z" />
    <glyph glyph-name="n" unicode="n" horiz-adv-x="1183" 
d="M86 1147h414v-150q115 166 301 166h18q139 0 210 -78t71 -215v-870h-422v750q0 48 -21.5 77t-66.5 29q-86 0 -86 -108v-748h-418v1147z" />
    <glyph glyph-name="o" unicode="o" horiz-adv-x="1163" 
d="M537 -27q-463 0 -463 420v367q0 194 112 305t351 111h90q463 0 463 -416v-365q0 -199 -115.5 -310.5t-347.5 -111.5h-90zM582 266q88 0 88 103v417q0 105 -88 105q-46 0 -66 -26t-20 -79v-417q0 -103 86 -103z" />
    <glyph glyph-name="p" unicode="p" horiz-adv-x="1169" 
d="M586 256q41 0 62.5 28.5t21.5 80.5v399q0 110 -84 110q-82 0 -82 -110v-399q0 -109 82 -109zM504 1147v-146q15 23 37.5 46t58.5 50t87 43.5t108 16.5h14q137 0 210 -79.5t73 -241.5v-527q0 -148 -79.5 -234.5t-215.5 -86.5h-15q-167 0 -278 125v-490h-418v1524h418z" />
    <glyph glyph-name="q" unicode="q" horiz-adv-x="1177" 
d="M1092 1147v-1524h-418v514q-115 -149 -289 -149h-14q-127 0 -210 85.5t-83 225.5v543q0 146 80.5 231.5t230.5 85.5h14q191 0 318 -161q4 -5 6 -7q29 85 39 156h326zM588 258q37 0 61.5 30.5t24.5 80.5v391q0 110 -86 110q-84 0 -84 -110v-393q0 -52 21.5 -80.5
t62.5 -28.5z" />
    <glyph glyph-name="r" unicode="r" horiz-adv-x="1087" 
d="M506 0h-420v1147h414v-148q97 164 270 164h10q131 0 190.5 -67t59.5 -195v-332h-375v185q0 53 -16.5 77.5t-56.5 24.5t-58 -25t-18 -77v-754z" />
    <glyph glyph-name="s" unicode="s" horiz-adv-x="1040" 
d="M457 -27q-404 0 -404 328v96h373v-55q0 -51 19 -75.5t65 -24.5h2q86 0 86 77q0 38 -21 62t-77 47l-187 74q-134 51 -194 131t-60 209v18q0 157 105.5 236.5t327.5 79.5h73q218 0 315 -76.5t97 -233.5v-71h-363v39q0 54 -20.5 75t-69.5 21t-70.5 -16t-21.5 -52
q0 -37 22.5 -56t86.5 -44l184 -74q144 -59 204 -139.5t60 -206.5v-20q0 -164 -108.5 -256.5t-317.5 -92.5h-106z" />
    <glyph glyph-name="t" unicode="t" horiz-adv-x="878" 
d="M461 0q-125 0 -183.5 57.5t-58.5 180.5v606h-176v303h176v360h420v-360h178v-303h-178v-465q0 -39 15 -54.5t57 -15.5h106v-309h-356z" />
    <glyph glyph-name="u" unicode="u" horiz-adv-x="1175" 
d="M1090 0h-414v150q-18 -24 -39 -46t-59.5 -52.5t-92 -49t-112.5 -18.5h-13q-132 0 -204 77.5t-72 214.5v871h422v-754q0 -100 82 -100q42 0 63 28t21 74v752h418v-1147z" />
    <glyph glyph-name="v" unicode="v" horiz-adv-x="1071" 
d="M16 1147h420l103 -780l100 780h416l-246 -1147h-551z" />
    <glyph glyph-name="w" unicode="w" horiz-adv-x="1581" 
d="M836 301q-27 172 -41 317q-10 -102 -41 -317l-45 -301h-455l-238 1147h424l52 -408q32 -275 36 -336q3 39 37 336l51 408h363l51 -408q34 -265 39 -329q4 53 37 329l49 408h410l-234 -1147h-448z" />
    <glyph glyph-name="x" unicode="x" horiz-adv-x="1067" 
d="M16 0l213 606l-204 541h415l97 -354l94 354h409l-204 -531l215 -616h-420l-105 387l-106 -387h-404z" />
    <glyph glyph-name="y" unicode="y" horiz-adv-x="1083" 
d="M139 -55h129q45 0 45 35v2q0 32 -26 122l-271 1043h424l111 -737l104 737h412l-317 -1317q-29 -113 -85 -160t-161 -47h-365v322z" />
    <glyph glyph-name="z" unicode="z" horiz-adv-x="925" 
d="M61 0v279l330 559h-317v309h780v-285l-317 -538h327v-324h-803z" />
    <glyph glyph-name="braceleft" unicode="{" horiz-adv-x="681" 
d="M412 -268q-287 0 -287 229q0 71 61.5 266t61.5 256q0 40 -26.5 64t-78.5 24h-65v252h65q53 0 79 22t26 62q0 58 -61.5 253t-61.5 267q0 228 287 228h209v-252h-117q-78 0 -78 -62q0 -35 57.5 -202t57.5 -230q0 -85 -42 -137t-143 -74q100 -24 142.5 -77.5t42.5 -139.5
q0 -62 -57.5 -231t-57.5 -205q0 -61 78 -61h117v-252h-209z" />
    <glyph glyph-name="bar" unicode="|" horiz-adv-x="522" 
d="M389 -268h-256v1923h256v-1923z" />
    <glyph glyph-name="braceright" unicode="}" horiz-adv-x="681" 
d="M61 -268v252h117q78 0 78 61q0 36 -57.5 205t-57.5 231q0 86 42.5 139.5t142.5 77.5q-101 22 -143 74t-42 137q0 63 57.5 230t57.5 202q0 62 -78 62h-117v252h201q142 0 218.5 -62.5t76.5 -175.5q0 -74 -61.5 -263t-61.5 -247q0 -40 26 -62t79 -22h65v-252h-65
q-52 0 -78.5 -24t-26.5 -64q0 -59 61.5 -249.5t61.5 -264.5q0 -113 -76.5 -175t-218.5 -62h-201z" />
    <glyph glyph-name="asciitilde" unicode="~" horiz-adv-x="876" 
d="M231 1061q65 0 115.5 -25.5t104.5 -77.5q60 -57 73 -65q12 -6 21 -6q30 0 30 39v143h256v-305q0 -101 -50.5 -153t-133.5 -52q-65 0 -113.5 26t-107.5 79q-12 10 -28.5 24.5t-23 20.5t-16.5 13t-16.5 9t-13.5 2q-29 0 -29 -39v-143h-254v305q0 101 50.5 153t135.5 52z
" />
    <glyph glyph-name="exclamdown" unicode="&#xa1;" horiz-adv-x="593" 
d="M72 -377l112 1043h226l112 -1043h-450zM98 1147h398v-393h-398v393z" />
    <glyph glyph-name="cent" unicode="&#xa2;" horiz-adv-x="1083" 
d="M518 -156v129q-236 0 -340 100.5t-104 288.5v416q0 188 104 286.5t340 98.5v133h94v-133q213 -4 307.5 -92.5t94.5 -255.5v-123h-322v82q0 57 -17 86t-63 39v-651q46 10 63 39t17 86v102h322v-160q0 -159 -102 -250.5t-300 -91.5v-129h-94zM438 373q0 -57 17 -86t63 -39
v651q-46 -10 -63 -39t-17 -86v-401z" />
    <glyph glyph-name="sterling" unicode="&#xa3;" horiz-adv-x="1241" 
d="M1176 0h-1125v301h41q76 0 121 39.5t45 122.5v10q0 71 -12 154h-195v237h156q-25 157 -25 254v39q0 187 111 288t364 101h52q104 0 182.5 -20t126.5 -52.5t77.5 -82t40.5 -102t11 -118.5v-178h-377v137q0 103 -82 103q-45 0 -65.5 -25t-20.5 -82v-6q0 -64 16 -256h330
v-237h-317q0 -240 -133 -320h301v193h377v-500z" />
    <glyph glyph-name="yen" unicode="&#xa5;" horiz-adv-x="1150" 
d="M365 383h-236v162h236v96h-236v158h180l-291 725h443l135 -463l133 463h404l-273 -725h189v-158h-240v-96h240v-162h-240v-383h-444v383z" />
    <glyph glyph-name="brokenbar" unicode="&#xa6;" horiz-adv-x="522" 
d="M389 817h-256v838h256v-838zM389 -268h-256v938h256v-938z" />
    <glyph glyph-name="section" unicode="&#xa7;" horiz-adv-x="1196" 
d="M748 422q30 19 30 59v2q0 30 -14.5 51.5t-54.5 43.5l-275 147q-28 -25 -28 -61v-2q0 -30 14.5 -50t54.5 -43zM545 -401q-123 0 -209.5 24t-137.5 72.5t-73.5 113.5t-22.5 154v125h385v-106q0 -93 91 -93q45 0 67.5 26t22.5 69v2q0 40 -22 68t-85 59l-262 125
q-145 68 -203.5 143.5t-58.5 187.5v13q0 56 16 100t47.5 74t64 50t77.5 38q-121 114 -121 311v23q0 178 108.5 272t350.5 94h57q127 0 214 -23.5t136.5 -71t70.5 -110.5t21 -151v-109h-385v86q0 51 -22 71.5t-64 20.5q-86 0 -86 -88v-2q0 -47 25 -72.5t82 -54.5l289 -145
q134 -69 185.5 -138.5t51.5 -183.5v-12q0 -183 -201 -268q68 -59 95.5 -123.5t27.5 -157.5v-22q0 -181 -115 -286t-356 -105h-61z" />
    <glyph glyph-name="dieresis" unicode="&#xa8;" horiz-adv-x="819" 
d="M778 1241h-329v301h329v-301zM371 1241h-330v301h330v-301z" />
    <glyph glyph-name="copyright" unicode="&#xa9;" horiz-adv-x="1527" 
d="M1448 580q0 -311 -165.5 -459t-494.5 -148h-49q-331 0 -495 145.5t-164 459.5v372q0 298 168 449t493 151h45q326 0 494 -151t168 -449v-370zM784 127q252 0 370 111t118 344v360q0 241 -118.5 348t-369.5 107h-41q-251 0 -369 -107t-118 -348v-360q0 -233 117.5 -344
t369.5 -111h41zM707 553q0 -41 13.5 -63.5t51.5 -22.5t52 22.5t14 63.5v139h295v-147q0 -316 -338 -316h-47q-195 0 -279 85.5t-84 252.5v398q0 159 84 245t276 86h48q184 0 262 -81.5t78 -233.5v-102h-295v100q0 43 -15 63.5t-51 20.5q-65 0 -65 -84v-426z" />
    <glyph glyph-name="ordfeminine" unicode="&#xaa;" horiz-adv-x="862" 
d="M477 1085q-42 -15 -92 -45q-37 -21 -37 -73v-29q0 -28 15.5 -47t46.5 -19q29 0 48 22t19 52v139zM479 803q-1 -1 -9.5 -12t-12 -14.5t-14 -15t-17 -17t-18.5 -16t-21.5 -15.5t-23.5 -12.5t-27 -11.5t-29.5 -6.5t-32.5 -2.5h-6q-92 0 -149.5 58.5t-57.5 146.5v84
q0 83 38 128t122 72l225 64q15 4 22 11.5t8 15t1 26.5v2q0 35 -15.5 49.5t-51.5 14.5q-64 0 -64 -64v-39h-272v37q0 123 71.5 186.5t247.5 63.5h27q195 0 272.5 -59t77.5 -191v-338q0 -28 29 -28h14v-224h-240q-41 0 -65 29t-29 78z" />
    <glyph glyph-name="guillemotleft" unicode="&#xab;" horiz-adv-x="1046" 
d="M528 209h-319l-127 285v184l127 285h319l-151 -377zM975 209h-324l-147 377l147 377h324l-152 -377z" />
    <glyph glyph-name="registered" unicode="&#xae;" horiz-adv-x="1007" 
d="M938 1020q0 -393 -414 -393h-39q-212 0 -313.5 98t-101.5 295v164q0 198 100 294.5t315 96.5h39q212 0 313 -96.5t101 -294.5v-164zM821 1184q0 158 -68 224.5t-229 66.5h-39q-162 0 -230.5 -66.5t-68.5 -224.5v-160q0 -157 69.5 -227t229.5 -70h39q160 0 228.5 70
t68.5 227v160zM463 1163h47q22 0 32.5 10.5t10.5 38.5v25q0 28 -10.5 37.5t-32.5 9.5h-47v-121zM463 811h-166v588h268q80 0 118 -32.5t38 -106.5v-23q0 -54 -25.5 -82t-52.5 -35q76 -28 76 -112v-140q0 -29 12 -47v-10h-162q-16 16 -16 63v113q0 30 -10.5 40.5t-34.5 10.5
h-45v-227z" />
    <glyph glyph-name="macron" unicode="&#xaf;" horiz-adv-x="819" 
d="M117 1524h585v-256h-585v256z" />
    <glyph glyph-name="degree" unicode="&#xb0;" horiz-adv-x="882" 
d="M442 1546q161 0 268 -101.5t107 -258.5q0 -159 -107 -261t-268 -102q-163 0 -269.5 102t-106.5 261q0 158 106.5 259t269.5 101zM444 1057q54 0 88.5 37t34.5 94q0 56 -34.5 92.5t-88.5 36.5q-55 0 -90 -36.5t-35 -92.5q0 -57 35 -94t90 -37z" />
    <glyph glyph-name="acute" unicode="&#xb4;" horiz-adv-x="819" 
d="M285 1569h366l-129 -328h-354z" />
    <glyph glyph-name="paragraph" unicode="&#xb6;" horiz-adv-x="1169" 
d="M426 725h-23q-174 0 -261 81.5t-87 252.5v141q0 173 85.5 248.5t262.5 75.5h732v-250h-115v-1274h-234v1274h-122v-1274h-238v725z" />
    <glyph glyph-name="periodcentered" unicode="&#xb7;" horiz-adv-x="565" 
d="M483 440h-401v398h401v-398z" />
    <glyph glyph-name="cedilla" unicode="&#xb8;" horiz-adv-x="819" 
d="M166 -297h139q51 0 51 41v2q0 39 -51 39h-98v215h194v-86q132 0 192 -47.5t60 -142.5v-7q0 -95 -68.5 -143.5t-217.5 -48.5h-201v178z" />
    <glyph glyph-name="ordmasculine" unicode="&#xba;" horiz-adv-x="890" 
d="M424 678q-358 0 -358 311v236q0 152 86 231.5t272 79.5h41q189 0 273.5 -79t84.5 -232v-236q0 -311 -358 -311h-41zM442 1319q-65 0 -65 -86v-250q0 -84 65 -84q72 0 72 84v250q0 86 -72 86z" />
    <glyph glyph-name="guillemotright" unicode="&#xbb;" horiz-adv-x="1046" 
d="M72 963h323l148 -377l-148 -377h-323l151 377zM518 963h320l127 -285v-184l-127 -285h-320l152 377z" />
    <glyph glyph-name="onequarter" unicode="&#xbc;" horiz-adv-x="1587" 
d="M1317 1524l-899 -1524h-228l897 1524h230zM45 1202v213q95 0 140.5 26t66.5 87h264v-844h-309v518h-162zM848 334l293 510h307v-475h121v-234h-121v-135h-295v135h-305v199zM1153 610q-14 -27 -64.5 -116t-68.5 -125h133v241z" />
    <glyph glyph-name="onehalf" unicode="&#xbd;" horiz-adv-x="1691" 
d="M1317 1524l-899 -1524h-228l897 1524h230zM45 1202v213q95 0 140.5 26t66.5 87h264v-844h-309v518h-162zM928 0v92q0 53 3 80.5t19 66.5t52 75.5t98 82.5q20 16 73.5 52.5t73.5 52.5q58 39 75 60t17 46q0 54 -59 54q-35 0 -48 -17.5t-13 -52.5v-41h-277v74q0 225 322 225
h39q191 0 269.5 -62t78.5 -174v-10q0 -128 -133 -209q-28 -17 -59.5 -33t-67.5 -31.5t-52 -23.5q-153 -75 -153 -110h205v84h266v-281h-729z" />
    <glyph glyph-name="threequarters" unicode="&#xbe;" horiz-adv-x="1785" 
d="M1516 1524l-900 -1524h-227l897 1524h230zM72 1266v45q0 49 11.5 85.5t42.5 70t96 51.5t161 18h41q98 0 166 -15t104 -44t51 -63.5t15 -80.5v-8q0 -68 -41 -103.5t-90 -41.5q25 -4 48.5 -15.5t47 -32.5t37.5 -58.5t14 -86.5v-51q0 -56 -17 -101t-55 -83t-107.5 -59
t-166.5 -21h-41q-83 0 -143.5 13t-96 34.5t-56 55t-27.5 67.5t-7 80v49h289v-23q0 -31 13.5 -47t48.5 -16q57 0 57 61v10q0 31 -11.5 43.5t-43.5 12.5h-158v209h156q30 0 40.5 12t10.5 39v20q0 26 -12.5 40t-45.5 14t-45 -13.5t-12 -40.5v-26h-274zM1047 334l292 510h308
v-475h120v-234h-120v-135h-295v135h-305v199zM1352 610q-14 -27 -64.5 -116t-68.5 -125h133v241z" />
    <glyph glyph-name="questiondown" unicode="&#xbf;" horiz-adv-x="1044" 
d="M723 666v-62q0 -86 -21 -141.5t-84 -140.5l-92 -119q-41 -54 -53 -85t-12 -87v-54q0 -81 76 -81q75 0 75 84v165h369v-174q0 -82 -19 -144.5t-64 -114.5t-129.5 -79.5t-205.5 -27.5h-55q-239 0 -345 92t-106 272v37q0 115 34 194.5t108 159.5l147 158q40 45 51 69.5
t11 74.5v4h315zM365 1147h397v-393h-397v393z" />
    <glyph glyph-name="Agrave" unicode="&#xc0;" horiz-adv-x="1105" 
d="M459 514h145l-29 205q-16 107 -43 377q-23 -229 -45 -377zM647 199h-231l-27 -199h-366l235 1524h563l262 -1524h-409zM350 1616l-114 287h385l106 -287h-377z" />
    <glyph glyph-name="Aacute" unicode="&#xc1;" horiz-adv-x="1105" 
d="M459 514h145l-29 205q-16 107 -43 377q-23 -229 -45 -377zM647 199h-231l-27 -199h-366l235 1524h563l262 -1524h-409zM457 1903h385l-115 -287h-377z" />
    <glyph glyph-name="Acircumflex" unicode="&#xc2;" horiz-adv-x="1105" 
d="M459 514h145l-29 205q-16 107 -43 377q-23 -229 -45 -377zM647 199h-231l-27 -199h-366l235 1524h563l262 -1524h-409zM936 1612h-322l-75 129l-76 -129h-318l185 291h422z" />
    <glyph glyph-name="Atilde" unicode="&#xc3;" horiz-adv-x="1105" 
d="M459 514h145l-29 205q-16 107 -43 377q-23 -229 -45 -377zM647 199h-231l-27 -199h-366l235 1524h563l262 -1524h-409zM877 1796q0 -80 -39.5 -128t-110.5 -48h-6q-30 0 -62 7.5t-54 16t-62 25.5q-88 37 -99 37q-18 0 -18 -29v-61h-223v143q0 80 39 128t110 48h6
q70 0 179 -51q88 -37 98 -37q18 0 18 29v63h224v-143z" />
    <glyph glyph-name="Adieresis" unicode="&#xc4;" horiz-adv-x="1105" 
d="M459 514h145l-29 205q-16 107 -43 377q-23 -229 -45 -377zM647 199h-231l-27 -199h-366l235 1524h563l262 -1524h-409zM909 1616h-329v301h329v-301zM498 1616h-330v301h330v-301z" />
    <glyph glyph-name="Aring" unicode="&#xc5;" horiz-adv-x="1105" 
d="M459 514h145l-29 205q-16 107 -43 377q-23 -229 -45 -377zM647 199h-231l-27 -199h-366l235 1524h563l262 -1524h-409zM539 1595q-105 0 -168.5 60.5t-63.5 159.5q0 100 63 158.5t169 58.5q105 0 168 -59t63 -158q0 -98 -63.5 -159t-167.5 -61zM539 1722q39 0 63.5 25.5
t24.5 67.5t-24.5 67t-63.5 25t-63.5 -25t-24.5 -67t24.5 -67.5t63.5 -25.5z" />
    <glyph glyph-name="AE" unicode="&#xc6;" horiz-adv-x="1505" 
d="M659 1210l-137 -659h137v659zM659 209h-208l-43 -209h-410l375 1524h1059v-355h-363v-202h307v-361h-307v-248h375v-358h-785v209z" />
    <glyph glyph-name="Ccedilla" unicode="&#xc7;" horiz-adv-x="1169" 
d="M375 -475v178h139q51 0 51 41v2q0 39 -51 39h-98v205q-177 31 -256.5 148.5t-79.5 314.5v628q0 111 25 193.5t80.5 145t150 94.5t227.5 32h72q463 0 463 -407v-215h-412v186q0 104 -86 104q-45 0 -63.5 -26.5t-18.5 -77.5v-680q0 -57 18.5 -84t63.5 -27q47 0 66.5 28.5
t19.5 82.5v229h412v-258q0 -88 -24.5 -161t-76.5 -134t-144 -95t-216 -34h-27v-63q132 0 192 -47.5t60 -142.5v-7q0 -192 -287 -192h-200z" />
    <glyph glyph-name="Egrave" unicode="&#xc8;" horiz-adv-x="966" 
d="M895 1524v-355h-389v-202h334v-361h-334v-248h399v-358h-813v1524h803zM307 1616l-114 287h385l106 -287h-377z" />
    <glyph glyph-name="Eacute" unicode="&#xc9;" horiz-adv-x="966" 
d="M895 1524v-355h-389v-202h334v-361h-334v-248h399v-358h-813v1524h803zM414 1903h385l-115 -287h-377z" />
    <glyph glyph-name="Ecircumflex" unicode="&#xca;" horiz-adv-x="966" 
d="M895 1524v-355h-389v-202h334v-361h-334v-248h399v-358h-813v1524h803zM893 1612h-322l-75 129l-76 -129h-318l185 291h422z" />
    <glyph glyph-name="Edieresis" unicode="&#xcb;" horiz-adv-x="966" 
d="M895 1524v-355h-389v-202h334v-361h-334v-248h399v-358h-813v1524h803zM866 1616h-329v301h329v-301zM455 1616h-330v301h330v-301z" />
    <glyph glyph-name="Igrave" unicode="&#xcc;" horiz-adv-x="618" 
d="M526 0h-434v1524h434v-1524zM121 1616l-115 287h385l107 -287h-377z" />
    <glyph glyph-name="Iacute" unicode="&#xcd;" horiz-adv-x="618" 
d="M526 0h-434v1524h434v-1524zM227 1903h385l-114 -287h-377z" />
    <glyph glyph-name="Icircumflex" unicode="&#xce;" horiz-adv-x="618" 
d="M526 0h-434v1524h434v-1524zM707 1612h-322l-76 129l-76 -129h-317l184 291h422z" />
    <glyph glyph-name="Idieresis" unicode="&#xcf;" horiz-adv-x="618" 
d="M526 0h-434v1524h434v-1524zM680 1616h-330v301h330v-301zM268 1616h-329v301h329v-301z" />
    <glyph glyph-name="Eth" unicode="&#xd0;" horiz-adv-x="1261" 
d="M639 330q54 0 76 29t22 98v624q0 64 -22 92.5t-76 28.5h-78v-244h94v-331h-94v-297h78zM127 627h-102v331h102v566h629q214 0 318 -99.5t104 -318.5v-688q0 -219 -103 -318.5t-311 -99.5h-637v627z" />
    <glyph glyph-name="Ntilde" unicode="&#xd1;" horiz-adv-x="1193" 
d="M682 967q52 -155 78 -267q-6 113 -6 299v525h348v-1524h-369l-223 641q-46 133 -74 244q8 -96 8 -299v-586h-352v1524h410zM936 1796q0 -80 -39.5 -128t-110.5 -48h-6q-30 0 -62 7.5t-54 16t-62 25.5q-88 37 -98 37q-19 0 -19 -29v-61h-223v143q0 80 39.5 128t110.5 48h6
q44 0 82.5 -12t95.5 -39q88 -37 98 -37q19 0 19 29v63h223v-143z" />
    <glyph glyph-name="Ograve" unicode="&#xd2;" horiz-adv-x="1220" 
d="M1141 438q0 -212 -125 -336.5t-369 -124.5h-74q-128 0 -224 33.5t-154 96t-86.5 145t-28.5 186.5v647q0 461 493 461h74q248 0 371 -119.5t123 -341.5v-647zM702 1077q0 115 -92 115q-49 0 -70.5 -28.5t-21.5 -86.5v-635q0 -55 21.5 -81.5t70.5 -26.5q92 0 92 108v635z
M422 1616l-115 287h385l107 -287h-377z" />
    <glyph glyph-name="Oacute" unicode="&#xd3;" horiz-adv-x="1220" 
d="M1141 438q0 -212 -125 -336.5t-369 -124.5h-74q-128 0 -224 33.5t-154 96t-86.5 145t-28.5 186.5v647q0 461 493 461h74q248 0 371 -119.5t123 -341.5v-647zM702 1077q0 115 -92 115q-49 0 -70.5 -28.5t-21.5 -86.5v-635q0 -55 21.5 -81.5t70.5 -26.5q92 0 92 108v635z
M528 1903h385l-114 -287h-377z" />
    <glyph glyph-name="Ocircumflex" unicode="&#xd4;" horiz-adv-x="1220" 
d="M1141 438q0 -212 -125 -336.5t-369 -124.5h-74q-128 0 -224 33.5t-154 96t-86.5 145t-28.5 186.5v647q0 461 493 461h74q248 0 371 -119.5t123 -341.5v-647zM702 1077q0 115 -92 115q-49 0 -70.5 -28.5t-21.5 -86.5v-635q0 -55 21.5 -81.5t70.5 -26.5q92 0 92 108v635z
M1008 1612h-322l-76 129l-75 -129h-318l184 291h422z" />
    <glyph glyph-name="Otilde" unicode="&#xd5;" horiz-adv-x="1220" 
d="M1141 438q0 -212 -125 -336.5t-369 -124.5h-74q-128 0 -224 33.5t-154 96t-86.5 145t-28.5 186.5v647q0 461 493 461h74q248 0 371 -119.5t123 -341.5v-647zM702 1077q0 115 -92 115q-49 0 -70.5 -28.5t-21.5 -86.5v-635q0 -55 21.5 -81.5t70.5 -26.5q92 0 92 108v635z
M948 1796q0 -80 -39 -128t-110 -48h-6q-65 0 -179 49q-88 37 -98 37q-18 0 -18 -29v-61h-224v143q0 80 39.5 128t110.5 48h6q44 0 82.5 -12t95.5 -39q88 -37 99 -37q18 0 18 29v63h223v-143z" />
    <glyph glyph-name="Odieresis" unicode="&#xd6;" horiz-adv-x="1220" 
d="M1141 438q0 -212 -125 -336.5t-369 -124.5h-74q-128 0 -224 33.5t-154 96t-86.5 145t-28.5 186.5v647q0 461 493 461h74q248 0 371 -119.5t123 -341.5v-647zM702 1077q0 115 -92 115q-49 0 -70.5 -28.5t-21.5 -86.5v-635q0 -55 21.5 -81.5t70.5 -26.5q92 0 92 108v635z
M981 1616h-330v301h330v-301zM569 1616h-329v301h329v-301z" />
    <glyph glyph-name="multiply" unicode="&#xd7;" horiz-adv-x="946" 
d="M471 442l-248 -249l-182 176l250 252l-250 247l182 189l252 -250l248 250l182 -176l-252 -254l252 -250l-182 -184z" />
    <glyph glyph-name="Oslash" unicode="&#xd8;" horiz-adv-x="1220" 
d="M580 -23q-180 0 -283 82l-37 -59h-211l107 180q-76 110 -76 258v647q0 222 119 341.5t368 119.5h74q183 0 281 -78l34 56h215l-106 -172q76 -110 76 -267v-647q0 -211 -125 -336t-363 -125h-73zM496 997q0 -184 -9 -307l228 438q-21 70 -105 70q-114 0 -114 -139v-62z
M608 328q115 0 115 135v61q0 210 8 330l-231 -442q18 -84 108 -84z" />
    <glyph glyph-name="Ugrave" unicode="&#xd9;" horiz-adv-x="1196" 
d="M561 -27q-127 0 -220.5 32.5t-148 91.5t-80.5 134.5t-26 169.5v1123h424v-1055q0 -113 88 -113q49 0 69.5 28t20.5 85v1055h422v-1123q0 -90 -30 -166.5t-88 -135.5t-151 -92.5t-210 -33.5h-70zM410 1616l-115 287h385l106 -287h-376z" />
    <glyph glyph-name="Uacute" unicode="&#xda;" horiz-adv-x="1196" 
d="M561 -27q-127 0 -220.5 32.5t-148 91.5t-80.5 134.5t-26 169.5v1123h424v-1055q0 -113 88 -113q49 0 69.5 28t20.5 85v1055h422v-1123q0 -90 -30 -166.5t-88 -135.5t-151 -92.5t-210 -33.5h-70zM516 1903h385l-115 -287h-376z" />
    <glyph glyph-name="Ucircumflex" unicode="&#xdb;" horiz-adv-x="1196" 
d="M561 -27q-127 0 -220.5 32.5t-148 91.5t-80.5 134.5t-26 169.5v1123h424v-1055q0 -113 88 -113q49 0 69.5 28t20.5 85v1055h422v-1123q0 -90 -30 -166.5t-88 -135.5t-151 -92.5t-210 -33.5h-70zM995 1612h-321l-76 129l-76 -129h-317l184 291h422z" />
    <glyph glyph-name="Udieresis" unicode="&#xdc;" horiz-adv-x="1196" 
d="M561 -27q-127 0 -220.5 32.5t-148 91.5t-80.5 134.5t-26 169.5v1123h424v-1055q0 -113 88 -113q49 0 69.5 28t20.5 85v1055h422v-1123q0 -90 -30 -166.5t-88 -135.5t-151 -92.5t-210 -33.5h-70zM969 1616h-330v301h330v-301zM557 1616h-330v301h330v-301z" />
    <glyph glyph-name="Yacute" unicode="&#xdd;" horiz-adv-x="1097" 
d="M326 559l-320 965h436l123 -508l123 508h404l-299 -973v-551h-467v559zM481 1903h385l-114 -287h-377z" />
    <glyph glyph-name="Thorn" unicode="&#xde;" horiz-adv-x="1163" 
d="M524 334v-334h-432v1524h432v-267h236q171 0 260.5 -82.5t89.5 -261.5v-233q0 -174 -90.5 -260t-259.5 -86h-236zM524 637h68q88 0 88 96v139q0 53 -20 74t-68 21h-68v-330z" />
    <glyph glyph-name="germandbls" unicode="&#xdf;" horiz-adv-x="1187" 
d="M905 934q22 -4 43.5 -11.5t55 -28.5t58 -51t42.5 -84t18 -122v-311q0 -160 -78.5 -243t-230.5 -83h-229v305h20q47 0 62.5 18t15.5 68v215q0 55 -14 70.5t-62 15.5h-22v301h22q47 0 61.5 17t14.5 69v107q0 100 -88 100h-2q-84 0 -84 -100v-1186h-422v1202q0 379 449 379
h108q128 0 217.5 -25.5t137 -72.5t67.5 -102.5t20 -127.5v-71q0 -52 -15 -94.5t-35 -68t-47.5 -45t-46 -27.5t-36.5 -13z" />
    <glyph glyph-name="agrave" unicode="&#xe0;" horiz-adv-x="1105" 
d="M610 559q-88 -40 -112 -55q-30 -20 -42 -43t-12 -60v-73q0 -88 82 -88q40 0 62 25.5t22 62.5v231zM55 403q0 120 55.5 186.5t176.5 102.5q52 18 158.5 44t136.5 36q19 6 23.5 14t4.5 33v17q0 47 -18.5 68.5t-67.5 21.5h-2q-48 0 -67 -21.5t-19 -70.5v-52h-366v72
q0 160 105 240t343 80h47q239 0 343 -79t104 -241v-500q0 -25 10 -35t39 -10h10v-309h-334q-50 0 -83.5 33t-39.5 98q-34 -48 -112 -97.5t-166 -49.5h-2q-131 0 -205 75.5t-74 196.5v147zM348 1241l-129 328h367l116 -328h-354z" />
    <glyph glyph-name="aacute" unicode="&#xe1;" horiz-adv-x="1105" 
d="M610 559q-88 -40 -112 -55q-30 -20 -42 -43t-12 -60v-73q0 -88 82 -88q40 0 62 25.5t22 62.5v231zM55 403q0 120 55.5 186.5t176.5 102.5q52 18 158.5 44t136.5 36q19 6 23.5 14t4.5 33v17q0 47 -18.5 68.5t-67.5 21.5h-2q-48 0 -67 -21.5t-19 -70.5v-52h-366v72
q0 160 105 240t343 80h47q239 0 343 -79t104 -241v-500q0 -25 10 -35t39 -10h10v-309h-334q-50 0 -83.5 33t-39.5 98q-34 -48 -112 -97.5t-166 -49.5h-2q-131 0 -205 75.5t-74 196.5v147zM465 1569h366l-129 -328h-354z" />
    <glyph glyph-name="acircumflex" unicode="&#xe2;" horiz-adv-x="1105" 
d="M610 559q-88 -40 -112 -55q-30 -20 -42 -43t-12 -60v-73q0 -88 82 -88q40 0 62 25.5t22 62.5v231zM55 403q0 120 55.5 186.5t176.5 102.5q52 18 158.5 44t136.5 36q19 6 23.5 14t4.5 33v17q0 47 -18.5 68.5t-67.5 21.5h-2q-48 0 -67 -21.5t-19 -70.5v-52h-366v72
q0 160 105 240t343 80h47q239 0 343 -79t104 -241v-500q0 -25 10 -35t39 -10h10v-309h-334q-50 0 -83.5 33t-39.5 98q-34 -48 -112 -97.5t-166 -49.5h-2q-131 0 -205 75.5t-74 196.5v147zM913 1239h-315l-74 162l-73 -162h-312l170 330h434z" />
    <glyph glyph-name="atilde" unicode="&#xe3;" horiz-adv-x="1105" 
d="M610 559q-88 -40 -112 -55q-30 -20 -42 -43t-12 -60v-73q0 -88 82 -88q40 0 62 25.5t22 62.5v231zM55 403q0 120 55.5 186.5t176.5 102.5q52 18 158.5 44t136.5 36q19 6 23.5 14t4.5 33v17q0 47 -18.5 68.5t-67.5 21.5h-2q-48 0 -67 -21.5t-19 -70.5v-52h-366v72
q0 160 105 240t343 80h47q239 0 343 -79t104 -241v-500q0 -25 10 -35t39 -10h10v-309h-334q-50 0 -83.5 33t-39.5 98q-34 -48 -112 -97.5t-166 -49.5h-2q-131 0 -205 75.5t-74 196.5v147zM862 1421q0 -80 -38.5 -128t-108.5 -48h-6q-75 0 -179 49q-82 37 -96 37
q-18 0 -18 -28v-62h-228v164q0 80 39 128t109 48h6q73 0 176 -49q86 -39 98 -39q19 0 19 31v61h227v-164z" />
    <glyph glyph-name="adieresis" unicode="&#xe4;" horiz-adv-x="1105" 
d="M610 559q-88 -40 -112 -55q-30 -20 -42 -43t-12 -60v-73q0 -88 82 -88q40 0 62 25.5t22 62.5v231zM55 403q0 120 55.5 186.5t176.5 102.5q52 18 158.5 44t136.5 36q19 6 23.5 14t4.5 33v17q0 47 -18.5 68.5t-67.5 21.5h-2q-48 0 -67 -21.5t-19 -70.5v-52h-366v72
q0 160 105 240t343 80h47q239 0 343 -79t104 -241v-500q0 -25 10 -35t39 -10h10v-309h-334q-50 0 -83.5 33t-39.5 98q-34 -48 -112 -97.5t-166 -49.5h-2q-131 0 -205 75.5t-74 196.5v147zM911 1241h-329v301h329v-301zM504 1241h-330v301h330v-301z" />
    <glyph glyph-name="aring" unicode="&#xe5;" horiz-adv-x="1105" 
d="M610 559q-88 -40 -112 -55q-30 -20 -42 -43t-12 -60v-73q0 -88 82 -88q40 0 62 25.5t22 62.5v231zM55 403q0 120 55.5 186.5t176.5 102.5q52 18 158.5 44t136.5 36q19 6 23.5 14t4.5 33v17q0 47 -18.5 68.5t-67.5 21.5h-2q-48 0 -67 -21.5t-19 -70.5v-52h-366v72
q0 160 105 240t343 80h47q239 0 343 -79t104 -241v-500q0 -25 10 -35t39 -10h10v-309h-334q-50 0 -83.5 33t-39.5 98q-34 -48 -112 -97.5t-166 -49.5h-2q-131 0 -205 75.5t-74 196.5v147zM524 1229q-105 0 -168 60t-63 159q0 100 62.5 158.5t168.5 58.5q105 0 168.5 -59
t63.5 -158q0 -98 -64 -158.5t-168 -60.5zM524 1356q39 0 63.5 25t24.5 67t-24.5 67t-63.5 25t-63.5 -25t-24.5 -67t24.5 -67t63.5 -25z" />
    <glyph glyph-name="ae" unicode="&#xe6;" horiz-adv-x="1652" 
d="M1020 739h166v99q0 53 -19.5 74.5t-62.5 21.5q-84 0 -84 -96v-99zM612 543q-83 -37 -112 -56q-31 -20 -42.5 -42.5t-11.5 -59.5v-57q0 -88 82 -88q40 0 62 25.5t22 62.5v215zM1577 356q0 -183 -110.5 -285t-321.5 -102h-72q-291 0 -393 170q-120 -155 -328 -155h-2
q-142 0 -217.5 76t-75.5 198v129q0 120 55 185.5t177 103.5q52 18 158.5 44t136.5 36q19 6 23.5 14t4.5 33v33q0 47 -18.5 68.5t-67.5 21.5h-2q-48 0 -67 -21.5t-19 -70.5v-64h-366v84q0 159 101.5 239.5t322.5 80.5h49q202 0 284 -82q30 33 93.5 56t154.5 23h74
q206 0 316 -96t110 -309v-229h-557v-207q0 -99 84 -99q82 0 82 99v112h391v-86z" />
    <glyph glyph-name="ccedilla" unicode="&#xe7;" horiz-adv-x="1093" 
d="M340 -475v178h139q51 0 51 41v2q0 39 -51 39h-98v199q-307 56 -307 381v421q0 186 109 288t335 102h88q212 0 313 -92t101 -259v-133h-377v109q0 98 -76 98q-73 0 -73 -98v-449q0 -92 73 -92q76 0 76 92v142h377v-160q0 -166 -102 -263.5t-312 -97.5h-31v-59
q132 0 192 -47.5t60 -142.5v-7q0 -95 -68.5 -143.5t-217.5 -48.5h-201z" />
    <glyph glyph-name="egrave" unicode="&#xe8;" horiz-adv-x="1114" 
d="M483 735h164v107q0 53 -19.5 74.5t-62.5 21.5q-82 0 -82 -96v-107zM1040 360q0 -183 -111.5 -285t-322.5 -102h-82q-220 0 -335 100.5t-115 301.5v389q0 412 450 412h82q211 0 322.5 -96t111.5 -310v-238h-557v-198q0 -98 82 -98t82 98v102h393v-76zM389 1241l-129 328
h367l116 -328h-354z" />
    <glyph glyph-name="eacute" unicode="&#xe9;" horiz-adv-x="1114" 
d="M483 735h164v107q0 53 -19.5 74.5t-62.5 21.5q-82 0 -82 -96v-107zM1040 360q0 -183 -111.5 -285t-322.5 -102h-82q-220 0 -335 100.5t-115 301.5v389q0 412 450 412h82q211 0 322.5 -96t111.5 -310v-238h-557v-198q0 -98 82 -98t82 98v102h393v-76zM506 1569h366
l-129 -328h-354z" />
    <glyph glyph-name="ecircumflex" unicode="&#xea;" horiz-adv-x="1114" 
d="M483 735h164v107q0 53 -19.5 74.5t-62.5 21.5q-82 0 -82 -96v-107zM1040 360q0 -183 -111.5 -285t-322.5 -102h-82q-220 0 -335 100.5t-115 301.5v389q0 412 450 412h82q211 0 322.5 -96t111.5 -310v-238h-557v-198q0 -98 82 -98t82 98v102h393v-76zM954 1239h-315
l-74 162l-73 -162h-312l170 330h434z" />
    <glyph glyph-name="edieresis" unicode="&#xeb;" horiz-adv-x="1114" 
d="M483 735h164v107q0 53 -19.5 74.5t-62.5 21.5q-82 0 -82 -96v-107zM1040 360q0 -183 -111.5 -285t-322.5 -102h-82q-220 0 -335 100.5t-115 301.5v389q0 412 450 412h82q211 0 322.5 -96t111.5 -310v-238h-557v-198q0 -98 82 -98t82 98v102h393v-76zM934 1241h-330v301
h330v-301zM526 1241h-329v301h329v-301z" />
    <glyph glyph-name="igrave" unicode="&#xec;" horiz-adv-x="593" 
d="M123 1241l-129 328h366l117 -328h-354zM508 0h-422v1147h422v-1147z" />
    <glyph glyph-name="iacute" unicode="&#xed;" horiz-adv-x="593" 
d="M240 1569h366l-129 -328h-354zM508 0h-422v1147h422v-1147z" />
    <glyph glyph-name="icircumflex" unicode="&#xee;" horiz-adv-x="593" 
d="M674 1239h-305l-70 172l-70 -172h-301l150 330h446zM508 0h-422v1147h422v-1147z" />
    <glyph glyph-name="idieresis" unicode="&#xef;" horiz-adv-x="593" 
d="M629 1241h-299v301h299v-301zM262 1241h-299v301h299v-301zM508 0h-422v1147h422v-1147z" />
    <glyph glyph-name="eth" unicode="&#xf0;" horiz-adv-x="1163" 
d="M535 -27q-128 0 -219 30.5t-143 87.5t-75.5 130t-23.5 168v418q0 147 77 243.5t214 96.5h12q72 0 134 -22.5t92.5 -45.5t64.5 -57l-166 242l-283 -72v158l191 49l-105 151h420l45 -61l227 57v-155l-133 -35l80 -111q81 -116 113.5 -216.5t32.5 -248.5v-381
q0 -74 -15.5 -136.5t-50.5 -117t-89 -92t-135 -59t-184 -21.5h-81zM582 266q88 0 88 103v417q0 105 -88 105q-46 0 -66 -26t-20 -79v-417q0 -103 86 -103z" />
    <glyph glyph-name="ntilde" unicode="&#xf1;" horiz-adv-x="1183" 
d="M86 1147h414v-150q115 166 301 166h18q139 0 210 -78t71 -215v-870h-422v750q0 48 -21.5 77t-66.5 29q-86 0 -86 -108v-748h-418v1147zM928 1421q0 -80 -39 -128t-109 -48h-6q-74 0 -178 49q-82 37 -96 37q-19 0 -19 -28v-62h-227v164q0 80 38.5 128t108.5 48h7
q73 0 176 -49q86 -39 98 -39q18 0 18 31v61h228v-164z" />
    <glyph glyph-name="ograve" unicode="&#xf2;" horiz-adv-x="1163" 
d="M537 -27q-463 0 -463 420v367q0 194 112 305t351 111h90q463 0 463 -416v-365q0 -199 -115.5 -310.5t-347.5 -111.5h-90zM582 266q88 0 88 103v417q0 105 -88 105q-46 0 -66 -26t-20 -79v-417q0 -103 86 -103zM406 1241l-130 328h367l117 -328h-354z" />
    <glyph glyph-name="oacute" unicode="&#xf3;" horiz-adv-x="1163" 
d="M537 -27q-463 0 -463 420v367q0 194 112 305t351 111h90q463 0 463 -416v-365q0 -199 -115.5 -310.5t-347.5 -111.5h-90zM582 266q88 0 88 103v417q0 105 -88 105q-46 0 -66 -26t-20 -79v-417q0 -103 86 -103zM522 1569h367l-129 -328h-354z" />
    <glyph glyph-name="ocircumflex" unicode="&#xf4;" horiz-adv-x="1163" 
d="M537 -27q-463 0 -463 420v367q0 194 112 305t351 111h90q463 0 463 -416v-365q0 -199 -115.5 -310.5t-347.5 -111.5h-90zM582 266q88 0 88 103v417q0 105 -88 105q-46 0 -66 -26t-20 -79v-417q0 -103 86 -103zM971 1239h-316l-73 162l-74 -162h-311l170 330h434z" />
    <glyph glyph-name="otilde" unicode="&#xf5;" horiz-adv-x="1163" 
d="M537 -27q-463 0 -463 420v367q0 194 112 305t351 111h90q463 0 463 -416v-365q0 -199 -115.5 -310.5t-347.5 -111.5h-90zM582 266q88 0 88 103v417q0 105 -88 105q-46 0 -66 -26t-20 -79v-417q0 -103 86 -103zM920 1421q0 -80 -39 -128t-109 -48h-6q-74 0 -178 49
q-82 37 -96 37q-19 0 -19 -28v-62h-227v164q0 80 38.5 128t108.5 48h6q73 0 176 -49q86 -39 99 -39q18 0 18 31v61h228v-164z" />
    <glyph glyph-name="odieresis" unicode="&#xf6;" horiz-adv-x="1163" 
d="M537 -27q-463 0 -463 420v367q0 194 112 305t351 111h90q463 0 463 -416v-365q0 -199 -115.5 -310.5t-347.5 -111.5h-90zM582 266q88 0 88 103v417q0 105 -88 105q-46 0 -66 -26t-20 -79v-417q0 -103 86 -103zM950 1241h-329v301h329v-301zM543 1241h-330v301h330v-301z
" />
    <glyph glyph-name="divide" unicode="&#xf7;" horiz-adv-x="1048" 
d="M690 866h-332v293h332v-293zM977 754v-258h-905v258h905zM690 86h-332v291h332v-291z" />
    <glyph glyph-name="oslash" unicode="&#xf8;" horiz-adv-x="1163" 
d="M535 -27q-143 0 -254 68l-33 -41h-195l105 133q-84 105 -84 260v367q0 194 112 305t351 111h90q143 0 250 -68l32 39h201l-106 -129q86 -111 86 -258v-365q0 -199 -115.5 -310.5t-349.5 -111.5h-90zM471 737q0 -180 -4 -217l215 322q-27 49 -100 49q-111 0 -111 -125v-29
zM582 266q112 0 112 125v27q0 179 4 221l-217 -322q26 -51 101 -51z" />
    <glyph glyph-name="ugrave" unicode="&#xf9;" horiz-adv-x="1175" 
d="M1090 0h-414v150q-18 -24 -39 -46t-59.5 -52.5t-92 -49t-112.5 -18.5h-13q-132 0 -204 77.5t-72 214.5v871h422v-754q0 -100 82 -100q42 0 63 28t21 74v752h418v-1147zM410 1241l-129 328h366l117 -328h-354z" />
    <glyph glyph-name="uacute" unicode="&#xfa;" horiz-adv-x="1175" 
d="M1090 0h-414v150q-18 -24 -39 -46t-59.5 -52.5t-92 -49t-112.5 -18.5h-13q-132 0 -204 77.5t-72 214.5v871h422v-754q0 -100 82 -100q42 0 63 28t21 74v752h418v-1147zM528 1569h367l-129 -328h-354z" />
    <glyph glyph-name="ucircumflex" unicode="&#xfb;" horiz-adv-x="1175" 
d="M1090 0h-414v150q-18 -24 -39 -46t-59.5 -52.5t-92 -49t-112.5 -18.5h-13q-132 0 -204 77.5t-72 214.5v871h422v-754q0 -100 82 -100q42 0 63 28t21 74v752h418v-1147zM975 1239h-316l-73 162l-74 -162h-311l170 330h434z" />
    <glyph glyph-name="udieresis" unicode="&#xfc;" horiz-adv-x="1175" 
d="M1090 0h-414v150q-18 -24 -39 -46t-59.5 -52.5t-92 -49t-112.5 -18.5h-13q-132 0 -204 77.5t-72 214.5v871h422v-754q0 -100 82 -100q42 0 63 28t21 74v752h418v-1147zM954 1241h-329v301h329v-301zM547 1241h-330v301h330v-301z" />
    <glyph glyph-name="yacute" unicode="&#xfd;" horiz-adv-x="1083" 
d="M139 -55h129q45 0 45 35v2q0 32 -26 122l-271 1043h424l111 -737l104 737h412l-317 -1317q-29 -113 -85 -160t-161 -47h-365v322zM489 1569h367l-129 -328h-354z" />
    <glyph glyph-name="thorn" unicode="&#xfe;" horiz-adv-x="1171" 
d="M588 256q41 0 62.5 28.5t21.5 80.5v399q0 110 -84 110q-82 0 -82 -110v-399q0 -109 82 -109zM1094 309q0 -148 -79 -234.5t-214 -86.5h-15q-160 0 -276 125v-490h-424v1927h420v-549q15 23 37.5 46t58.5 50t87 43.5t108 16.5h14q137 0 210 -79.5t73 -241.5v-527z" />
    <glyph glyph-name="ydieresis" unicode="&#xff;" horiz-adv-x="1083" 
d="M139 -55h129q45 0 45 35v2q0 32 -26 122l-271 1043h424l111 -737l104 737h412l-317 -1317q-29 -113 -85 -160t-161 -47h-365v322zM913 1241h-329v301h329v-301zM506 1241h-330v301h330v-301z" />
    <glyph glyph-name="Amacron" unicode="&#x100;" horiz-adv-x="1105" 
d="M459 514h145l-29 205q-16 107 -43 377q-23 -229 -45 -377zM647 199h-231l-27 -199h-366l235 1524h563l262 -1524h-409zM246 1888h585v-256h-585v256z" />
    <glyph glyph-name="amacron" unicode="&#x101;" horiz-adv-x="1105" 
d="M610 559q-88 -40 -112 -55q-30 -20 -42 -43t-12 -60v-73q0 -88 82 -88q40 0 62 25.5t22 62.5v231zM55 403q0 120 55.5 186.5t176.5 102.5q52 18 158.5 44t136.5 36q19 6 23.5 14t4.5 33v17q0 47 -18.5 68.5t-67.5 21.5h-2q-48 0 -67 -21.5t-19 -70.5v-52h-366v72
q0 160 105 240t343 80h47q239 0 343 -79t104 -241v-500q0 -25 10 -35t39 -10h10v-309h-334q-50 0 -83.5 33t-39.5 98q-34 -48 -112 -97.5t-166 -49.5h-2q-131 0 -205 75.5t-74 196.5v147zM248 1524h586v-256h-586v256z" />
    <glyph glyph-name="Abreve" unicode="&#x102;" horiz-adv-x="1105" 
d="M459 514h145l-29 205q-16 107 -43 377q-23 -229 -45 -377zM647 199h-231l-27 -199h-366l235 1524h563l262 -1524h-409zM535 1604q-161 0 -245.5 78.5t-84.5 207.5v13h266v-9q0 -73 68 -73q67 0 67 73v9h271v-13q0 -129 -84.5 -207.5t-245.5 -78.5h-12z" />
    <glyph glyph-name="abreve" unicode="&#x103;" horiz-adv-x="1105" 
d="M610 559q-88 -40 -112 -55q-30 -20 -42 -43t-12 -60v-73q0 -88 82 -88q40 0 62 25.5t22 62.5v231zM55 403q0 120 55.5 186.5t176.5 102.5q52 18 158.5 44t136.5 36q19 6 23.5 14t4.5 33v17q0 47 -18.5 68.5t-67.5 21.5h-2q-48 0 -67 -21.5t-19 -70.5v-52h-366v72
q0 160 105 240t343 80h47q239 0 343 -79t104 -241v-500q0 -25 10 -35t39 -10h10v-309h-334q-50 0 -83.5 33t-39.5 98q-34 -48 -112 -97.5t-166 -49.5h-2q-131 0 -205 75.5t-74 196.5v147zM522 1235q-161 0 -243 80t-82 219v25h268v-17q0 -86 63 -86q64 0 64 86v17h268v-25
q0 -139 -82 -219t-243 -80h-13z" />
    <glyph glyph-name="Aogonek" unicode="&#x104;" horiz-adv-x="1105" 
d="M459 514h145l-29 205q-16 107 -43 377q-23 -229 -45 -377zM647 199h-231l-27 -199h-366l235 1524h563l262 -1524h-409zM653 -225q0 132 260 225h170q-106 -87 -106 -135v-4q0 -43 70 -43h36v-199h-221q-100 0 -154.5 38.5t-54.5 111.5v6z" />
    <glyph glyph-name="aogonek" unicode="&#x105;" horiz-adv-x="1105" 
d="M610 559q-88 -40 -112 -55q-30 -20 -42 -43t-12 -60v-73q0 -88 82 -88q40 0 62 25.5t22 62.5v231zM55 403q0 120 55.5 186.5t176.5 102.5q52 18 158.5 44t136.5 36q19 6 23.5 14t4.5 33v17q0 47 -18.5 68.5t-67.5 21.5h-2q-48 0 -67 -21.5t-19 -70.5v-52h-366v72
q0 160 105 240t343 80h47q239 0 343 -79t104 -241v-500q0 -25 10 -35t39 -10h10v-309h-334q-50 0 -83.5 33t-39.5 98q-34 -48 -112 -97.5t-166 -49.5h-2q-131 0 -205 75.5t-74 196.5v147zM641 -225q0 132 260 225h170q-106 -87 -106 -135v-4q0 -43 69 -43h37v-199h-221
q-100 0 -154.5 38.5t-54.5 111.5v6z" />
    <glyph glyph-name="Cacute" unicode="&#x106;" horiz-adv-x="1169" 
d="M600 319q47 0 66.5 28.5t19.5 82.5v229h412v-258q0 -88 -24.5 -161t-76.5 -134t-144 -95t-216 -34h-72q-258 0 -371.5 120.5t-113.5 355.5v628q0 111 25 193.5t80.5 145t150 94.5t227.5 32h72q463 0 463 -407v-215h-412v186q0 104 -86 104q-45 0 -63.5 -26.5t-18.5 -77.5
v-680q0 -57 18.5 -84t63.5 -27zM518 1903h385l-115 -287h-376z" />
    <glyph glyph-name="cacute" unicode="&#x107;" horiz-adv-x="1093" 
d="M518 -27q-229 0 -336.5 99.5t-107.5 292.5v421q0 186 109 288t335 102h88q212 0 313 -92t101 -259v-133h-377v109q0 98 -76 98q-73 0 -73 -98v-449q0 -92 73 -92q76 0 76 92v142h377v-160q0 -166 -102 -263.5t-312 -97.5h-88zM504 1569h366l-129 -328h-354z" />
    <glyph glyph-name="Ccircumflex" unicode="&#x108;" horiz-adv-x="1169" 
d="M600 319q47 0 66.5 28.5t19.5 82.5v229h412v-258q0 -88 -24.5 -161t-76.5 -134t-144 -95t-216 -34h-72q-258 0 -371.5 120.5t-113.5 355.5v628q0 111 25 193.5t80.5 145t150 94.5t227.5 32h72q463 0 463 -407v-215h-412v186q0 104 -86 104q-45 0 -63.5 -26.5t-18.5 -77.5
v-680q0 -57 18.5 -84t63.5 -27zM997 1612h-321l-76 129l-76 -129h-317l184 291h422z" />
    <glyph glyph-name="ccircumflex" unicode="&#x109;" horiz-adv-x="1093" 
d="M518 -27q-229 0 -336.5 99.5t-107.5 292.5v421q0 186 109 288t335 102h88q212 0 313 -92t101 -259v-133h-377v109q0 98 -76 98q-73 0 -73 -98v-449q0 -92 73 -92q76 0 76 92v142h377v-160q0 -166 -102 -263.5t-312 -97.5h-88zM952 1239h-315l-74 162l-74 -162h-311
l170 330h434z" />
    <glyph glyph-name="Cdotaccent" unicode="&#x10a;" horiz-adv-x="1169" 
d="M600 319q47 0 66.5 28.5t19.5 82.5v229h412v-258q0 -88 -24.5 -161t-76.5 -134t-144 -95t-216 -34h-72q-258 0 -371.5 120.5t-113.5 355.5v628q0 111 25 193.5t80.5 145t150 94.5t227.5 32h72q463 0 463 -407v-215h-412v186q0 104 -86 104q-45 0 -63.5 -26.5t-18.5 -77.5
v-680q0 -57 18.5 -84t63.5 -27zM813 1616h-422v321h422v-321z" />
    <glyph glyph-name="cdotaccent" unicode="&#x10b;" horiz-adv-x="1093" 
d="M518 -27q-229 0 -336.5 99.5t-107.5 292.5v421q0 186 109 288t335 102h88q212 0 313 -92t101 -259v-133h-377v109q0 98 -76 98q-73 0 -73 -98v-449q0 -92 73 -92q76 0 76 92v142h377v-160q0 -166 -102 -263.5t-312 -97.5h-88zM760 1241h-422v322h422v-322z" />
    <glyph glyph-name="Ccaron" unicode="&#x10c;" horiz-adv-x="1169" 
d="M600 319q47 0 66.5 28.5t19.5 82.5v229h412v-258q0 -88 -24.5 -161t-76.5 -134t-144 -95t-216 -34h-72q-258 0 -371.5 120.5t-113.5 355.5v628q0 111 25 193.5t80.5 145t150 94.5t227.5 32h72q463 0 463 -407v-215h-412v186q0 104 -86 104q-45 0 -63.5 -26.5t-18.5 -77.5
v-680q0 -57 18.5 -84t63.5 -27zM203 1907h321l76 -129l76 129h317l-184 -291h-422z" />
    <glyph glyph-name="ccaron" unicode="&#x10d;" horiz-adv-x="1093" 
d="M518 -27q-229 0 -336.5 99.5t-107.5 292.5v421q0 186 109 288t335 102h88q212 0 313 -92t101 -259v-133h-377v109q0 98 -76 98q-73 0 -73 -98v-449q0 -92 73 -92q76 0 76 92v142h377v-160q0 -166 -102 -263.5t-312 -97.5h-88zM174 1569h315l74 -160l74 160h311l-172 -328
h-430z" />
    <glyph glyph-name="Dcaron" unicode="&#x10e;" horiz-adv-x="1226" 
d="M92 1524h629q214 0 318 -99.5t104 -318.5v-688q0 -219 -103 -318.5t-311 -99.5h-637v1524zM526 330h78q54 0 76 29t22 98v624q0 64 -22 92.5t-76 28.5h-78v-872zM147 1907h322l76 -129l76 129h317l-184 -291h-422z" />
    <glyph glyph-name="dcaron" unicode="&#x10f;" horiz-adv-x="1175" 
d="M588 258q40 0 63 29.5t23 77.5v397q0 108 -86 108q-46 0 -65 -26t-19 -82v-400q0 -104 84 -104zM1092 1550v-1550h-414v125q-25 -28 -42.5 -44t-55.5 -45t-86 -44t-103 -15h-12q-141 0 -221 90t-80 226v555q0 143 77.5 227t213.5 84h12q57 0 106 -12.5t86.5 -36.5t57 -40
t43.5 -40v520h418zM1180 1563h278l-35 -322h-266z" />
    <glyph glyph-name="Dcroat" unicode="&#x110;" horiz-adv-x="1261" 
d="M639 330q54 0 76 29t22 98v624q0 64 -22 92.5t-76 28.5h-78v-244h94v-331h-94v-297h78zM127 627h-102v331h102v566h629q214 0 318 -99.5t104 -318.5v-688q0 -219 -103 -318.5t-311 -99.5h-637v627z" />
    <glyph glyph-name="dcroat" unicode="&#x111;" horiz-adv-x="1175" 
d="M422 1434h792v-213h-792v213zM588 258q40 0 63 29.5t23 77.5v397q0 108 -86 108q-46 0 -65 -26t-19 -82v-400q0 -104 84 -104zM1092 1550v-1550h-414v125q-25 -28 -42.5 -44t-55.5 -45t-86 -44t-103 -15h-12q-141 0 -221 90t-80 226v555q0 143 77.5 227t213.5 84h12
q57 0 106 -12.5t86.5 -36.5t57 -40t43.5 -40v520h418z" />
    <glyph glyph-name="Emacron" unicode="&#x112;" horiz-adv-x="966" 
d="M895 1524v-355h-389v-202h334v-361h-334v-248h399v-358h-813v1524h803zM203 1888h585v-256h-585v256z" />
    <glyph glyph-name="emacron" unicode="&#x113;" horiz-adv-x="1114" 
d="M483 735h164v107q0 53 -19.5 74.5t-62.5 21.5q-82 0 -82 -96v-107zM1040 360q0 -183 -111.5 -285t-322.5 -102h-82q-220 0 -335 100.5t-115 301.5v389q0 412 450 412h82q211 0 322.5 -96t111.5 -310v-238h-557v-198q0 -98 82 -98t82 98v102h393v-76zM272 1524h586v-256
h-586v256z" />
    <glyph glyph-name="Ebreve" unicode="&#x114;" horiz-adv-x="966" 
d="M895 1524v-355h-389v-202h334v-361h-334v-248h399v-358h-813v1524h803zM492 1604q-161 0 -245.5 78.5t-84.5 207.5v13h266v-9q0 -73 68 -73q67 0 67 73v9h271v-13q0 -129 -84.5 -207.5t-245.5 -78.5h-12z" />
    <glyph glyph-name="ebreve" unicode="&#x115;" horiz-adv-x="1114" 
d="M483 735h164v107q0 53 -19.5 74.5t-62.5 21.5q-82 0 -82 -96v-107zM1040 360q0 -183 -111.5 -285t-322.5 -102h-82q-220 0 -335 100.5t-115 301.5v389q0 412 450 412h82q211 0 322.5 -96t111.5 -310v-238h-557v-198q0 -98 82 -98t82 98v102h393v-76zM559 1235
q-161 0 -243.5 80t-82.5 219v25h269v-17q0 -86 63 -86q64 0 64 86v17h268v-25q0 -139 -82.5 -219t-243.5 -80h-12z" />
    <glyph glyph-name="Edotaccent" unicode="&#x116;" horiz-adv-x="966" 
d="M895 1524v-355h-389v-202h334v-361h-334v-248h399v-358h-813v1524h803zM709 1616h-422v321h422v-321z" />
    <glyph glyph-name="edotaccent" unicode="&#x117;" horiz-adv-x="1114" 
d="M483 735h164v107q0 53 -19.5 74.5t-62.5 21.5q-82 0 -82 -96v-107zM1040 360q0 -183 -111.5 -285t-322.5 -102h-82q-220 0 -335 100.5t-115 301.5v389q0 412 450 412h82q211 0 322.5 -96t111.5 -310v-238h-557v-198q0 -98 82 -98t82 98v102h393v-76zM776 1241h-422v322
h422v-322z" />
    <glyph glyph-name="Eogonek" unicode="&#x118;" horiz-adv-x="966" 
d="M895 1524v-355h-389v-202h334v-361h-334v-248h399v-358h-813v1524h803zM360 -225q0 132 261 225h170q-107 -88 -107 -135v-4q0 -43 70 -43h37v-199h-222q-100 0 -154.5 38.5t-54.5 111.5v6z" />
    <glyph glyph-name="eogonek" unicode="&#x119;" horiz-adv-x="1114" 
d="M483 735h164v107q0 53 -19.5 74.5t-62.5 21.5q-82 0 -82 -96v-107zM897 -381h-223q-213 0 -213 154v4q0 113 205 198q-23 -2 -60 -2h-82q-220 0 -335 100.5t-115 301.5v389q0 412 450 412h82q211 0 322.5 -96t111.5 -310v-238h-557v-198q0 -50 18.5 -74t63.5 -24
q82 0 82 98v104h393v-78q0 -98 -32.5 -170t-104.5 -157q-87 -97 -101 -119q-14 -24 -14 -45q0 -49 72 -49h37v-201z" />
    <glyph glyph-name="Ecaron" unicode="&#x11a;" horiz-adv-x="966" 
d="M895 1524v-355h-389v-202h334v-361h-334v-248h399v-358h-813v1524h803zM98 1907h322l76 -129l75 129h318l-184 -291h-422z" />
    <glyph glyph-name="ecaron" unicode="&#x11b;" horiz-adv-x="1114" 
d="M483 735h164v107q0 53 -19.5 74.5t-62.5 21.5q-82 0 -82 -96v-107zM1040 360q0 -183 -111.5 -285t-322.5 -102h-82q-220 0 -335 100.5t-115 301.5v389q0 412 450 412h82q211 0 322.5 -96t111.5 -310v-238h-557v-198q0 -98 82 -98t82 98v102h393v-76zM176 1569h316
l73 -160l74 160h311l-172 -328h-430z" />
    <glyph glyph-name="Gcircumflex" unicode="&#x11c;" horiz-adv-x="1185" 
d="M457 -23q-97 0 -171 33t-118 91.5t-66 133t-22 162.5v709q0 440 479 440h64q129 0 223 -31t145.5 -86.5t75 -122.5t23.5 -149v-151h-398v98q0 55 -21.5 84t-72.5 29t-70.5 -27.5t-19.5 -85.5v-680q0 -127 104 -127q103 0 103 127v182h-123v293h516v-899h-283
q-12 67 -43 135q-109 -158 -311 -158h-14zM989 1612h-321l-76 129l-76 -129h-317l184 291h422z" />
    <glyph glyph-name="gcircumflex" unicode="&#x11d;" horiz-adv-x="1175" 
d="M588 266q86 0 86 111v379q0 114 -86 114q-47 0 -65.5 -28t-18.5 -86v-379q0 -57 18.5 -84t65.5 -27zM541 -406q-128 0 -216.5 24t-136.5 70.5t-68 103t-20 132.5v13h406q0 -68 82 -68h2q39 0 61.5 24t22.5 66v174q-1 -1 -13 -13.5t-20 -20t-25.5 -22.5t-32 -25t-37 -22.5
t-44.5 -19.5t-49.5 -12.5t-55.5 -5.5h-12q-152 0 -229.5 80.5t-77.5 234.5v539q0 137 73.5 225t217.5 88h12q37 0 71 -6t61.5 -18t49 -23.5t42 -28.5t31.5 -27t25.5 -26t16.5 -18v135h412v-1190q0 -76 -22.5 -138t-72.5 -114t-141.5 -81.5t-218.5 -29.5h-94zM961 1239h-316
l-74 162l-73 -162h-312l170 330h435z" />
    <glyph glyph-name="Gbreve" unicode="&#x11e;" horiz-adv-x="1185" 
d="M457 -23q-97 0 -171 33t-118 91.5t-66 133t-22 162.5v709q0 440 479 440h64q129 0 223 -31t145.5 -86.5t75 -122.5t23.5 -149v-151h-398v98q0 55 -21.5 84t-72.5 29t-70.5 -27.5t-19.5 -85.5v-680q0 -127 104 -127q103 0 103 127v182h-123v293h516v-899h-283
q-12 67 -43 135q-109 -158 -311 -158h-14zM588 1604q-161 0 -245.5 78.5t-84.5 207.5v13h266v-9q0 -73 68 -73q67 0 67 73v9h271v-13q0 -129 -84.5 -207.5t-245.5 -78.5h-12z" />
    <glyph glyph-name="gbreve" unicode="&#x11f;" horiz-adv-x="1175" 
d="M588 266q86 0 86 111v379q0 114 -86 114q-47 0 -65.5 -28t-18.5 -86v-379q0 -57 18.5 -84t65.5 -27zM541 -406q-128 0 -216.5 24t-136.5 70.5t-68 103t-20 132.5v13h406q0 -68 82 -68h2q39 0 61.5 24t22.5 66v174q-1 -1 -13 -13.5t-20 -20t-25.5 -22.5t-32 -25t-37 -22.5
t-44.5 -19.5t-49.5 -12.5t-55.5 -5.5h-12q-152 0 -229.5 80.5t-77.5 234.5v539q0 137 73.5 225t217.5 88h12q37 0 71 -6t61.5 -18t49 -23.5t42 -28.5t31.5 -27t25.5 -26t16.5 -18v135h412v-1190q0 -76 -22.5 -138t-72.5 -114t-141.5 -81.5t-218.5 -29.5h-94zM563 1235
q-161 0 -243 80t-82 219v25h268v-17q0 -86 63 -86q64 0 64 86v17h268v-25q0 -139 -82.5 -219t-243.5 -80h-12z" />
    <glyph glyph-name="Gdotaccent" unicode="&#x120;" horiz-adv-x="1185" 
d="M457 -23q-97 0 -171 33t-118 91.5t-66 133t-22 162.5v709q0 440 479 440h64q129 0 223 -31t145.5 -86.5t75 -122.5t23.5 -149v-151h-398v98q0 55 -21.5 84t-72.5 29t-70.5 -27.5t-19.5 -85.5v-680q0 -127 104 -127q103 0 103 127v182h-123v293h516v-899h-283
q-12 67 -43 135q-109 -158 -311 -158h-14zM805 1616h-422v321h422v-321z" />
    <glyph glyph-name="gdotaccent" unicode="&#x121;" horiz-adv-x="1175" 
d="M588 266q86 0 86 111v379q0 114 -86 114q-47 0 -65.5 -28t-18.5 -86v-379q0 -57 18.5 -84t65.5 -27zM541 -406q-128 0 -216.5 24t-136.5 70.5t-68 103t-20 132.5v13h406q0 -68 82 -68h2q39 0 61.5 24t22.5 66v174q-1 -1 -13 -13.5t-20 -20t-25.5 -22.5t-32 -25t-37 -22.5
t-44.5 -19.5t-49.5 -12.5t-55.5 -5.5h-12q-152 0 -229.5 80.5t-77.5 234.5v539q0 137 73.5 225t217.5 88h12q37 0 71 -6t61.5 -18t49 -23.5t42 -28.5t31.5 -27t25.5 -26t16.5 -18v135h412v-1190q0 -76 -22.5 -138t-72.5 -114t-141.5 -81.5t-218.5 -29.5h-94zM797 1241h-422
v322h422v-322z" />
    <glyph glyph-name="uni0122" unicode="&#x122;" horiz-adv-x="1185" 
d="M457 -23q-97 0 -171 33t-118 91.5t-66 133t-22 162.5v709q0 440 479 440h64q129 0 223 -31t145.5 -86.5t75 -122.5t23.5 -149v-151h-398v98q0 55 -21.5 84t-72.5 29t-70.5 -27.5t-19.5 -85.5v-680q0 -127 104 -127q103 0 103 127v182h-123v293h516v-899h-283
q-12 67 -43 135q-109 -158 -311 -158h-14zM494 -545q41 84 67 174h-155v277h372v-205q0 -26 -4.5 -54t-9.5 -48t-15 -46t-15.5 -38.5t-16.5 -34.5t-12 -25h-211z" />
    <glyph glyph-name="uni0123" unicode="&#x123;" horiz-adv-x="1175" 
d="M588 266q86 0 86 111v379q0 114 -86 114q-47 0 -65.5 -28t-18.5 -86v-379q0 -57 18.5 -84t65.5 -27zM541 -406q-128 0 -216.5 24t-136.5 70.5t-68 103t-20 132.5v13h406q0 -68 82 -68h2q39 0 61.5 24t22.5 66v174q-1 -1 -13 -13.5t-20 -20t-25.5 -22.5t-32 -25t-37 -22.5
t-44.5 -19.5t-49.5 -12.5t-55.5 -5.5h-12q-152 0 -229.5 80.5t-77.5 234.5v539q0 137 73.5 225t217.5 88h12q37 0 71 -6t61.5 -18t49 -23.5t42 -28.5t31.5 -27t25.5 -26t16.5 -18v135h412v-1190q0 -76 -22.5 -138t-72.5 -114t-141.5 -81.5t-218.5 -29.5h-94zM688 1700
q-46 -94 -70 -174h154v-285h-381v209q0 115 72 250h225z" />
    <glyph glyph-name="Hcircumflex" unicode="&#x124;" horiz-adv-x="1228" 
d="M92 1524h434v-520h176v520h435v-1524h-435v584h-176v-584h-434v1524zM1012 1612h-322l-76 129l-75 -129h-318l185 291h421z" />
    <glyph glyph-name="hcircumflex" unicode="&#x125;" horiz-adv-x="1183" 
d="M86 1550h418v-549q118 162 297 162h18q139 0 210 -78t71 -215v-870h-422v750q0 48 -21.5 77t-66.5 29q-86 0 -86 -108v-748h-418v1550zM934 1655h-316l-73 162l-74 -162h-311l170 330h434z" />
    <glyph glyph-name="Hbar" unicode="&#x126;" horiz-adv-x="1249" 
d="M537 1143v-139h176v139h-176zM102 1143h-102v225h102v156h435v-156h176v156h434v-156h102v-225h-102v-1143h-434v584h-176v-584h-435v1143z" />
    <glyph glyph-name="hbar" unicode="&#x127;" horiz-adv-x="1183" 
d="M754 1434v-213h-791v213h791zM86 1550h418v-549q118 162 297 162h18q139 0 210 -78t71 -215v-870h-422v750q0 48 -21.5 77t-66.5 29q-86 0 -86 -108v-748h-418v1550z" />
    <glyph glyph-name="Itilde" unicode="&#x128;" horiz-adv-x="618" 
d="M526 0h-434v1524h434v-1524zM647 1796q0 -80 -39 -128t-110 -48h-6q-65 0 -179 49q-88 37 -98 37q-18 0 -18 -29v-61h-224v143q0 80 39.5 128t110.5 48h6q44 0 82.5 -12t95.5 -39q88 -37 99 -37q18 0 18 29v63h223v-143z" />
    <glyph glyph-name="itilde" unicode="&#x129;" horiz-adv-x="593" 
d="M612 1421q0 -80 -35 -128t-100 -48h-6q-74 0 -164 49q-80 39 -92 39q-18 0 -18 -30v-62h-213v164q0 80 35 128t100 48h6q74 0 164 -49q80 -39 92 -39q18 0 18 31v61h213v-164zM508 0h-422v1147h422v-1147z" />
    <glyph glyph-name="Imacron" unicode="&#x12a;" horiz-adv-x="618" 
d="M526 0h-434v1524h434v-1524zM16 1888h586v-256h-586v256z" />
    <glyph glyph-name="imacron" unicode="&#x12b;" horiz-adv-x="593" 
d="M20 1524h558v-256h-558v256zM508 0h-422v1147h422v-1147z" />
    <glyph glyph-name="Ibreve" unicode="&#x12c;" horiz-adv-x="618" 
d="M526 0h-434v1524h434v-1524zM305 1604q-161 0 -245.5 78.5t-84.5 207.5v13h267v-9q0 -73 67 -73q68 0 68 73v9h270v-13q0 -129 -84.5 -207.5t-245.5 -78.5h-12z" />
    <glyph glyph-name="ibreve" unicode="&#x12d;" horiz-adv-x="593" 
d="M293 1235q-156 0 -237 80t-81 219v25h265v-17q0 -86 59 -86t59 86v17h265v-25q0 -139 -81 -219t-237 -80h-12zM508 0h-422v1147h422v-1147z" />
    <glyph glyph-name="Iogonek" unicode="&#x12e;" horiz-adv-x="618" 
d="M526 0h-434v1524h434v-1524zM96 -225q0 132 260 225h170q-106 -87 -106 -135v-4q0 -43 69 -43h37v-199h-221q-100 0 -154.5 38.5t-54.5 111.5v6z" />
    <glyph glyph-name="iogonek" unicode="&#x12f;" horiz-adv-x="593" 
d="M508 1241h-422v322h422v-322zM508 0h-422v1147h422v-1147zM78 -225q0 132 260 225h170q-107 -88 -107 -135v-4q0 -43 70 -43h37v-199h-221q-100 0 -154.5 38.5t-54.5 111.5v6z" />
    <glyph glyph-name="Idotaccent" unicode="&#x130;" horiz-adv-x="618" 
d="M526 0h-434v1524h434v-1524zM522 1616h-422v321h422v-321z" />
    <glyph glyph-name="dotlessi" unicode="&#x131;" horiz-adv-x="593" 
d="M508 0h-422v1147h422v-1147z" />
    <glyph glyph-name="IJ" unicode="&#x132;" horiz-adv-x="1738" 
d="M526 0h-434v1524h434v-1524zM1063 692v-280q0 -95 76 -95h2q41 0 58.5 22.5t17.5 72.5v1112h434v-1145q0 -402 -449 -402h-115q-113 0 -194 28t-126 81t-65 119.5t-20 152.5v334h381z" />
    <glyph glyph-name="ij" unicode="&#x133;" horiz-adv-x="1189" 
d="M508 1241h-422v322h422v-322zM508 0h-422v1147h422v-1147zM1104 1241h-422v322h422v-322zM614 -55q37 0 52.5 14.5t15.5 52.5v1135h422v-1270q0 -117 -59 -185.5t-181 -68.5h-311v322h61z" />
    <glyph glyph-name="Jcircumflex" unicode="&#x134;" horiz-adv-x="1120" 
d="M444 692v-280q0 -95 76 -95h2q41 0 58.5 22.5t17.5 72.5v1112h434v-1145q0 -402 -448 -402h-115q-113 0 -194 28t-126.5 81t-65.5 119.5t-20 152.5v334h381zM1206 1612h-321l-76 129l-76 -129h-317l184 291h422z" />
    <glyph glyph-name="jcircumflex" unicode="&#x135;" horiz-adv-x="598" 
d="M676 1239h-305l-70 172l-70 -172h-301l150 330h446zM20 -55q37 0 52.5 14.5t15.5 52.5v1135h422v-1270q0 -117 -59 -185.5t-181 -68.5h-311v322h61z" />
    <glyph glyph-name="uni0136" unicode="&#x136;" horiz-adv-x="1181" 
d="M92 0v1524h420v-590l227 590h426l-272 -672l278 -852h-442l-217 668v-668h-420zM532 -545q44 89 68 174h-156v277h373v-205q0 -26 -4.5 -53.5t-10 -48.5t-15.5 -46.5t-16 -38.5t-16 -34t-12 -25h-211z" />
    <glyph glyph-name="uni0137" unicode="&#x137;" horiz-adv-x="1138" 
d="M86 0v1550h422v-823l180 420h418l-225 -494l254 -653h-439l-188 528v-528h-422zM506 -545q41 84 67 174h-155v277h373v-205q0 -26 -4.5 -53.5t-10 -48.5t-15.5 -46.5t-16 -38.5t-16 -34t-12 -25h-211z" />
    <glyph glyph-name="Lacute" unicode="&#x139;" horiz-adv-x="897" 
d="M524 1524v-1145h324v-379h-756v1524h432zM229 1903h385l-114 -287h-377z" />
    <glyph glyph-name="lacute" unicode="&#x13a;" horiz-adv-x="591" 
d="M508 0h-422v1550h422v-1550zM217 1929h385l-115 -287h-376z" />
    <glyph glyph-name="uni013B" unicode="&#x13b;" horiz-adv-x="897" 
d="M524 1524v-1145h324v-379h-756v1524h432zM371 -545q41 84 67 174h-155v277h372v-205q0 -26 -4.5 -54t-9.5 -48t-15 -46t-15.5 -38.5t-16.5 -34.5t-12 -25h-211z" />
    <glyph glyph-name="uni013C" unicode="&#x13c;" horiz-adv-x="591" 
d="M508 0h-422v1550h422v-1550zM199 -545q41 84 67 174h-155v277h372v-205q0 -26 -4.5 -54t-9.5 -48t-15 -46t-15.5 -38.5t-16.5 -34.5t-12 -25h-211z" />
    <glyph glyph-name="Lcaron" unicode="&#x13d;" horiz-adv-x="897" 
d="M524 1524v-1145h324v-379h-756v1524h432zM612 1536h279l-35 -322h-266z" />
    <glyph glyph-name="lcaron" unicode="&#x13e;" horiz-adv-x="591" 
d="M508 0h-422v1550h422v-1550zM596 1563h278l-34 -322h-267z" />
    <glyph glyph-name="Ldot" unicode="&#x13f;" horiz-adv-x="1079" 
d="M524 1524v-1145h324v-379h-756v1524h432zM1049 602h-402v397h402v-397z" />
    <glyph glyph-name="ldot" unicode="&#x140;" horiz-adv-x="1069" 
d="M508 0h-422v1550h422v-1550zM1032 545h-401v397h401v-397z" />
    <glyph glyph-name="Lslash" unicode="&#x141;" horiz-adv-x="933" 
d="M561 1524v-533l211 127v-284l-211 -125v-330h324v-379h-756v455l-127 -74v272l127 76v795h432z" />
    <glyph glyph-name="lslash" unicode="&#x142;" horiz-adv-x="688" 
d="M555 0h-422v643l-127 -59v252l127 59v655h422v-454l127 61v-256l-127 -59v-842z" />
    <glyph glyph-name="Nacute" unicode="&#x143;" horiz-adv-x="1193" 
d="M682 967q52 -155 78 -267q-6 113 -6 299v525h348v-1524h-369l-223 641q-46 133 -74 244q8 -96 8 -299v-586h-352v1524h410zM516 1903h385l-115 -287h-376z" />
    <glyph glyph-name="nacute" unicode="&#x144;" horiz-adv-x="1183" 
d="M86 1147h414v-150q115 166 301 166h18q139 0 210 -78t71 -215v-870h-422v750q0 48 -21.5 77t-66.5 29q-86 0 -86 -108v-748h-418v1147zM530 1569h367l-129 -328h-354z" />
    <glyph glyph-name="uni0145" unicode="&#x145;" horiz-adv-x="1193" 
d="M682 967q52 -155 78 -267q-6 113 -6 299v525h348v-1524h-369l-223 641q-46 133 -74 244q8 -96 8 -299v-586h-352v1524h410zM500 -545q41 84 67 174h-155v277h372v-205q0 -26 -4.5 -54t-9.5 -48t-15 -46t-15.5 -38.5t-16.5 -34.5t-12 -25h-211z" />
    <glyph glyph-name="uni0146" unicode="&#x146;" horiz-adv-x="1183" 
d="M86 1147h414v-150q115 166 301 166h18q139 0 210 -78t71 -215v-870h-422v750q0 48 -21.5 77t-66.5 29q-86 0 -86 -108v-748h-418v1147zM494 -545q41 84 67 174h-155v277h372v-205q0 -26 -4.5 -54t-9.5 -48t-15 -46t-15.5 -38.5t-16.5 -34.5t-12 -25h-211z" />
    <glyph glyph-name="Ncaron" unicode="&#x147;" horiz-adv-x="1193" 
d="M682 967q52 -155 78 -267q-6 113 -6 299v525h348v-1524h-369l-223 641q-46 133 -74 244q8 -96 8 -299v-586h-352v1524h410zM201 1907h321l76 -129l76 129h317l-184 -291h-422z" />
    <glyph glyph-name="ncaron" unicode="&#x148;" horiz-adv-x="1183" 
d="M86 1147h414v-150q115 166 301 166h18q139 0 210 -78t71 -215v-870h-422v750q0 48 -21.5 77t-66.5 29q-86 0 -86 -108v-748h-418v1147zM201 1569h315l74 -160l74 160h311l-172 -328h-430z" />
    <glyph glyph-name="napostrophe" unicode="&#x149;" horiz-adv-x="1574" 
d="M477 1147h414v-150q115 166 301 166h18q139 0 210 -78t71 -215v-870h-422v750q0 48 -21.5 77t-66.5 29q-86 0 -86 -108v-748h-418v1147zM80 903q56 144 70 279h-150v342h373v-262q0 -106 -26 -204.5t-52 -154.5h-215z" />
    <glyph glyph-name="Eng" unicode="&#x14a;" horiz-adv-x="1193" 
d="M578 -70h81q42 0 58 14.5t16 55.5l-289 827v-827h-352v1524h410l252 -781v781h348v-1557q0 -174 -78 -261t-248 -87h-198v311z" />
    <glyph glyph-name="eng" unicode="&#x14b;" horiz-adv-x="1183" 
d="M612 -55q37 0 52.5 14.5t15.5 52.5v738q0 47 -22.5 76.5t-67.5 29.5q-86 0 -86 -108v-748h-418v1147h414v-150q115 166 301 166h18q139 0 210 -78t71 -215v-993q0 -117 -59 -185.5t-181 -68.5h-311v322h63z" />
    <glyph glyph-name="Omacron" unicode="&#x14c;" horiz-adv-x="1220" 
d="M1141 438q0 -212 -125 -336.5t-369 -124.5h-74q-128 0 -224 33.5t-154 96t-86.5 145t-28.5 186.5v647q0 461 493 461h74q248 0 371 -119.5t123 -341.5v-647zM702 1077q0 115 -92 115q-49 0 -70.5 -28.5t-21.5 -86.5v-635q0 -55 21.5 -81.5t70.5 -26.5q92 0 92 108v635z
M317 1888h586v-256h-586v256z" />
    <glyph glyph-name="omacron" unicode="&#x14d;" horiz-adv-x="1163" 
d="M537 -27q-463 0 -463 420v367q0 194 112 305t351 111h90q463 0 463 -416v-365q0 -199 -115.5 -310.5t-347.5 -111.5h-90zM582 266q88 0 88 103v417q0 105 -88 105q-46 0 -66 -26t-20 -79v-417q0 -103 86 -103zM289 1524h585v-256h-585v256z" />
    <glyph glyph-name="Obreve" unicode="&#x14e;" horiz-adv-x="1220" 
d="M1141 438q0 -212 -125 -336.5t-369 -124.5h-74q-128 0 -224 33.5t-154 96t-86.5 145t-28.5 186.5v647q0 461 493 461h74q248 0 371 -119.5t123 -341.5v-647zM702 1077q0 115 -92 115q-49 0 -70.5 -28.5t-21.5 -86.5v-635q0 -55 21.5 -81.5t70.5 -26.5q92 0 92 108v635z
M606 1604q-161 0 -245.5 78.5t-84.5 207.5v13h267v-9q0 -73 67 -73q68 0 68 73v9h270v-13q0 -129 -84.5 -207.5t-245.5 -78.5h-12z" />
    <glyph glyph-name="obreve" unicode="&#x14f;" horiz-adv-x="1163" 
d="M537 -27q-463 0 -463 420v367q0 194 112 305t351 111h90q463 0 463 -416v-365q0 -199 -115.5 -310.5t-347.5 -111.5h-90zM582 266q88 0 88 103v417q0 105 -88 105q-46 0 -66 -26t-20 -79v-417q0 -103 86 -103zM575 1235q-161 0 -243 80t-82 219v25h268v-17q0 -86 64 -86
q63 0 63 86v17h268v-25q0 -139 -82 -219t-243 -80h-13z" />
    <glyph glyph-name="Ohungarumlaut" unicode="&#x150;" horiz-adv-x="1220" 
d="M1141 438q0 -212 -125 -336.5t-369 -124.5h-74q-128 0 -224 33.5t-154 96t-86.5 145t-28.5 186.5v647q0 461 493 461h74q248 0 371 -119.5t123 -341.5v-647zM702 1077q0 115 -92 115q-49 0 -70.5 -28.5t-21.5 -86.5v-635q0 -55 21.5 -81.5t70.5 -26.5q92 0 92 108v635z
M754 1903h307l-107 -287h-303zM362 1903h308l-103 -287h-301z" />
    <glyph glyph-name="ohungarumlaut" unicode="&#x151;" horiz-adv-x="1163" 
d="M537 -27q-463 0 -463 420v367q0 194 112 305t351 111h90q463 0 463 -416v-365q0 -199 -115.5 -310.5t-347.5 -111.5h-90zM582 266q88 0 88 103v417q0 105 -88 105q-46 0 -66 -26t-20 -79v-417q0 -103 86 -103zM727 1569h307l-114 -328h-306zM332 1569h309l-111 -328h-303
z" />
    <glyph glyph-name="OE" unicode="&#x152;" horiz-adv-x="1568" 
d="M498 0q-208 0 -311 99.5t-103 318.5v688q0 219 104 318.5t318 99.5h989v-355h-362v-202h307v-361h-307v-248h374v-358h-1009zM698 1169h-75q-55 0 -77 -28t-22 -92v-562q0 -69 22.5 -98t76.5 -29h75v809z" />
    <glyph glyph-name="oe" unicode="&#x153;" horiz-adv-x="1708" 
d="M1077 735h166v107q0 52 -20.5 74t-63.5 22q-82 0 -82 -96v-107zM582 266q88 0 88 103v417q0 105 -88 105q-46 0 -66 -26t-20 -79v-417q0 -103 86 -103zM512 -27q-225 0 -331.5 110.5t-106.5 309.5v367q0 193 108 304.5t332 111.5h82q179 0 278 -91q99 91 275 91h76
q409 0 409 -406v-238h-557v-198q0 -98 82 -98q84 0 84 98v102h391v-76q0 -182 -106.5 -284.5t-302.5 -102.5h-76q-177 0 -279 93q-93 -93 -276 -93h-82z" />
    <glyph glyph-name="Racute" unicode="&#x154;" horiz-adv-x="1173" 
d="M512 915h74q86 0 86 95v127q0 52 -18.5 74t-65.5 22h-76v-318zM512 0h-420v1524h672q157 0 241.5 -79.5t84.5 -236.5v-90q0 -219 -164 -293q168 -63 168 -262v-428q0 -79 24 -125v-10h-416q-30 30 -30 113v376q0 61 -18 86t-64 25h-78v-600zM483 1903h385l-114 -287h-377
z" />
    <glyph glyph-name="racute" unicode="&#x155;" horiz-adv-x="1087" 
d="M506 0h-420v1147h414v-148q97 164 270 164h10q131 0 190.5 -67t59.5 -195v-332h-375v185q0 53 -16.5 77.5t-56.5 24.5t-58 -25t-18 -77v-754zM506 1569h366l-129 -328h-354z" />
    <glyph glyph-name="uni0156" unicode="&#x156;" horiz-adv-x="1173" 
d="M512 915h74q86 0 86 95v127q0 52 -18.5 74t-65.5 22h-76v-318zM512 0h-420v1524h672q157 0 241.5 -79.5t84.5 -236.5v-90q0 -219 -164 -293q168 -63 168 -262v-428q0 -79 24 -125v-10h-416q-30 30 -30 113v376q0 61 -18 86t-64 25h-78v-600zM510 -545q44 89 68 174h-156
v277h373v-205q0 -26 -4.5 -53.5t-10 -48.5t-15.5 -46.5t-16 -38.5t-16 -34t-12 -25h-211z" />
    <glyph glyph-name="uni0157" unicode="&#x157;" horiz-adv-x="1087" 
d="M506 0h-420v1147h414v-148q97 164 270 164h10q131 0 190.5 -67t59.5 -195v-332h-375v185q0 53 -16.5 77.5t-56.5 24.5t-58 -25t-18 -77v-754zM199 -545q41 84 67 174h-155v277h372v-205q0 -26 -4.5 -54t-9.5 -48t-15 -46t-15.5 -38.5t-16.5 -34.5t-12 -25h-211z" />
    <glyph glyph-name="Rcaron" unicode="&#x158;" horiz-adv-x="1173" 
d="M512 915h74q86 0 86 95v127q0 52 -18.5 74t-65.5 22h-76v-318zM512 0h-420v1524h672q157 0 241.5 -79.5t84.5 -236.5v-90q0 -219 -164 -293q168 -63 168 -262v-428q0 -79 24 -125v-10h-416q-30 30 -30 113v376q0 61 -18 86t-64 25h-78v-600zM168 1907h321l76 -129l76 129
h317l-184 -291h-422z" />
    <glyph glyph-name="rcaron" unicode="&#x159;" horiz-adv-x="1087" 
d="M506 0h-420v1147h414v-148q97 164 270 164h10q131 0 190.5 -67t59.5 -195v-332h-375v185q0 53 -16.5 77.5t-56.5 24.5t-58 -25t-18 -77v-754zM176 1569h316l73 -160l74 160h311l-172 -328h-430z" />
    <glyph glyph-name="Sacute" unicode="&#x15a;" horiz-adv-x="1118" 
d="M512 -23q-461 0 -461 375v178h402v-139q0 -92 88 -92t88 100v15q0 62 -26 95.5t-93 76.5l-205 131q-123 77 -182.5 171.5t-59.5 235.5v43q0 379 476 379h57q129 0 220 -24.5t142 -72t73 -108t22 -141.5v-129h-400v92q0 90 -84 90q-90 0 -90 -86v-4q0 -47 24 -75t85 -68
l205 -133q145 -93 210.5 -189.5t65.5 -251.5v-45q0 -90 -28 -164.5t-86 -133.5t-156.5 -92.5t-229.5 -33.5h-57zM477 1903h385l-114 -287h-377z" />
    <glyph glyph-name="sacute" unicode="&#x15b;" horiz-adv-x="1040" 
d="M457 -27q-404 0 -404 328v96h373v-55q0 -51 19 -75.5t65 -24.5h2q86 0 86 77q0 38 -21 62t-77 47l-187 74q-134 51 -194 131t-60 209v18q0 157 105.5 236.5t327.5 79.5h73q218 0 315 -76.5t97 -233.5v-71h-363v39q0 54 -20.5 75t-69.5 21t-70.5 -16t-21.5 -52
q0 -37 22.5 -56t86.5 -44l184 -74q144 -59 204 -139.5t60 -206.5v-20q0 -164 -108.5 -256.5t-317.5 -92.5h-106zM467 1569h367l-129 -328h-355z" />
    <glyph glyph-name="Scircumflex" unicode="&#x15c;" horiz-adv-x="1118" 
d="M512 -23q-461 0 -461 375v178h402v-139q0 -92 88 -92t88 100v15q0 62 -26 95.5t-93 76.5l-205 131q-123 77 -182.5 171.5t-59.5 235.5v43q0 379 476 379h57q129 0 220 -24.5t142 -72t73 -108t22 -141.5v-129h-400v92q0 90 -84 90q-90 0 -90 -86v-4q0 -47 24 -75t85 -68
l205 -133q145 -93 210.5 -189.5t65.5 -251.5v-45q0 -90 -28 -164.5t-86 -133.5t-156.5 -92.5t-229.5 -33.5h-57zM956 1612h-321l-76 129l-76 -129h-317l184 291h422z" />
    <glyph glyph-name="scircumflex" unicode="&#x15d;" horiz-adv-x="1040" 
d="M457 -27q-404 0 -404 328v96h373v-55q0 -51 19 -75.5t65 -24.5h2q86 0 86 77q0 38 -21 62t-77 47l-187 74q-134 51 -194 131t-60 209v18q0 157 105.5 236.5t327.5 79.5h73q218 0 315 -76.5t97 -233.5v-71h-363v39q0 54 -20.5 75t-69.5 21t-70.5 -16t-21.5 -52
q0 -37 22.5 -56t86.5 -44l184 -74q144 -59 204 -139.5t60 -206.5v-20q0 -164 -108.5 -256.5t-317.5 -92.5h-106zM915 1239h-315l-74 162l-73 -162h-312l170 330h434z" />
    <glyph glyph-name="uni015E" unicode="&#x15e;" horiz-adv-x="1118" 
d="M332 -297h139q51 0 51 41v2q0 39 -51 39h-98v203q-322 53 -322 364v178h402v-139q0 -92 88 -92t88 100v15q0 62 -26 95.5t-93 76.5l-205 131q-123 77 -182.5 171.5t-59.5 235.5v43q0 379 476 379h57q129 0 220 -24.5t142 -72t73 -108t22 -141.5v-129h-400v92q0 90 -84 90
q-90 0 -90 -86v-4q0 -47 24 -75t85 -68l205 -133q145 -93 210.5 -189.5t65.5 -251.5v-45q0 -90 -28 -164.5t-86 -133.5t-156.5 -92.5t-229.5 -33.5h-2v-63q132 0 192 -47.5t60 -142.5v-7q0 -192 -287 -192h-200v178z" />
    <glyph glyph-name="uni015F" unicode="&#x15f;" horiz-adv-x="1040" 
d="M301 -297h139q52 0 52 41v2q0 39 -52 39h-98v197q-289 43 -289 319v96h373v-55q0 -51 19 -75.5t65 -24.5h2q86 0 86 77q0 38 -21 62t-77 47l-187 74q-134 51 -194 131t-60 209v18q0 157 105.5 236.5t327.5 79.5h73q218 0 315 -76.5t97 -233.5v-71h-363v39q0 54 -20.5 75
t-69.5 21t-70.5 -16t-21.5 -52q0 -37 22.5 -56t86.5 -44l184 -74q144 -59 204 -139.5t60 -206.5v-20q0 -164 -108.5 -256.5t-317.5 -92.5h-26v-59q132 0 191.5 -47.5t59.5 -142.5v-7q0 -95 -68.5 -143.5t-217.5 -48.5h-201v178z" />
    <glyph glyph-name="Scaron" unicode="&#x160;" horiz-adv-x="1118" 
d="M512 -23q-461 0 -461 375v178h402v-139q0 -92 88 -92t88 100v15q0 62 -26 95.5t-93 76.5l-205 131q-123 77 -182.5 171.5t-59.5 235.5v43q0 379 476 379h57q129 0 220 -24.5t142 -72t73 -108t22 -141.5v-129h-400v92q0 90 -84 90q-90 0 -90 -86v-4q0 -47 24 -75t85 -68
l205 -133q145 -93 210.5 -189.5t65.5 -251.5v-45q0 -90 -28 -164.5t-86 -133.5t-156.5 -92.5t-229.5 -33.5h-57zM162 1907h321l76 -129l76 129h317l-184 -291h-422z" />
    <glyph glyph-name="scaron" unicode="&#x161;" horiz-adv-x="1040" 
d="M457 -27q-404 0 -404 328v96h373v-55q0 -51 19 -75.5t65 -24.5h2q86 0 86 77q0 38 -21 62t-77 47l-187 74q-134 51 -194 131t-60 209v18q0 157 105.5 236.5t327.5 79.5h73q218 0 315 -76.5t97 -233.5v-71h-363v39q0 54 -20.5 75t-69.5 21t-70.5 -16t-21.5 -52
q0 -37 22.5 -56t86.5 -44l184 -74q144 -59 204 -139.5t60 -206.5v-20q0 -164 -108.5 -256.5t-317.5 -92.5h-106zM137 1569h316l73 -160l74 160h311l-172 -328h-430z" />
    <glyph glyph-name="Tcommaaccent" unicode="&#x162;" horiz-adv-x="983" 
d="M287 1178h-240v346h889v-346h-240v-1178h-409v1178zM393 -545q44 89 68 174h-156v277h373v-205q0 -26 -4.5 -53.5t-10 -48.5t-15.5 -46.5t-16 -38.5t-16 -34t-12 -25h-211z" />
    <glyph glyph-name="tcommaaccent" unicode="&#x163;" horiz-adv-x="878" 
d="M461 0q-125 0 -183.5 57.5t-58.5 180.5v606h-176v303h176v360h420v-360h178v-303h-178v-465q0 -39 15 -54.5t57 -15.5h106v-309h-356zM446 -545q44 89 68 174h-156v277h373v-205q0 -26 -4.5 -53.5t-10 -48.5t-15.5 -46.5t-16 -38.5t-16 -34t-12 -25h-211z" />
    <glyph glyph-name="Tcaron" unicode="&#x164;" horiz-adv-x="983" 
d="M287 1178h-240v346h889v-346h-240v-1178h-409v1178zM94 1907h322l76 -129l75 129h318l-185 -291h-421z" />
    <glyph glyph-name="tcaron" unicode="&#x165;" horiz-adv-x="878" 
d="M461 0q-125 0 -183.5 57.5t-58.5 180.5v606h-176v303h176v360h420v-360h178v-303h-178v-465q0 -39 15 -54.5t57 -15.5h106v-309h-356zM727 1563h279l-35 -322h-266z" />
    <glyph glyph-name="Tbar" unicode="&#x166;" horiz-adv-x="983" 
d="M102 918h779v-254h-779v254zM287 1178h-240v346h889v-346h-240v-1178h-409v1178z" />
    <glyph glyph-name="tbar" unicode="&#x167;" horiz-adv-x="899" 
d="M827 0h-354q-127 0 -185.5 57.5t-58.5 180.5v260h-176v219h176v127h-176v303h176v360h420v-360h178v-303h-178v-127h178v-219h-178v-119q0 -39 15.5 -54.5t56.5 -15.5h106v-309z" />
    <glyph glyph-name="Utilde" unicode="&#x168;" horiz-adv-x="1196" 
d="M561 -27q-127 0 -220.5 32.5t-148 91.5t-80.5 134.5t-26 169.5v1123h424v-1055q0 -113 88 -113q49 0 69.5 28t20.5 85v1055h422v-1123q0 -90 -30 -166.5t-88 -135.5t-151 -92.5t-210 -33.5h-70zM936 1796q0 -80 -39.5 -128t-110.5 -48h-6q-30 0 -62 7.5t-54 16t-62 25.5
q-88 37 -98 37q-19 0 -19 -29v-61h-223v143q0 80 39.5 128t110.5 48h6q44 0 82.5 -12t95.5 -39q88 -37 98 -37q19 0 19 29v63h223v-143z" />
    <glyph glyph-name="utilde" unicode="&#x169;" horiz-adv-x="1175" 
d="M1090 0h-414v150q-18 -24 -39 -46t-59.5 -52.5t-92 -49t-112.5 -18.5h-13q-132 0 -204 77.5t-72 214.5v871h422v-754q0 -100 82 -100q42 0 63 28t21 74v752h418v-1147zM924 1421q0 -80 -39 -128t-109 -48h-6q-74 0 -178 49q-82 37 -96 37q-19 0 -19 -28v-62h-227v164
q0 80 38.5 128t108.5 48h6q74 0 177 -49q86 -39 98 -39q18 0 18 31v61h228v-164z" />
    <glyph glyph-name="Umacron" unicode="&#x16a;" horiz-adv-x="1196" 
d="M561 -27q-127 0 -220.5 32.5t-148 91.5t-80.5 134.5t-26 169.5v1123h424v-1055q0 -113 88 -113q49 0 69.5 28t20.5 85v1055h422v-1123q0 -90 -30 -166.5t-88 -135.5t-151 -92.5t-210 -33.5h-70zM305 1888h586v-256h-586v256z" />
    <glyph glyph-name="umacron" unicode="&#x16b;" horiz-adv-x="1175" 
d="M1090 0h-414v150q-18 -24 -39 -46t-59.5 -52.5t-92 -49t-112.5 -18.5h-13q-132 0 -204 77.5t-72 214.5v871h422v-754q0 -100 82 -100q42 0 63 28t21 74v752h418v-1147zM293 1524h586v-256h-586v256z" />
    <glyph glyph-name="Ubreve" unicode="&#x16c;" horiz-adv-x="1196" 
d="M561 -27q-127 0 -220.5 32.5t-148 91.5t-80.5 134.5t-26 169.5v1123h424v-1055q0 -113 88 -113q49 0 69.5 28t20.5 85v1055h422v-1123q0 -90 -30 -166.5t-88 -135.5t-151 -92.5t-210 -33.5h-70zM594 1604q-161 0 -245.5 78.5t-84.5 207.5v13h266v-9q0 -73 68 -73t68 73v9
h270v-13q0 -129 -84.5 -207.5t-245.5 -78.5h-12z" />
    <glyph glyph-name="ubreve" unicode="&#x16d;" horiz-adv-x="1175" 
d="M1090 0h-414v150q-18 -24 -39 -46t-59.5 -52.5t-92 -49t-112.5 -18.5h-13q-132 0 -204 77.5t-72 214.5v871h422v-754q0 -100 82 -100q42 0 63 28t21 74v752h418v-1147zM580 1235q-161 0 -243.5 80t-82.5 219v25h268v-17q0 -86 64 -86q63 0 63 86v17h269v-25
q0 -139 -82.5 -219t-243.5 -80h-12z" />
    <glyph glyph-name="Uring" unicode="&#x16e;" horiz-adv-x="1196" 
d="M561 -27q-127 0 -220.5 32.5t-148 91.5t-80.5 134.5t-26 169.5v1123h424v-1055q0 -113 88 -113q49 0 69.5 28t20.5 85v1055h422v-1123q0 -90 -30 -166.5t-88 -135.5t-151 -92.5t-210 -33.5h-70zM598 1577q-105 0 -168 60t-63 159q0 100 62.5 158.5t168.5 58.5
q105 0 168 -59t63 -158q0 -98 -63.5 -158.5t-167.5 -60.5zM598 1704q39 0 63.5 25t24.5 67t-24.5 67t-63.5 25t-63.5 -25t-24.5 -67t24.5 -67t63.5 -25z" />
    <glyph glyph-name="uring" unicode="&#x16f;" horiz-adv-x="1175" 
d="M1090 0h-414v150q-18 -24 -39 -46t-59.5 -52.5t-92 -49t-112.5 -18.5h-13q-132 0 -204 77.5t-72 214.5v871h422v-754q0 -100 82 -100q42 0 63 28t21 74v752h418v-1147zM586 1229q-105 0 -168.5 60t-63.5 159q0 100 63 158.5t169 58.5q105 0 168 -59t63 -158
q0 -98 -63.5 -158.5t-167.5 -60.5zM586 1356q39 0 63.5 25t24.5 67t-24.5 67t-63.5 25t-63.5 -25t-24.5 -67t24.5 -67t63.5 -25z" />
    <glyph glyph-name="Uhungarumlaut" unicode="&#x170;" horiz-adv-x="1196" 
d="M561 -27q-127 0 -220.5 32.5t-148 91.5t-80.5 134.5t-26 169.5v1123h424v-1055q0 -113 88 -113q49 0 69.5 28t20.5 85v1055h422v-1123q0 -90 -30 -166.5t-88 -135.5t-151 -92.5t-210 -33.5h-70zM741 1903h308l-107 -287h-303zM350 1903h307l-102 -287h-301z" />
    <glyph glyph-name="uhungarumlaut" unicode="&#x171;" horiz-adv-x="1175" 
d="M1090 0h-414v150q-18 -24 -39 -46t-59.5 -52.5t-92 -49t-112.5 -18.5h-13q-132 0 -204 77.5t-72 214.5v871h422v-754q0 -100 82 -100q42 0 63 28t21 74v752h418v-1147zM743 1569h308l-115 -328h-305zM348 1569h309l-110 -328h-303z" />
    <glyph glyph-name="Uogonek" unicode="&#x172;" horiz-adv-x="1196" 
d="M686 -381q-100 0 -154.5 39t-54.5 111v6q0 114 215 200q-23 -2 -61 -2h-70q-127 0 -220.5 32.5t-148 91.5t-80.5 134.5t-26 169.5v1123h424v-1055q0 -113 88 -113q49 0 69.5 28t20.5 85v1055h422v-1123q0 -82 -25 -151t-61.5 -115.5t-97.5 -105.5q-75 -70 -100 -102
t-25 -60v-4q0 -45 69 -45h37v-199h-221z" />
    <glyph glyph-name="uogonek" unicode="&#x173;" horiz-adv-x="1175" 
d="M1090 0h-414v150q-18 -24 -39 -46t-59.5 -52.5t-92 -49t-112.5 -18.5h-13q-132 0 -204 77.5t-72 214.5v871h422v-754q0 -100 82 -100q42 0 63 28t21 74v752h418v-1147zM659 -225q0 132 261 225h170q-107 -88 -107 -135v-4q0 -43 70 -43h37v-199h-222q-100 0 -154.5 38.5
t-54.5 111.5v6z" />
    <glyph glyph-name="Wcircumflex" unicode="&#x174;" horiz-adv-x="1667" 
d="M870 543q-23 178 -36 356q-3 -36 -8 -83.5t-13.5 -126t-15.5 -144.5l-62 -545h-448l-262 1524h428l73 -662q10 -93 20.5 -215t10.5 -125q29 309 33 340l80 662h352l80 -656q3 -27 35 -342q2 15 11.5 130.5t18.5 205.5l74 662h401l-262 -1524h-448zM1235 1612h-322
l-75 129l-76 -129h-318l185 291h422z" />
    <glyph glyph-name="wcircumflex" unicode="&#x175;" horiz-adv-x="1581" 
d="M836 301q-27 172 -41 317q-10 -102 -41 -317l-45 -301h-455l-238 1147h424l52 -408q32 -275 36 -336q3 39 37 336l51 408h363l51 -408q34 -265 39 -329q4 53 37 329l49 408h410l-234 -1147h-448zM1182 1239h-316l-73 162l-74 -162h-311l170 330h434z" />
    <glyph glyph-name="Ycircumflex" unicode="&#x176;" horiz-adv-x="1097" 
d="M326 559l-320 965h436l123 -508l123 508h404l-299 -973v-551h-467v559zM961 1612h-322l-76 129l-76 -129h-317l184 291h422z" />
    <glyph glyph-name="ycircumflex" unicode="&#x177;" horiz-adv-x="1083" 
d="M139 -55h129q45 0 45 35v2q0 32 -26 122l-271 1043h424l111 -737l104 737h412l-317 -1317q-29 -113 -85 -160t-161 -47h-365v322zM938 1239h-315l-74 162l-74 -162h-311l170 330h434z" />
    <glyph glyph-name="Ydieresis" unicode="&#x178;" horiz-adv-x="1097" 
d="M326 559l-320 965h436l123 -508l123 508h404l-299 -973v-551h-467v559zM934 1616h-330v301h330v-301zM522 1616h-329v301h329v-301z" />
    <glyph glyph-name="Zacute" unicode="&#x179;" horiz-adv-x="1042" 
d="M70 0v334l407 831h-395v359h881v-334l-416 -828h432v-362h-909zM440 1903h385l-114 -287h-377z" />
    <glyph glyph-name="zacute" unicode="&#x17a;" horiz-adv-x="925" 
d="M61 0v279l330 559h-317v309h780v-285l-317 -538h327v-324h-803zM406 1569h366l-129 -328h-354z" />
    <glyph glyph-name="Zdotaccent" unicode="&#x17b;" horiz-adv-x="1042" 
d="M70 0v334l407 831h-395v359h881v-334l-416 -828h432v-362h-909zM735 1616h-422v321h422v-321z" />
    <glyph glyph-name="zdotaccent" unicode="&#x17c;" horiz-adv-x="925" 
d="M61 0v279l330 559h-317v309h780v-285l-317 -538h327v-324h-803zM676 1241h-422v322h422v-322z" />
    <glyph glyph-name="Zcaron" unicode="&#x17d;" horiz-adv-x="1042" 
d="M70 0v334l407 831h-395v359h881v-334l-416 -828h432v-362h-909zM125 1907h321l76 -129l76 129h317l-184 -291h-422z" />
    <glyph glyph-name="zcaron" unicode="&#x17e;" horiz-adv-x="925" 
d="M61 0v279l330 559h-317v309h780v-285l-317 -538h327v-324h-803zM78 1569h315l74 -160l74 160h311l-172 -328h-430z" />
    <glyph glyph-name="uni0192" unicode="&#x192;" horiz-adv-x="860" 
d="M610 688l-86 -1065h-395l80 1065h-168v299h190l23 291q22 246 264 246h287v-299h-88q-37 0 -50 -13t-18 -47l-14 -178h168v-299h-193z" />
    <glyph glyph-name="Aringacute" unicode="&#x1fa;" horiz-adv-x="1105" 
d="M459 514h145l-29 205q-16 107 -43 377q-23 -229 -45 -377zM647 199h-231l-27 -199h-366l235 1524h563l262 -1524h-409zM539 1595q-105 0 -168.5 60.5t-63.5 159.5q0 100 63 158.5t169 58.5q105 0 168 -59t63 -158q0 -98 -63.5 -159t-167.5 -61zM539 1722q39 0 63.5 25.5
t24.5 67.5t-24.5 67t-63.5 25t-63.5 -25t-24.5 -67t24.5 -67.5t63.5 -25.5zM457 2374h385l-115 -287h-377z" />
    <glyph glyph-name="aringacute" unicode="&#x1fb;" horiz-adv-x="1105" 
d="M610 559q-88 -40 -112 -55q-30 -20 -42 -43t-12 -60v-73q0 -88 82 -88q40 0 62 25.5t22 62.5v231zM55 403q0 120 55.5 186.5t176.5 102.5q52 18 158.5 44t136.5 36q19 6 23.5 14t4.5 33v17q0 47 -18.5 68.5t-67.5 21.5h-2q-48 0 -67 -21.5t-19 -70.5v-52h-366v72
q0 160 105 240t343 80h47q239 0 343 -79t104 -241v-500q0 -25 10 -35t39 -10h10v-309h-334q-50 0 -83.5 33t-39.5 98q-34 -48 -112 -97.5t-166 -49.5h-2q-131 0 -205 75.5t-74 196.5v147zM524 1229q-105 0 -168 60t-63 159q0 100 62.5 158.5t168.5 58.5q105 0 168.5 -59
t63.5 -158q0 -98 -64 -158.5t-168 -60.5zM524 1356q39 0 63.5 25t24.5 67t-24.5 67t-63.5 25t-63.5 -25t-24.5 -67t24.5 -67t63.5 -25zM465 2048h366l-129 -328h-354z" />
    <glyph glyph-name="AEacute" unicode="&#x1fc;" horiz-adv-x="1505" 
d="M659 1210l-137 -659h137v659zM659 209h-208l-43 -209h-410l375 1524h1059v-355h-363v-202h307v-361h-307v-248h375v-358h-785v209zM819 1903h385l-114 -287h-377z" />
    <glyph glyph-name="aeacute" unicode="&#x1fd;" horiz-adv-x="1652" 
d="M1020 739h166v99q0 53 -19.5 74.5t-62.5 21.5q-84 0 -84 -96v-99zM612 543q-83 -37 -112 -56q-31 -20 -42.5 -42.5t-11.5 -59.5v-57q0 -88 82 -88q40 0 62 25.5t22 62.5v215zM1577 356q0 -183 -110.5 -285t-321.5 -102h-72q-291 0 -393 170q-120 -155 -328 -155h-2
q-142 0 -217.5 76t-75.5 198v129q0 120 55 185.5t177 103.5q52 18 158.5 44t136.5 36q19 6 23.5 14t4.5 33v33q0 47 -18.5 68.5t-67.5 21.5h-2q-48 0 -67 -21.5t-19 -70.5v-64h-366v84q0 159 101.5 239.5t322.5 80.5h49q202 0 284 -82q30 33 93.5 56t154.5 23h74
q206 0 316 -96t110 -309v-229h-557v-207q0 -99 84 -99q82 0 82 99v112h391v-86zM766 1569h367l-129 -328h-355z" />
    <glyph glyph-name="Oslashacute" unicode="&#x1fe;" horiz-adv-x="1220" 
d="M580 -23q-180 0 -283 82l-37 -59h-211l107 180q-76 110 -76 258v647q0 222 119 341.5t368 119.5h74q183 0 281 -78l34 56h215l-106 -172q76 -110 76 -267v-647q0 -211 -125 -336t-363 -125h-73zM496 997q0 -184 -9 -307l228 438q-21 70 -105 70q-114 0 -114 -139v-62z
M608 328q115 0 115 135v61q0 210 8 330l-231 -442q18 -84 108 -84zM528 1903h385l-114 -287h-377z" />
    <glyph glyph-name="oslashacute" unicode="&#x1ff;" horiz-adv-x="1163" 
d="M535 -27q-143 0 -254 68l-33 -41h-195l105 133q-84 105 -84 260v367q0 194 112 305t351 111h90q143 0 250 -68l32 39h201l-106 -129q86 -111 86 -258v-365q0 -199 -115.5 -310.5t-349.5 -111.5h-90zM471 737q0 -180 -4 -217l215 322q-27 49 -100 49q-111 0 -111 -125v-29
zM582 266q112 0 112 125v27q0 179 4 221l-217 -322q26 -51 101 -51zM522 1569h367l-129 -328h-354z" />
    <glyph glyph-name="uni0218" unicode="&#x218;" horiz-adv-x="1118" 
d="M512 -23q-461 0 -461 375v178h402v-139q0 -92 88 -92t88 100v15q0 62 -26 95.5t-93 76.5l-205 131q-123 77 -182.5 171.5t-59.5 235.5v43q0 379 476 379h57q129 0 220 -24.5t142 -72t73 -108t22 -141.5v-129h-400v92q0 90 -84 90q-90 0 -90 -86v-4q0 -47 24 -75t85 -68
l205 -133q145 -93 210.5 -189.5t65.5 -251.5v-45q0 -90 -28 -164.5t-86 -133.5t-156.5 -92.5t-229.5 -33.5h-57zM461 -545q41 84 67 174h-155v277h372v-205q0 -26 -4.5 -54t-9.5 -48t-15 -46t-15.5 -38.5t-16.5 -34.5t-12 -25h-211z" />
    <glyph glyph-name="uni0219" unicode="&#x219;" horiz-adv-x="1040" 
d="M457 -27q-404 0 -404 328v96h373v-55q0 -51 19 -75.5t65 -24.5h2q86 0 86 77q0 38 -21 62t-77 47l-187 74q-134 51 -194 131t-60 209v18q0 157 105.5 236.5t327.5 79.5h73q218 0 315 -76.5t97 -233.5v-71h-363v39q0 54 -20.5 75t-69.5 21t-70.5 -16t-21.5 -52
q0 -37 22.5 -56t86.5 -44l184 -74q144 -59 204 -139.5t60 -206.5v-20q0 -164 -108.5 -256.5t-317.5 -92.5h-106zM428 -545q44 89 68 174h-156v277h373v-205q0 -26 -4.5 -53.5t-10 -48.5t-15.5 -46.5t-16 -38.5t-16 -34t-12 -25h-211z" />
    <glyph glyph-name="uni021A" unicode="&#x21a;" horiz-adv-x="983" 
d="M287 1178h-240v346h889v-346h-240v-1178h-409v1178zM393 -545q44 89 68 174h-156v277h373v-205q0 -26 -4.5 -53.5t-10 -48.5t-15.5 -46.5t-16 -38.5t-16 -34t-12 -25h-211z" />
    <glyph glyph-name="uni021B" unicode="&#x21b;" horiz-adv-x="878" 
d="M461 0q-125 0 -183.5 57.5t-58.5 180.5v606h-176v303h176v360h420v-360h178v-303h-178v-465q0 -39 15 -54.5t57 -15.5h106v-309h-356zM446 -545q44 89 68 174h-156v277h373v-205q0 -26 -4.5 -53.5t-10 -48.5t-15.5 -46.5t-16 -38.5t-16 -34t-12 -25h-211z" />
    <glyph glyph-name="uni0237" unicode="&#x237;" horiz-adv-x="598" 
d="M20 -55q37 0 52.5 14.5t15.5 52.5v1135h422v-1270q0 -117 -59 -185.5t-181 -68.5h-311v322h61z" />
    <glyph glyph-name="circumflex" unicode="&#x2c6;" horiz-adv-x="819" 
d="M797 1239h-316l-73 162l-74 -162h-311l170 330h434z" />
    <glyph glyph-name="caron" unicode="&#x2c7;" horiz-adv-x="819" 
d="M23 1569h315l74 -160l73 160h312l-172 -328h-430z" />
    <glyph glyph-name="breve" unicode="&#x2d8;" horiz-adv-x="819" 
d="M406 1235q-161 0 -243.5 80t-82.5 219v25h268v-17q0 -86 64 -86q63 0 63 86v17h268v-25q0 -139 -82 -219t-243 -80h-12z" />
    <glyph glyph-name="dotaccent" unicode="&#x2d9;" horiz-adv-x="819" 
d="M621 1241h-422v322h422v-322z" />
    <glyph glyph-name="ring" unicode="&#x2da;" horiz-adv-x="819" 
d="M410 1229q-105 0 -168.5 60t-63.5 159q0 100 63 158.5t169 58.5q105 0 168 -59t63 -158q0 -98 -63.5 -158.5t-167.5 -60.5zM410 1356q39 0 63.5 25t24.5 67t-24.5 67t-63.5 25t-63.5 -25t-24.5 -67t24.5 -67t63.5 -25z" />
    <glyph glyph-name="ogonek" unicode="&#x2db;" horiz-adv-x="819" 
d="M156 -225q0 132 260 225h170q-107 -88 -107 -135v-4q0 -43 70 -43h37v-199h-221q-100 0 -154.5 38.5t-54.5 111.5v6z" />
    <glyph glyph-name="tilde" unicode="&#x2dc;" horiz-adv-x="819" 
d="M745 1421q0 -80 -38.5 -128t-108.5 -48h-6q-74 0 -178 49q-82 37 -97 37q-18 0 -18 -28v-62h-227v164q0 80 38.5 128t108.5 48h6q73 0 176 -49q86 -39 99 -39q18 0 18 31v61h227v-164z" />
    <glyph glyph-name="hungarumlaut" unicode="&#x2dd;" horiz-adv-x="819" 
d="M506 1569h307l-115 -328h-305zM111 1569h309l-111 -328h-303z" />
    <glyph glyph-name="Wgrave" unicode="&#x1e80;" horiz-adv-x="1667" 
d="M870 543q-23 178 -36 356q-3 -36 -8 -83.5t-13.5 -126t-15.5 -144.5l-62 -545h-448l-262 1524h428l73 -662q10 -93 20.5 -215t10.5 -125q29 309 33 340l80 662h352l80 -656q3 -27 35 -342q2 15 11.5 130.5t18.5 205.5l74 662h401l-262 -1524h-448zM657 1616l-114 287h385
l106 -287h-377z" />
    <glyph glyph-name="wgrave" unicode="&#x1e81;" horiz-adv-x="1581" 
d="M836 301q-27 172 -41 317q-10 -102 -41 -317l-45 -301h-455l-238 1147h424l52 -408q32 -275 36 -336q3 39 37 336l51 408h363l51 -408q34 -265 39 -329q4 53 37 329l49 408h410l-234 -1147h-448zM614 1241l-129 328h367l117 -328h-355z" />
    <glyph glyph-name="Wacute" unicode="&#x1e82;" horiz-adv-x="1667" 
d="M870 543q-23 178 -36 356q-3 -36 -8 -83.5t-13.5 -126t-15.5 -144.5l-62 -545h-448l-262 1524h428l73 -662q10 -93 20.5 -215t10.5 -125q29 309 33 340l80 662h352l80 -656q3 -27 35 -342q2 15 11.5 130.5t18.5 205.5l74 662h401l-262 -1524h-448zM764 1903h385
l-115 -287h-377z" />
    <glyph glyph-name="wacute" unicode="&#x1e83;" horiz-adv-x="1581" 
d="M836 301q-27 172 -41 317q-10 -102 -41 -317l-45 -301h-455l-238 1147h424l52 -408q32 -275 36 -336q3 39 37 336l51 408h363l51 -408q34 -265 39 -329q4 53 37 329l49 408h410l-234 -1147h-448zM735 1569h367l-129 -328h-355z" />
    <glyph glyph-name="Wdieresis" unicode="&#x1e84;" horiz-adv-x="1667" 
d="M870 543q-23 178 -36 356q-3 -36 -8 -83.5t-13.5 -126t-15.5 -144.5l-62 -545h-448l-262 1524h428l73 -662q10 -93 20.5 -215t10.5 -125q29 309 33 340l80 662h352l80 -656q3 -27 35 -342q2 15 11.5 130.5t18.5 205.5l74 662h401l-262 -1524h-448zM1208 1616h-329v301
h329v-301zM797 1616h-330v301h330v-301z" />
    <glyph glyph-name="wdieresis" unicode="&#x1e85;" horiz-adv-x="1581" 
d="M836 301q-27 172 -41 317q-10 -102 -41 -317l-45 -301h-455l-238 1147h424l52 -408q32 -275 36 -336q3 39 37 336l51 408h363l51 -408q34 -265 39 -329q4 53 37 329l49 408h410l-234 -1147h-448zM1161 1241h-330v301h330v-301zM754 1241h-330v301h330v-301z" />
    <glyph glyph-name="Ygrave" unicode="&#x1ef2;" horiz-adv-x="1097" 
d="M326 559l-320 965h436l123 -508l123 508h404l-299 -973v-551h-467v559zM375 1616l-115 287h385l107 -287h-377z" />
    <glyph glyph-name="ygrave" unicode="&#x1ef3;" horiz-adv-x="1083" 
d="M139 -55h129q45 0 45 35v2q0 32 -26 122l-271 1043h424l111 -737l104 737h412l-317 -1317q-29 -113 -85 -160t-161 -47h-365v322zM371 1241l-129 328h366l117 -328h-354z" />
    <glyph glyph-name="uni2009" unicode="&#x2009;" horiz-adv-x="94" 
 />
    <glyph glyph-name="endash" unicode="&#x2013;" horiz-adv-x="1165" 
d="M1083 735v-235h-1001v235h1001z" />
    <glyph glyph-name="emdash" unicode="&#x2014;" horiz-adv-x="1722" 
d="M1640 735v-235h-1558v235h1558z" />
    <glyph glyph-name="quoteleft" unicode="&#x2018;" horiz-adv-x="538" 
d="M377 1524q-56 -144 -70 -279h150v-342h-373v262q0 106 26 204.5t52 154.5h215z" />
    <glyph glyph-name="quoteright" unicode="&#x2019;" horiz-adv-x="538" 
d="M162 903q55 141 69 279h-149v342h373v-262q0 -106 -26 -204.5t-52 -154.5h-215z" />
    <glyph glyph-name="quotesinglbase" unicode="&#x201a;" horiz-adv-x="538" 
d="M162 -279q55 141 69 279h-149v342h373v-262q0 -106 -26 -204.5t-52 -154.5h-215z" />
    <glyph glyph-name="quotedblleft" unicode="&#x201c;" horiz-adv-x="1013" 
d="M852 1524q-56 -144 -70 -279h150v-342h-373v262q0 106 26 204.5t52 154.5h215zM377 1524q-56 -144 -70 -279h150v-342h-373v262q0 106 26 204.5t52 154.5h215z" />
    <glyph glyph-name="quotedblright" unicode="&#x201d;" horiz-adv-x="1013" 
d="M637 903q56 144 70 279h-150v342h373v-262q0 -106 -26 -204.5t-52 -154.5h-215zM162 903q55 141 69 279h-149v342h373v-262q0 -106 -26 -204.5t-52 -154.5h-215z" />
    <glyph glyph-name="quotedblbase" unicode="&#x201e;" horiz-adv-x="1015" 
d="M639 -279q56 144 70 279h-150v342h373v-262q0 -106 -26 -204.5t-52 -154.5h-215zM162 -279q55 141 69 279h-149v342h373v-262q0 -106 -26 -204.5t-52 -154.5h-215z" />
    <glyph glyph-name="dagger" unicode="&#x2020;" horiz-adv-x="845" 
d="M225 915h-170v318h170v291h396v-291h170v-318h-170v-915h-396v915z" />
    <glyph glyph-name="daggerdbl" unicode="&#x2021;" horiz-adv-x="866" 
d="M236 0v291h-170v317h170v307h-170v318h170v291h395v-291h170v-318h-170v-307h170v-317h-170v-291h-395z" />
    <glyph glyph-name="bullet" unicode="&#x2022;" horiz-adv-x="759" 
d="M379 348q-143 0 -235.5 93t-92.5 235t92.5 235t235.5 93t236.5 -93t93.5 -235t-93.5 -235t-236.5 -93z" />
    <glyph glyph-name="ellipsis" unicode="&#x2026;" horiz-adv-x="1695" 
d="M483 0h-401v397h401v-397zM1049 0h-402v397h402v-397zM1614 0h-402v397h402v-397z" />
    <glyph glyph-name="perthousand" unicode="&#x2030;" horiz-adv-x="2525" 
d="M2454 268q0 -137 -78 -210.5t-230 -73.5h-39q-307 0 -307 284v267q0 282 307 282h39q308 0 308 -282v-267zM2128 197q59 0 59 65v281q0 65 -59 65q-60 0 -60 -65v-281q0 -65 60 -65zM725 993q0 -137 -77.5 -210.5t-229.5 -73.5h-39q-307 0 -307 284v267q0 282 307 282h39
q307 0 307 -282v-267zM1382 1524l-774 -1524h-237l780 1524h231zM399 922q60 0 60 65v281q0 65 -60 65q-59 0 -59 -65v-281q0 -65 59 -65zM1688 268q0 -137 -78 -210.5t-230 -73.5h-39q-307 0 -307 284v267q0 282 307 282h39q308 0 308 -282v-267zM1362 197q59 0 59 65v281
q0 65 -59 65t-59 -65v-281q0 -65 59 -65z" />
    <glyph glyph-name="uni2032" unicode="&#x2032;" horiz-adv-x="483" 
d="M356 1008h-315l82 516h319z" />
    <glyph glyph-name="uni2033" unicode="&#x2033;" horiz-adv-x="917" 
d="M784 1010h-315l88 514h320zM356 1010h-315l82 514h319z" />
    <glyph glyph-name="guilsinglleft" unicode="&#x2039;" horiz-adv-x="641" 
d="M569 209h-344l-143 285v184l143 285h344l-172 -377z" />
    <glyph glyph-name="guilsinglright" unicode="&#x203a;" horiz-adv-x="641" 
d="M72 963h344l143 -285v-184l-143 -285h-344l172 377z" />
    <glyph glyph-name="fraction" unicode="&#x2044;" horiz-adv-x="1126" 
d="M1126 1524l-899 -1524h-227l897 1524h229z" />
    <glyph glyph-name="Euro" unicode="&#x20ac;" horiz-adv-x="1267" 
d="M664 -23q-256 0 -377 117t-121 359v122h-139v162h139v97h-139v157h139v90q0 112 25 194.5t81.5 145t154 94t235.5 31.5h71q475 0 475 -407v-78h-411v41q0 57 -22 84.5t-75 27.5q-96 0 -96 -112v-111h301v-157h-301v-97h301v-162h-301v-139q0 -117 96 -117q97 0 97 117v66
h411v-101q0 -94 -23 -167.5t-75 -133t-147 -91.5t-228 -32h-71z" />
    <glyph glyph-name="trademark" unicode="&#x2122;" horiz-adv-x="1351" 
d="M399 1321v-516h-235v516h-113v203h463v-203h-115zM586 1524h284l60 -344l61 344h273v-719h-195v448l-88 -448h-113l-88 448v-448h-194v719z" />
    <glyph glyph-name="onethird" unicode="&#x2153;" horiz-adv-x="1718" 
d="M1317 1524l-899 -1524h-228l897 1524h230zM45 1202v213q95 0 140.5 26t66.5 87h264v-844h-309v518h-162zM971 582v45q0 49 11.5 85.5t42.5 70t96 51.5t161 18h41q98 0 166 -15t104 -44t51 -63.5t15 -80.5v-8q0 -68 -41 -103.5t-90 -41.5q25 -4 48.5 -15.5t47 -32.5
t37.5 -58.5t14 -86.5v-51q0 -56 -17 -101t-55 -83t-107.5 -59t-166.5 -21h-41q-83 0 -143.5 13t-96 34.5t-56 55t-27.5 67.5t-7 80v49h289v-23q0 -31 13.5 -47t48.5 -16q57 0 57 61v10q0 31 -11.5 43.5t-43.5 12.5h-158v209h156q30 0 40.5 12t10.5 39v20q0 26 -12 40t-45 14
t-45.5 -13.5t-12.5 -40.5v-26h-274z" />
    <glyph glyph-name="twothirds" unicode="&#x2154;" horiz-adv-x="1957" 
d="M1556 1524l-899 -1524h-227l897 1524h229zM45 684v92q0 53 3 80.5t19 66.5t52 75.5t98 82.5q20 16 74 52.5t74 52.5q58 39 75 60t17 46q0 54 -60 54q-35 0 -48 -17.5t-13 -52.5v-41h-277v74q0 225 322 225h39q191 0 269.5 -62t78.5 -174v-10q0 -128 -133 -209
q-28 -17 -59.5 -32.5t-67.5 -31.5t-51 -24q-154 -75 -154 -110h205v84h266v-281h-729zM1210 582v45q0 49 11.5 85.5t43 70t96.5 51.5t161 18h41q79 0 138.5 -10.5t96.5 -28t60 -44t31.5 -55t8.5 -65.5v-8q0 -68 -41 -103.5t-90 -41.5q25 -4 48.5 -15.5t47 -32.5t38 -58.5
t14.5 -86.5v-51q0 -56 -17 -101t-55 -83t-107.5 -59t-166.5 -21h-41q-83 0 -143.5 13t-96 34.5t-56 55t-27.5 67.5t-7 80v49h289v-23q0 -32 13 -47.5t48 -15.5q58 0 58 61v10q0 31 -12 43.5t-44 12.5h-157v209h155q30 0 40.5 12t10.5 39v20q0 26 -12 40t-45 14t-45 -13.5
t-12 -40.5v-26h-275z" />
    <glyph glyph-name="oneeighth" unicode="&#x215b;" horiz-adv-x="1755" 
d="M1317 1524l-899 -1524h-228l897 1524h230zM45 1202v213q95 0 140.5 26t66.5 87h264v-844h-309v518h-162zM1714 231q0 -121 -84.5 -182t-273.5 -61h-45q-190 0 -273.5 60.5t-83.5 182.5v29q0 45 13.5 78.5t41.5 56.5t42.5 31.5t44.5 22.5q-49 16 -88 58.5t-39 115.5v18
q0 211 342 211h45q346 0 346 -211v-18q0 -71 -41 -114.5t-90 -59.5q22 -7 43.5 -19.5t45.5 -34t39 -57t15 -78.5v-29zM1403 602q0 60 -70 60q-67 0 -67 -60v-24q0 -60 67 -60q70 0 70 62v22zM1333 360q-67 0 -67 -61v-45q0 -61 67 -61q70 0 70 61v45q0 61 -70 61z" />
    <glyph glyph-name="threeeighths" unicode="&#x215c;" horiz-adv-x="1943" 
d="M1516 1524l-900 -1524h-227l897 1524h230zM72 1266v45q0 49 11.5 85.5t42.5 70t96 51.5t161 18h41q98 0 166 -15t104 -44t51 -63.5t15 -80.5v-8q0 -68 -41 -103.5t-90 -41.5q25 -4 48.5 -15.5t47 -32.5t37.5 -58.5t14 -86.5v-51q0 -56 -17 -101t-55 -83t-107.5 -59
t-166.5 -21h-41q-83 0 -143.5 13t-96 34.5t-56 55t-27.5 67.5t-7 80v49h289v-23q0 -31 13.5 -47t48.5 -16q57 0 57 61v10q0 31 -11.5 43.5t-43.5 12.5h-158v209h156q30 0 40.5 12t10.5 39v20q0 26 -12.5 40t-45.5 14t-45 -13.5t-12 -40.5v-26h-274zM1903 231
q0 -121 -84.5 -182t-274.5 -61h-45q-190 0 -273 60.5t-83 182.5v29q0 36 11 66.5t23.5 48t37 35t35 23t34.5 16.5q-49 16 -88 58.5t-39 115.5v18q0 211 342 211h45q346 0 346 -211v-18q0 -71 -41 -114.5t-90 -59.5q22 -7 43.5 -19.5t46 -34t39.5 -57t15 -78.5v-29zM1591 602
q0 60 -69 60q-68 0 -68 -60v-24q0 -60 68 -60q69 0 69 62v22zM1522 360q-68 0 -68 -61v-45q0 -61 68 -61q69 0 69 61v45q0 61 -69 61z" />
    <glyph glyph-name="fiveeighths" unicode="&#x215d;" horiz-adv-x="1947" 
d="M1520 1524l-899 -1524h-228l897 1524h230zM401 672q-331 0 -331 223v76h290v-31q0 -59 60 -59q29 0 43 17t14 42v90q0 31 -13 46.5t-46 15.5q-56 0 -56 -62h-282v492h674v-201h-400v-131q86 86 205 86h10q108 0 163.5 -54.5t55.5 -144.5v-162q0 -114 -85.5 -178.5
t-258.5 -64.5h-43zM1907 231q0 -121 -84.5 -182t-274.5 -61h-45q-190 0 -273 60.5t-83 182.5v29q0 36 11 66.5t23.5 48t37 35t35 23t34.5 16.5q-49 16 -88 58.5t-39 115.5v18q0 211 342 211h45q346 0 346 -211v-18q0 -71 -41 -114.5t-90 -59.5q22 -7 43.5 -19.5t46 -34
t39.5 -57t15 -78.5v-29zM1595 602q0 60 -69 60q-68 0 -68 -60v-24q0 -60 68 -60q69 0 69 62v22zM1526 360q-68 0 -68 -61v-45q0 -61 68 -61q69 0 69 61v45q0 61 -69 61z" />
    <glyph glyph-name="seveneighths" unicode="&#x215e;" horiz-adv-x="1822" 
d="M1395 1524l-899 -1524h-228l897 1524h230zM723 1524v-189q-7 -17 -24 -65.5t-39 -113.5t-35 -101q-56 -159 -56 -301v-70h-366v51q0 89 22.5 147t87.5 158q17 28 40 63.5t36.5 56.5t29.5 46.5t25 41t17.5 31.5t12 25.5t3.5 16.5h-158v-94h-260v297h664zM1782 231
q0 -121 -84.5 -182t-274.5 -61h-45q-190 0 -273 60.5t-83 182.5v29q0 36 11 66.5t23.5 48t37 35t35 23t34.5 16.5q-49 16 -88 58.5t-39 115.5v18q0 211 342 211h45q346 0 346 -211v-18q0 -71 -41 -114.5t-90 -59.5q22 -7 43.5 -19.5t46 -34t39.5 -57t15 -78.5v-29zM1470 602
q0 60 -69 60q-68 0 -68 -60v-24q0 -60 68 -60q69 0 69 62v22zM1401 360q-68 0 -68 -61v-45q0 -61 68 -61q69 0 69 61v45q0 61 -69 61z" />
    <glyph glyph-name="minus" unicode="&#x2212;" horiz-adv-x="1007" 
d="M936 754v-258h-864v258h864z" />
    <glyph glyph-name="uni24C5" unicode="&#x24c5;" horiz-adv-x="1527" 
d="M1448 580q0 -311 -165.5 -459t-494.5 -148h-49q-331 0 -495 145.5t-164 459.5v372q0 298 168 449t493 151h45q326 0 494 -151t168 -449v-370zM784 127q252 0 370 111t118 344v360q0 241 -118.5 348t-369.5 107h-41q-251 0 -369 -107t-118 -348v-360q0 -233 117.5 -344
t369.5 -111h41zM735 616v-364h-295v1020h451q258 0 258 -254v-146q0 -256 -258 -256h-156zM735 821h51q70 0 70 78v88q0 42 -17 60t-53 18h-51v-244z" />
    <glyph glyph-name="cent.tab" unicode="&#xe459;" 
d="M489 -156v129q-227 0 -325 100.5t-98 288.5v416q0 88 22 156.5t70 121t131.5 80t199.5 27.5v133h95v-133q205 -4 293 -93.5t88 -254.5v-123h-301v82q0 57 -17 86t-63 39v-651q46 10 63 39t17 86v102h301v-160q0 -155 -95 -246.5t-286 -95.5v-129h-95zM410 373
q0 -57 17 -86t62 -39v651q-45 -10 -62 -39t-17 -86v-401z" />
    <glyph glyph-name="E.alt" unicode="&#xe484;" horiz-adv-x="966" 
d="M883 1524v-355h-377v-202h364v-361h-364v-248h383v-358h-797v1524h791z" />
    <glyph glyph-name="F.alt" unicode="&#xe485;" horiz-adv-x="923" 
d="M92 1524h768v-355h-354v-202h348v-361h-348v-606h-414v1524z" />
    <glyph glyph-name="J.alt" unicode="&#xe489;" horiz-adv-x="804" 
d="M49 379h144q48 0 67 20.5t19 65.5v1059h438v-1168q0 -180 -82.5 -268t-263.5 -88h-322v379z" />
    <glyph glyph-name="a.alt" unicode="&#xe4c0;" horiz-adv-x="1097" 
d="M610 559q-88 -40 -112 -55q-30 -20 -42 -43t-12 -60v-73q0 -88 82 -88q40 0 62 25.5t22 62.5v231zM1012 324q0 -238 26 -314v-10h-401q-23 46 -23 131q-34 -48 -112 -97.5t-166 -49.5h-2q-131 0 -205 75.5t-74 196.5v147q0 120 55.5 186.5t176.5 102.5q52 18 158.5 44
t136.5 36q19 6 23.5 14t4.5 33v17q0 47 -18.5 68.5t-67.5 21.5h-2q-48 0 -67 -21.5t-19 -70.5v-52h-366v72q0 160 105 240t343 80h47q239 0 343 -79t104 -241v-530z" />
    <glyph glyph-name="r.alt" unicode="&#xe4d1;" horiz-adv-x="907" 
d="M504 969q37 86 103.5 136t160.5 50h8q36 0 76 -8v-436q-54 14 -133 14h-14q-102 0 -149.5 -34.5t-47.5 -106.5v-584h-422v1147h418v-178z" />
    <glyph glyph-name="idotaccent" horiz-adv-x="593" 
d="M508 1241h-422v322h422v-322zM508 0h-422v1147h422v-1147z" />
    <glyph glyph-name="space_uni0326" horiz-adv-x="819" 
d="M311 -545q44 89 68 174h-156v277h373v-205q0 -26 -4.5 -53.5t-10 -48.5t-15.5 -46.5t-16 -38.5t-16 -34t-12 -25h-211z" />
    <glyph glyph-name="zero.num" horiz-adv-x="903" 
d="M430 672q-358 0 -358 313v238q0 154 86 233.5t272 79.5h43q187 0 272.5 -79.5t85.5 -233.5v-238q0 -313 -358 -313h-43zM449 1317q-64 0 -64 -86v-252q0 -86 64 -86q69 0 69 86v252q0 86 -69 86z" />
    <glyph glyph-name="one.num" horiz-adv-x="600" 
d="M45 1202v213q95 0 140.5 26t66.5 87h264v-844h-309v518h-162z" />
    <glyph glyph-name="two.num" horiz-adv-x="825" 
d="M45 684v92q0 53 3 80.5t19 66.5t52 75.5t98 82.5q20 16 74 52.5t74 52.5q58 39 75 60t17 46q0 54 -60 54q-35 0 -48 -17.5t-13 -52.5v-41h-277v74q0 225 322 225h39q191 0 269.5 -62t78.5 -174v-10q0 -128 -133 -209q-28 -17 -59.5 -32.5t-67.5 -31.5t-51 -24
q-154 -75 -154 -110h205v84h266v-281h-729z" />
    <glyph glyph-name="three.num" horiz-adv-x="835" 
d="M72 1266v45q0 49 11.5 85.5t42.5 70t96 51.5t161 18h41q98 0 166 -15t104 -44t51 -63.5t15 -80.5v-8q0 -68 -41 -103.5t-90 -41.5q25 -4 48.5 -15.5t47 -32.5t37.5 -58.5t14 -86.5v-51q0 -56 -17 -101t-55 -83t-107.5 -59t-166.5 -21h-41q-83 0 -143.5 13t-96 34.5
t-56 55t-27.5 67.5t-7 80v49h289v-23q0 -31 13.5 -47t48.5 -16q57 0 57 61v10q0 31 -11.5 43.5t-43.5 12.5h-158v209h156q30 0 40.5 12t10.5 39v20q0 26 -12.5 40t-45.5 14t-45 -13.5t-12 -40.5v-26h-274z" />
    <glyph glyph-name="four.num" horiz-adv-x="790" 
d="M35 1018l293 510h307v-475h121v-234h-121v-135h-295v135h-305v199zM340 1294q-14 -27 -64.5 -116t-68.5 -125h133v241z" />
    <glyph glyph-name="five.num" horiz-adv-x="849" 
d="M401 672q-331 0 -331 223v76h290v-31q0 -59 60 -59q29 0 43 17t14 42v90q0 31 -13 46.5t-46 15.5q-56 0 -56 -62h-282v492h674v-201h-400v-131q86 86 205 86h10q108 0 163.5 -54.5t55.5 -144.5v-162q0 -114 -85.5 -178.5t-258.5 -64.5h-43z" />
    <glyph glyph-name="six.num" horiz-adv-x="894" 
d="M614 1221q112 0 166 -58t54 -162v-47q0 -137 -86 -209.5t-277 -72.5h-37q-362 0 -362 295v262q0 156 84.5 231.5t271.5 75.5h37q100 0 169 -19t107 -56.5t54 -84.5t16 -110v-4h-305v4q0 38 -13 54.5t-49 16.5q-35 0 -47 -16.5t-12 -54.5v-127q82 82 221 82h8zM385 940
q0 -66 68 -66q67 0 67 66v43q0 66 -67 66q-68 0 -68 -66v-43z" />
    <glyph glyph-name="seven.num" horiz-adv-x="776" 
d="M723 1524v-189q-7 -17 -24 -65.5t-39 -113.5t-35 -101q-56 -159 -56 -301v-70h-366v51q0 89 22.5 147t87.5 158q17 28 40 63.5t36.5 56.5t29.5 46.5t25 41t17.5 31.5t12 25.5t3.5 16.5h-158v-94h-260v297h664z" />
    <glyph glyph-name="eight.num" horiz-adv-x="876" 
d="M819 915q0 -121 -84.5 -182t-273.5 -61h-45q-190 0 -273.5 60.5t-83.5 182.5v29q0 45 13.5 78.5t41.5 56.5t42.5 31.5t44.5 22.5q-49 16 -88 58.5t-39 115.5v18q0 211 342 211h45q346 0 346 -211v-18q0 -71 -41 -114.5t-90 -59.5q22 -7 43.5 -19.5t45.5 -34t39 -57
t15 -78.5v-29zM508 1286q0 60 -70 60q-67 0 -67 -60v-24q0 -60 67 -60q70 0 70 62v22zM438 1044q-67 0 -67 -61v-45q0 -61 67 -61q70 0 70 61v45q0 61 -70 61z" />
    <glyph glyph-name="nine.num" horiz-adv-x="894" 
d="M510 1266q0 67 -70 67q-65 0 -65 -67v-41q0 -68 65 -68q70 0 70 68v41zM287 987q-113 0 -169.5 62t-56.5 170v45q0 134 84.5 203t274.5 69h35q368 0 368 -295v-258q0 -156 -85.5 -233.5t-272.5 -77.5h-37q-102 0 -171.5 19t-106.5 56.5t-51.5 83t-14.5 109.5v4h305v-4
q0 -35 12.5 -52.5t47.5 -17.5q36 0 48.5 17t12.5 53v129q-23 -28 -77.5 -55t-137.5 -27h-8z" />
    <glyph glyph-name="zero.den" horiz-adv-x="903" 
d="M430 -12q-358 0 -358 313v238q0 154 86 233.5t272 79.5h43q187 0 272.5 -79.5t85.5 -233.5v-238q0 -313 -358 -313h-43zM449 633q-64 0 -64 -86v-252q0 -86 64 -86q69 0 69 86v252q0 86 -69 86z" />
    <glyph glyph-name="one.den" horiz-adv-x="600" 
d="M45 518v213q95 0 140.5 26t66.5 87h264v-844h-309v518h-162z" />
    <glyph glyph-name="two.den" horiz-adv-x="825" 
d="M45 0v92q0 53 3 80.5t19 66.5t52 75.5t98 82.5q20 16 74 52.5t74 52.5q58 39 75 60t17 46q0 54 -60 54q-35 0 -48 -17.5t-13 -52.5v-41h-277v74q0 225 322 225h39q191 0 269.5 -62t78.5 -174v-10q0 -128 -133 -209q-28 -17 -59.5 -32.5t-67.5 -31.5t-51 -24
q-154 -75 -154 -110h205v84h266v-281h-729z" />
    <glyph glyph-name="three.den" horiz-adv-x="835" 
d="M72 582v45q0 49 11.5 85.5t42.5 70t96 51.5t161 18h41q98 0 166 -15t104 -44t51 -63.5t15 -80.5v-8q0 -68 -41 -103.5t-90 -41.5q25 -4 48.5 -15.5t47 -32.5t37.5 -58.5t14 -86.5v-51q0 -56 -17 -101t-55 -83t-107.5 -59t-166.5 -21h-41q-83 0 -143.5 13t-96 34.5t-56 55
t-27.5 67.5t-7 80v49h289v-23q0 -31 13.5 -47t48.5 -16q57 0 57 61v10q0 31 -11.5 43.5t-43.5 12.5h-158v209h156q30 0 40.5 12t10.5 39v20q0 26 -12.5 40t-45.5 14t-45 -13.5t-12 -40.5v-26h-274z" />
    <glyph glyph-name="four.den" horiz-adv-x="790" 
d="M35 334l293 510h307v-475h121v-234h-121v-135h-295v135h-305v199zM340 610q-14 -27 -64.5 -116t-68.5 -125h133v241z" />
    <glyph glyph-name="five.den" horiz-adv-x="849" 
d="M401 -12q-331 0 -331 223v76h290v-31q0 -59 60 -59q29 0 43 17t14 42v90q0 31 -13 46.5t-46 15.5q-56 0 -56 -62h-282v492h674v-201h-400v-131q86 86 205 86h10q108 0 163.5 -54.5t55.5 -144.5v-162q0 -114 -85.5 -178.5t-258.5 -64.5h-43z" />
    <glyph glyph-name="six.den" horiz-adv-x="894" 
d="M614 537q112 0 166 -58t54 -162v-47q0 -137 -86 -209.5t-277 -72.5h-37q-362 0 -362 295v262q0 156 84.5 231.5t271.5 75.5h37q100 0 169 -19t107 -56.5t54 -84.5t16 -110v-4h-305v4q0 38 -13 54.5t-49 16.5q-35 0 -47 -16.5t-12 -54.5v-127q82 82 221 82h8zM385 256
q0 -66 68 -66q67 0 67 66v43q0 66 -67 66q-68 0 -68 -66v-43z" />
    <glyph glyph-name="seven.den" horiz-adv-x="776" 
d="M723 840v-189q-7 -17 -24 -65.5t-39 -113.5t-35 -101q-56 -159 -56 -301v-70h-366v51q0 89 22.5 147t87.5 158q17 28 40 63.5t36.5 56.5t29.5 46.5t25 41t17.5 31.5t12 25.5t3.5 16.5h-158v-94h-260v297h664z" />
    <glyph glyph-name="eight.den" horiz-adv-x="876" 
d="M819 231q0 -121 -84.5 -182t-273.5 -61h-45q-190 0 -273.5 60.5t-83.5 182.5v29q0 45 13.5 78.5t41.5 56.5t42.5 31.5t44.5 22.5q-49 16 -88 58.5t-39 115.5v18q0 211 342 211h45q346 0 346 -211v-18q0 -71 -41 -114.5t-90 -59.5q22 -7 43.5 -19.5t45.5 -34t39 -57
t15 -78.5v-29zM508 602q0 60 -70 60q-67 0 -67 -60v-24q0 -60 67 -60q70 0 70 62v22zM438 360q-67 0 -67 -61v-45q0 -61 67 -61q70 0 70 61v45q0 61 -70 61z" />
    <glyph glyph-name="nine.den" horiz-adv-x="894" 
d="M510 582q0 67 -70 67q-65 0 -65 -67v-41q0 -68 65 -68q70 0 70 68v41zM287 303q-113 0 -169.5 62t-56.5 170v45q0 134 84.5 203t274.5 69h35q368 0 368 -295v-258q0 -156 -85.5 -233.5t-272.5 -77.5h-37q-102 0 -171.5 19t-106.5 56.5t-51.5 83t-14.5 109.5v4h305v-4
q0 -35 12.5 -52.5t47.5 -17.5q36 0 48.5 17t12.5 53v129q-23 -28 -77.5 -55t-137.5 -27h-8z" />
    <glyph glyph-name="zero.sub" horiz-adv-x="995" 
d="M473 -305q-393 0 -393 344v262q0 344 393 344h47q395 0 395 -344v-262q0 -344 -395 -344h-47zM494 403q-70 0 -70 -94v-276q0 -94 70 -94q75 0 75 94v276q0 94 -75 94z" />
    <glyph glyph-name="one.sub" horiz-adv-x="659" 
d="M49 279v235q103 0 153 28t74 95h291v-928h-340v570h-178z" />
    <glyph glyph-name="two.sub" horiz-adv-x="907" 
d="M49 -293v103q0 48 2 73.5t11.5 60t29.5 62t55.5 62.5t90.5 77q14 10 76.5 53.5t86.5 61.5q71 55 86 71.5t15 45.5q0 59 -66 59q-39 0 -53 -19.5t-14 -58.5v-45h-303v82q0 248 352 248h43q110 0 186.5 -18.5t118.5 -55t60 -81.5t18 -105v-10q0 -139 -146 -230
q-38 -23 -106.5 -55t-89.5 -43q-168 -79 -168 -121h225v92h293v-309h-803z" />
    <glyph glyph-name="three.sub" horiz-adv-x="919" 
d="M80 348v49q0 43 7 76t28.5 66.5t58 55.5t99.5 36t149 14h45q86 0 151.5 -11.5t106 -31t66 -48.5t35.5 -60.5t10 -71.5v-8q0 -77 -44.5 -115.5t-99.5 -44.5q162 -39 162 -213v-55q0 -62 -19 -112t-61 -91.5t-118.5 -64.5t-182.5 -23h-45q-91 0 -157 14t-105 37.5t-62 60
t-30.5 74t-7.5 88.5v54h317v-25q0 -35 14.5 -52.5t53.5 -17.5q63 0 63 68v12q0 35 -13 47.5t-48 12.5h-174v231h172q34 0 45.5 12t11.5 43v23q0 29 -14 44t-50 15q-39 0 -51 -13.5t-12 -45.5v-29h-301z" />
    <glyph glyph-name="four.sub" horiz-adv-x="870" 
d="M39 76q228 391 321 561h338v-522h133v-258h-133v-148h-323v148h-336v219zM375 383q-18 -34 -73 -132t-75 -136h148v268z" />
    <glyph glyph-name="five.sub" horiz-adv-x="935" 
d="M442 -305q-366 0 -366 246v84h321v-33q0 -66 66 -66q61 0 61 66v98q0 33 -14.5 50.5t-50.5 17.5q-60 0 -60 -68h-311v541h741v-221h-440v-144q94 94 225 94h13q119 0 180 -59t61 -160v-178q0 -127 -94.5 -197.5t-284.5 -70.5h-47z" />
    <glyph glyph-name="six.sub" horiz-adv-x="985" 
d="M676 299q121 0 181.5 -64t60.5 -178v-51q0 -311 -400 -311h-41q-209 0 -303 83t-94 240v289q0 171 93 254.5t298 83.5h41q110 0 186 -21t118 -62t59.5 -92.5t17.5 -121.5v-4h-336v4q0 40 -14.5 59t-53.5 19t-52 -19t-13 -59v-139q90 90 244 90h8zM424 -10q0 -72 74 -72
q73 0 73 72v47q0 72 -73 72q-74 0 -74 -72v-47z" />
    <glyph glyph-name="seven.sub" horiz-adv-x="854" 
d="M795 633v-207q-61 -163 -107 -309q-61 -177 -61 -332v-76h-404v55q0 100 24 161t97 175q98 151 139 220t41 90h-172v-103h-286v326h729z" />
    <glyph glyph-name="eight.sub" horiz-adv-x="966" 
d="M901 -37q0 -133 -92.5 -200.5t-300.5 -67.5h-51q-208 0 -299.5 66.5t-91.5 201.5v31q0 48 15 85.5t43 61.5t48.5 36t48.5 24q-139 58 -139 192v21q0 112 86 171.5t289 59.5h51q202 0 290.5 -60t88.5 -171v-21q0 -43 -14.5 -77.5t-38.5 -57t-45.5 -35.5t-45.5 -22
q158 -60 158 -207v-31zM559 371q0 65 -78 65q-73 0 -73 -65v-27q0 -65 73 -65q78 0 78 67v25zM481 104q-73 0 -73 -67v-49q0 -68 73 -68q78 0 78 68v49q0 67 -78 67z" />
    <glyph glyph-name="nine.sub" horiz-adv-x="985" 
d="M561 348q0 74 -76 74q-73 0 -73 -74v-45q0 -76 73 -76q76 0 76 76v45zM315 41q-123 0 -185 68.5t-62 185.5v51q0 147 93.5 223t301.5 76h37q405 0 405 -323v-285q0 -171 -94 -256.5t-299 -85.5h-41q-91 0 -158.5 14.5t-109.5 39t-67 63t-34.5 80.5t-9.5 98v4h336v-4
q0 -39 13.5 -58.5t52.5 -19.5t53 19.5t14 58.5v141q-27 -32 -86.5 -61t-150.5 -29h-9z" />
    <glyph glyph-name="zero.sup" horiz-adv-x="995" 
d="M473 612q-393 0 -393 344v263q0 344 393 344h47q395 0 395 -344v-263q0 -344 -395 -344h-47zM494 1321q-70 0 -70 -94v-277q0 -94 70 -94q75 0 75 94v277q0 94 -75 94z" />
    <glyph glyph-name="one.sup" horiz-adv-x="659" 
d="M49 1196v236q103 0 153 27.5t74 94.5h291v-927h-340v569h-178z" />
    <glyph glyph-name="two.sup" horiz-adv-x="907" 
d="M49 625v102q0 48 2 73.5t11.5 60.5t29.5 62t55.5 62.5t90.5 77.5q14 10 76.5 53.5t86.5 61.5q72 55 86.5 71t14.5 45q0 60 -66 60q-39 0 -53 -19.5t-14 -58.5v-45h-303v82q0 248 352 248h43q110 0 186.5 -19t118.5 -55t60 -81.5t18 -105.5v-10q0 -138 -146 -229
q-38 -23 -106.5 -55t-89.5 -43q-168 -79 -168 -121h225v92h293v-309h-803z" />
    <glyph glyph-name="three.sup" horiz-adv-x="919" 
d="M80 1266v49q0 43 7 76t28.5 66.5t58 55.5t99.5 36t149 14h45q86 0 151.5 -11.5t106 -31t66 -49t35.5 -61t10 -71.5v-8q0 -77 -44.5 -115.5t-99.5 -44.5q162 -39 162 -213v-55q0 -62 -19 -112t-61 -91.5t-118.5 -64.5t-182.5 -23h-45q-91 0 -157 14.5t-105 37.5t-62 60
t-30.5 74.5t-7.5 88.5v53h317v-25q0 -35 14.5 -52t53.5 -17q63 0 63 67v13q0 35 -12.5 47t-48.5 12h-174v232h172q34 0 45.5 12t11.5 43v22q0 29 -14 44.5t-50 15.5q-39 0 -51 -14t-12 -46v-28h-301z" />
    <glyph glyph-name="four.sup" horiz-adv-x="870" 
d="M39 993q228 391 321 561h338v-522h133v-258h-133v-147h-323v147h-336v219zM375 1300q-18 -34 -73 -132t-75 -136h148v268z" />
    <glyph glyph-name="five.sup" horiz-adv-x="935" 
d="M442 612q-366 0 -366 246v84h321v-33q0 -65 66 -65q61 0 61 65v99q0 33 -14.5 50t-50.5 17q-33 0 -46.5 -17t-13.5 -50h-311v540h741v-221h-440v-143q94 94 225 94h13q119 0 180 -59t61 -160v-178q0 -127 -94.5 -198t-284.5 -71h-47z" />
    <glyph glyph-name="six.sup" horiz-adv-x="985" 
d="M676 1217q121 0 181.5 -64t60.5 -178v-51q0 -312 -400 -312h-41q-209 0 -303 83t-94 241v289q0 171 93 254.5t298 83.5h41q110 0 186 -21t118 -62t59.5 -92.5t17.5 -121.5v-4h-336v4q0 40 -14.5 58.5t-53.5 18.5t-52 -18.5t-13 -58.5v-140q91 91 244 91h8zM424 907
q0 -71 74 -71q73 0 73 71v47q0 72 -73 72q-74 0 -74 -72v-47z" />
    <glyph glyph-name="seven.sup" horiz-adv-x="854" 
d="M795 1550v-207q-61 -163 -107 -309q-61 -177 -61 -332v-75h-404v55q0 100 24 161t97 175q100 154 140 221t40 88h-172v-102h-286v325h729z" />
    <glyph glyph-name="eight.sup" horiz-adv-x="966" 
d="M901 881q0 -134 -92.5 -201.5t-300.5 -67.5h-51q-208 0 -299.5 67t-91.5 202v30q0 48 15 85.5t43 61.5t48.5 36t48.5 24q-139 58 -139 193v20q0 112 86 172t289 60h51q202 0 290.5 -60.5t88.5 -171.5v-20q0 -43 -14.5 -78t-38.5 -57t-45.5 -35.5t-45.5 -22.5
q158 -60 158 -207v-30zM559 1288q0 66 -78 66q-73 0 -73 -66v-26q0 -66 73 -66q78 0 78 68v24zM481 1022q-73 0 -73 -68v-49q0 -67 73 -67q78 0 78 67v49q0 68 -78 68z" />
    <glyph glyph-name="nine.sup" horiz-adv-x="985" 
d="M561 1266q0 73 -76 73q-73 0 -73 -73v-45q0 -76 73 -76q76 0 76 76v45zM315 958q-123 0 -185 68.5t-62 185.5v52q0 147 93.5 223t301.5 76h37q405 0 405 -324v-285q0 -171 -94 -256.5t-299 -85.5h-41q-91 0 -158.5 14.5t-109.5 39t-67 63t-34.5 80.5t-9.5 98v4h336v-4
q0 -39 13.5 -58.5t52.5 -19.5t53 19.5t14 58.5v142q-27 -32 -86.5 -61.5t-150.5 -29.5h-9z" />
    <glyph glyph-name="space.tab" horiz-adv-x="512" 
 />
    <glyph glyph-name="comma.tab" horiz-adv-x="512" 
d="M150 -272q55 141 73 272h-168v397h402v-305q0 -160 -80 -364h-227z" />
    <glyph glyph-name="period.tab" horiz-adv-x="512" 
d="M457 0h-402v397h402v-397z" />
    <glyph glyph-name="colon.tab" horiz-adv-x="512" 
d="M457 608h-402v398h402v-398zM457 0h-402v397h402v-397z" />
    <glyph glyph-name="semicolon.tab" horiz-adv-x="512" 
d="M150 -272q55 141 73 272h-168v397h402v-305q0 -160 -80 -364h-227zM457 608h-402v398h402v-398z" />
    <glyph glyph-name="zero.lintab" 
d="M958 401q0 -197 -100.5 -310.5t-320.5 -113.5h-50q-421 0 -421 424v723q0 73 13 134.5t44 115.5t78.5 91.5t120 59t165.5 21.5h50q112 0 195.5 -32t131.5 -91t71 -133t23 -166v-723zM580 1112q0 49 -15.5 72.5t-52.5 23.5t-51.5 -23t-14.5 -73v-704q0 -91 66 -91
q68 0 68 91v704z" />
    <glyph glyph-name="one.lintab" 
d="M63 0v346h252v682h-229v322q76 0 127 10.5t83.5 34t50 53t30.5 76.5h373v-1178h237v-346h-924z" />
    <glyph glyph-name="two.lintab" 
d="M41 0v186q0 143 47 253t186 278l162 196q74 87 103.5 135t29.5 95v4q0 50 -16 72t-59 22q-42 0 -58 -24t-16 -74v-133h-363v164q0 86 20 151t66 116.5t129 78t201 26.5h53q126 0 215.5 -27t141.5 -79t75 -119t23 -156v-20q0 -124 -35.5 -206t-124.5 -171l-217 -213
q-112 -112 -145 -157t-33 -74h213v184h348v-508h-946z" />
    <glyph glyph-name="three.lintab" 
d="M55 1059v104q0 67 7.5 117.5t33 102.5t68.5 85.5t117.5 54.5t177.5 21h57q109 0 188 -17.5t126.5 -47t76 -77t38 -98t9.5 -118.5v-78q0 -104 -41 -161.5t-104 -72.5q72 -17 119 -83t47 -187v-211q0 -416 -451 -416h-57q-106 0 -183 21t-123.5 55t-73.5 87t-36.5 108
t-9.5 127v145h389v-104q0 -48 10.5 -68t51.5 -20q40 0 51.5 20.5t11.5 67.5v116q0 47 -16.5 64.5t-59.5 17.5h-198v351h184q45 0 63.5 19.5t18.5 59.5v101q0 48 -11.5 67t-52.5 19q-20 0 -31.5 -4.5t-16.5 -18t-6 -25t-1 -38.5v-86h-373z" />
    <glyph glyph-name="four.lintab" 
d="M424 1534h416v-885h149v-370h-149v-279h-404v279h-393v315zM436 1094l-172 -445h172v445z" />
    <glyph glyph-name="five.lintab" 
d="M68 664v860h852v-340h-494v-232q19 21 27 29.5t37.5 34t55 38t67 24.5t85.5 12h15q143 0 199.5 -81t56.5 -235v-379q0 -418 -437 -418h-59q-103 0 -178.5 20t-121 53t-72.5 84t-36.5 104t-9.5 122v172h385v-139q0 -43 12.5 -66.5t47.5 -23.5q57 0 57 90v312
q0 48 -10.5 70t-48.5 22t-48 -21.5t-10 -70.5v-41h-372z" />
    <glyph glyph-name="six.lintab" 
d="M729 987q244 0 244 -313v-250q0 -104 -21 -182.5t-69.5 -140t-133 -93t-204.5 -31.5h-49q-124 0 -209.5 31t-133 92t-67.5 139t-20 185v670q0 114 21 194.5t69 139t130.5 86.5t202.5 28h52q99 0 171 -19t117.5 -52.5t72 -87t36.5 -113.5t10 -142v-69h-373v76
q0 46 -12.5 68t-48.5 22q-38 0 -50.5 -22t-12.5 -68v-289q16 23 31 40t47.5 44t80.5 42t107 15h12zM449 403q0 -100 71 -100q37 0 53.5 24.5t16.5 75.5v201q0 101 -70 101q-71 0 -71 -101v-201z" />
    <glyph glyph-name="seven.lintab" 
d="M985 1524v-293q-8 -34 -55.5 -209.5t-79.5 -310.5q-82 -344 -82 -570v-141h-512v98q0 144 31.5 267.5t118.5 306.5q197 417 206 438q27 63 27 98h-225v-198h-363v514h934z" />
    <glyph glyph-name="eight.lintab" 
d="M954 1126q0 -139 -36.5 -209t-100.5 -98q156 -68 156 -315v-119q0 -98 -20.5 -170t-68.5 -127t-133 -83t-208 -28h-62q-123 0 -208 27.5t-133 82.5t-68.5 127t-20.5 171v119q0 247 156 315q-64 28 -100.5 98t-36.5 209v48q0 88 18.5 151.5t63.5 114.5t127 76.5t202 25.5
h62q120 0 202 -25.5t127 -76.5t63.5 -114.5t18.5 -151.5v-48zM584 1145q0 52 -15.5 74t-56.5 22q-40 0 -56 -22.5t-16 -73.5v-111q0 -51 15 -73.5t57 -22.5q44 0 58 22t14 74v111zM584 565q0 56 -15 78.5t-57 22.5q-41 0 -56.5 -23t-15.5 -78v-159q0 -55 15.5 -78t56.5 -23
q42 0 57 22.5t15 78.5v159z" />
    <glyph glyph-name="nine.lintab" 
d="M575 1120q0 99 -71 99q-37 0 -53.5 -24t-16.5 -75v-207q0 -96 70 -96q71 0 71 96v207zM311 535q-129 0 -194.5 92t-65.5 241v256q0 207 98 313.5t330 106.5h49q122 0 206.5 -29t133 -86.5t69.5 -134.5t21 -182v-684q0 -227 -96 -337.5t-327 -110.5h-50
q-123 0 -204.5 25.5t-126 80.5t-61.5 126.5t-17 178.5v72h373v-70q0 -51 12.5 -73.5t48.5 -22.5q39 0 51 22t12 74v283q-98 -141 -249 -141h-13z" />
    <glyph glyph-name="Euro.lintab" 
d="M526 -23q-112 0 -190 26t-124 78t-66.5 123t-20.5 169v211h-115v161h115v89h-115v157h115v162q0 194 92.5 293.5t310.5 99.5h70q109 0 185 -26t120.5 -77.5t64 -120t19.5 -161.5v-100h-366v92q0 44 -12 64t-46 20t-46.5 -20t-12.5 -64v-162h276v-157h-276v-89h276v-161
h-276v-199q0 -44 12.5 -64t46.5 -20t46 20t12 64v125h366v-141q0 -72 -9.5 -127t-35 -106.5t-68 -85t-112.5 -53.5t-164 -20h-72z" />
    <glyph glyph-name="yen.lintab" 
d="M301 383h-227v162h227v96h-227v158h188l-264 725h418l112 -488l111 488h387l-246 -725h195v-158h-230v-96h230v-162h-230v-383h-444v383z" />
    <glyph glyph-name="sterling.lintab" 
d="M981 0h-948v301h10q87 0 127.5 43.5t40.5 136.5v11q0 46 -14 135h-164v237h123q-23 131 -23 246v59q0 179 94.5 278t313.5 99h51q94 0 163 -19t110.5 -51t66 -81t33 -100.5t8.5 -118.5v-183h-342v154q0 44 -14 65t-50 21q-35 0 -49 -22.5t-14 -67.5v-43q0 -56 12 -236
h326v-237h-312v-21q0 -121 -39.5 -195t-93.5 -104h248v193h336v-500z" />
    <glyph glyph-name="dollar.lintab" 
d="M383 1163q0 -46 19 -75.5t65 -61.5v254q-84 -12 -84 -113v-4zM631 406q0 58 -19.5 91t-66.5 64v-293q86 12 86 125v13zM467 -154v131q-430 0 -430 373v178h346v-143q0 -102 84 -117v344l-152 95q-67 42 -113.5 81.5t-87 91.5t-61 117.5t-20.5 145.5v37q0 175 110 270.5
t324 95.5v117h78v-117q120 0 202 -24.5t128.5 -74.5t66 -115.5t19.5 -157.5v-95h-332v70q0 62 -19 93t-65 38v-305l172 -111q96 -62 153 -118.5t91 -137t34 -184.5v-39q0 -86 -25 -157.5t-76.5 -129t-140.5 -89.5t-208 -32v-131h-78z" />
    <glyph glyph-name="greater.lintab" 
d="M125 449l465 172l-465 172v272l774 -322v-245l-774 -322v273z" />
    <glyph glyph-name="less.lintab" 
d="M125 498v245l774 322v-272l-465 -172l465 -172v-273z" />
    <glyph glyph-name="plus.lintab" 
d="M649 498v-332h-274v332h-303v258h303v331h274v-331h303v-258h-303z" />
    <glyph glyph-name="minus.lintab" 
d="M952 756v-258h-880v258h880z" />
    <glyph glyph-name="multiply.lintab" 
d="M510 444l-248 -249l-182 176l250 252l-250 247l182 189l252 -250l248 250l182 -176l-252 -254l252 -250l-182 -184z" />
    <glyph glyph-name="divide.lintab" 
d="M678 868h-332v293h332v-293zM952 756v-258h-880v258h880zM678 88h-332v291h332v-291z" />
    <glyph glyph-name="equal.lintab" 
d="M942 946v-248h-860v248h860zM942 549v-248h-860v248h860z" />
    <glyph glyph-name="percent.lintab" 
d="M514 1122q0 -215 -229 -215h-31q-123 0 -176 55.5t-53 159.5v197q0 215 229 215h31q229 0 229 -215v-197zM985 1524l-776 -1524h-176l780 1524h172zM270 1073q19 0 26 11t7 36v203q0 25 -7 36t-26 11q-21 0 -26.5 -10t-5.5 -37v-203q0 -18 1.5 -26.5t8.5 -14.5t22 -6z
M999 205q0 -215 -229 -215h-31q-123 0 -176 55.5t-53 159.5v196q0 215 229 215h31q229 0 229 -215v-196zM723 203q0 -26 5.5 -36.5t27.5 -10.5q19 0 25.5 11t6.5 36v203q0 25 -6.5 36t-25.5 11q-22 0 -27.5 -10.5t-5.5 -36.5v-203z" />
    <glyph glyph-name="perthousand.lintab" 
d="M477 1180q0 -215 -211 -215h-30q-117 0 -164 54.5t-47 160.5v139q0 102 47.5 158.5t163.5 56.5h30q115 0 163 -56.5t48 -158.5v-139zM219 1174q0 -26 5.5 -35t27.5 -9q20 0 26.5 10t6.5 34v153q0 24 -6.5 33.5t-26.5 9.5q-22 0 -27.5 -9t-5.5 -34v-153zM791 1020
l-762 -506v170l762 512v-176zM518 205q0 -215 -211 -215h-31q-117 0 -163.5 54.5t-46.5 160.5v139q0 103 47 159t163 56h31q115 0 163 -56.5t48 -158.5v-139zM999 205q0 -101 -45.5 -158t-160.5 -57h-31q-116 0 -161.5 54.5t-45.5 160.5v139q0 102 46 158.5t161 56.5h31
q114 0 160 -56t46 -159v-139zM745 195q0 -25 5.5 -34t27.5 -9q20 0 26.5 9.5t6.5 33.5v161q0 24 -6.5 33.5t-26.5 9.5q-22 0 -27.5 -9t-5.5 -34v-161zM260 199q0 -25 5.5 -34t27.5 -9q20 0 26.5 9.5t6.5 33.5v153q0 24 -6.5 33.5t-26.5 9.5q-22 0 -27.5 -9t-5.5 -34v-153z
" />
    <glyph glyph-name="IJ.alt" horiz-adv-x="1423" 
d="M526 0h-434v1524h434v-1524zM668 379h143q48 0 67 20.5t19 65.5v1059h438v-1168q0 -180 -82.5 -268t-263.5 -88h-321v379z" />
    <glyph glyph-name="a.alt2" horiz-adv-x="1169" 
d="M584 258q40 0 61 29t21 78v397q0 108 -82 108q-45 0 -62.5 -25.5t-17.5 -82.5v-400q0 -104 80 -104zM1083 1147v-1147h-413v125q-38 -55 -117 -101.5t-168 -46.5h-10q-128 0 -212.5 91t-84.5 223v569q0 132 79 215.5t203 83.5h13q166 0 293 -131v119h417z" />
    <glyph glyph-name="Eacute.alt" horiz-adv-x="966" 
d="M883 1524v-355h-377v-202h364v-361h-364v-248h383v-358h-797v1524h791zM410 1903h385l-115 -287h-377z" />
    <glyph glyph-name="Ebreve.alt" horiz-adv-x="966" 
d="M883 1524v-355h-377v-202h364v-361h-364v-248h383v-358h-797v1524h791zM487 1604q-160 0 -244.5 78.5t-84.5 207.5v13h266v-9q0 -73 68 -73q67 0 67 73v9h270v-13q0 -129 -84.5 -207.5t-244.5 -78.5h-13z" />
    <glyph glyph-name="Ecaron.alt" horiz-adv-x="966" 
d="M883 1524v-355h-377v-202h364v-361h-364v-248h383v-358h-797v1524h791zM94 1907h322l76 -129l75 129h318l-185 -291h-421z" />
    <glyph glyph-name="Ecircumflex.alt" horiz-adv-x="966" 
d="M883 1524v-355h-377v-202h364v-361h-364v-248h383v-358h-797v1524h791zM889 1612h-322l-75 129l-76 -129h-318l185 291h422z" />
    <glyph glyph-name="Edieresis.alt" horiz-adv-x="966" 
d="M883 1524v-355h-377v-202h364v-361h-364v-248h383v-358h-797v1524h791zM860 1616h-330v301h330v-301zM449 1616h-330v301h330v-301z" />
    <glyph glyph-name="Edotaccent.alt" horiz-adv-x="966" 
d="M883 1524v-355h-377v-202h364v-361h-364v-248h383v-358h-797v1524h791zM705 1616h-422v321h422v-321z" />
    <glyph glyph-name="Egrave.alt" horiz-adv-x="966" 
d="M883 1524v-355h-377v-202h364v-361h-364v-248h383v-358h-797v1524h791zM303 1616l-115 287h385l107 -287h-377z" />
    <glyph glyph-name="Emacron.alt" horiz-adv-x="966" 
d="M883 1524v-355h-377v-202h364v-361h-364v-248h383v-358h-797v1524h791zM199 1888h585v-256h-585v256z" />
    <glyph glyph-name="Eogonek.alt" horiz-adv-x="966" 
d="M883 1524v-355h-377v-202h364v-361h-364v-248h383v-358h-797v1524h791zM352 -225q0 132 260 225h170q-106 -87 -106 -135v-4q0 -43 69 -43h37v-199h-221q-100 0 -154.5 38.5t-54.5 111.5v6z" />
    <glyph glyph-name="Jcircumflex.alt" horiz-adv-x="804" 
d="M49 379h144q48 0 67 20.5t19 65.5v1059h438v-1168q0 -180 -82.5 -268t-263.5 -88h-322v379zM887 1612h-322l-76 129l-75 -129h-318l185 291h421z" />
    <glyph glyph-name="aacute.alt" horiz-adv-x="1097" 
d="M610 559q-88 -40 -112 -55q-30 -20 -42 -43t-12 -60v-73q0 -88 82 -88q40 0 62 25.5t22 62.5v231zM1012 324q0 -238 26 -314v-10h-401q-23 46 -23 131q-34 -48 -112 -97.5t-166 -49.5h-2q-131 0 -205 75.5t-74 196.5v147q0 120 55.5 186.5t176.5 102.5q52 18 158.5 44
t136.5 36q19 6 23.5 14t4.5 33v17q0 47 -18.5 68.5t-67.5 21.5h-2q-48 0 -67 -21.5t-19 -70.5v-52h-366v72q0 160 105 240t343 80h47q239 0 343 -79t104 -241v-530zM465 1569h366l-129 -328h-354z" />
    <glyph glyph-name="aacute.alt2" horiz-adv-x="1169" 
d="M584 258q40 0 61 29t21 78v397q0 108 -82 108q-45 0 -62.5 -25.5t-17.5 -82.5v-400q0 -104 80 -104zM1083 1147v-1147h-413v125q-38 -55 -117 -101.5t-168 -46.5h-10q-128 0 -212.5 91t-84.5 223v569q0 132 79 215.5t203 83.5h13q166 0 293 -131v119h417zM500 1569h366
l-129 -328h-354z" />
    <glyph glyph-name="abreve.alt" horiz-adv-x="1097" 
d="M610 559q-88 -40 -112 -55q-30 -20 -42 -43t-12 -60v-73q0 -88 82 -88q40 0 62 25.5t22 62.5v231zM1012 324q0 -238 26 -314v-10h-401q-23 46 -23 131q-34 -48 -112 -97.5t-166 -49.5h-2q-131 0 -205 75.5t-74 196.5v147q0 120 55.5 186.5t176.5 102.5q52 18 158.5 44
t136.5 36q19 6 23.5 14t4.5 33v17q0 47 -18.5 68.5t-67.5 21.5h-2q-48 0 -67 -21.5t-19 -70.5v-52h-366v72q0 160 105 240t343 80h47q239 0 343 -79t104 -241v-530zM522 1235q-161 0 -243 80t-82 219v25h268v-17q0 -86 63 -86q64 0 64 86v17h268v-25q0 -139 -82 -219
t-243 -80h-13z" />
    <glyph glyph-name="abreve.alt2" horiz-adv-x="1169" 
d="M584 258q40 0 61 29t21 78v397q0 108 -82 108q-45 0 -62.5 -25.5t-17.5 -82.5v-400q0 -104 80 -104zM1083 1147v-1147h-413v125q-38 -55 -117 -101.5t-168 -46.5h-10q-128 0 -212.5 91t-84.5 223v569q0 132 79 215.5t203 83.5h13q166 0 293 -131v119h417zM561 1235
q-161 0 -243 80t-82 219v25h268v-17q0 -86 63 -86q64 0 64 86v17h268v-25q0 -139 -82.5 -219t-243.5 -80h-12z" />
    <glyph glyph-name="acircumflex.alt" horiz-adv-x="1097" 
d="M610 559q-88 -40 -112 -55q-30 -20 -42 -43t-12 -60v-73q0 -88 82 -88q40 0 62 25.5t22 62.5v231zM1012 324q0 -238 26 -314v-10h-401q-23 46 -23 131q-34 -48 -112 -97.5t-166 -49.5h-2q-131 0 -205 75.5t-74 196.5v147q0 120 55.5 186.5t176.5 102.5q52 18 158.5 44
t136.5 36q19 6 23.5 14t4.5 33v17q0 47 -18.5 68.5t-67.5 21.5h-2q-48 0 -67 -21.5t-19 -70.5v-52h-366v72q0 160 105 240t343 80h47q239 0 343 -79t104 -241v-530zM913 1239h-315l-74 162l-73 -162h-312l170 330h434z" />
    <glyph glyph-name="acircumflex.alt2" horiz-adv-x="1169" 
d="M582 258q40 0 61 29t21 78v397q0 108 -82 108q-45 0 -62.5 -25.5t-17.5 -82.5v-400q0 -104 80 -104zM1081 1147v-1147h-413v125q-38 -55 -117 -101.5t-168 -46.5h-10q-128 0 -212.5 91t-84.5 223v569q0 132 79 215.5t203 83.5h13q166 0 293 -131v119h417zM956 1239h-315
l-74 162l-73 -162h-312l170 330h434z" />
    <glyph glyph-name="adieresis.alt" horiz-adv-x="1097" 
d="M610 559q-88 -40 -112 -55q-30 -20 -42 -43t-12 -60v-73q0 -88 82 -88q40 0 62 25.5t22 62.5v231zM1012 324q0 -238 26 -314v-10h-401q-23 46 -23 131q-34 -48 -112 -97.5t-166 -49.5h-2q-131 0 -205 75.5t-74 196.5v147q0 120 55.5 186.5t176.5 102.5q52 18 158.5 44
t136.5 36q19 6 23.5 14t4.5 33v17q0 47 -18.5 68.5t-67.5 21.5h-2q-48 0 -67 -21.5t-19 -70.5v-52h-366v72q0 160 105 240t343 80h47q239 0 343 -79t104 -241v-530zM905 1241h-330v301h330v-301zM498 1241h-330v301h330v-301z" />
    <glyph glyph-name="adieresis.alt2" horiz-adv-x="1169" 
d="M584 258q40 0 61 29t21 78v397q0 108 -82 108q-45 0 -62.5 -25.5t-17.5 -82.5v-400q0 -104 80 -104zM1083 1147v-1147h-413v125q-38 -55 -117 -101.5t-168 -46.5h-10q-128 0 -212.5 91t-84.5 223v569q0 132 79 215.5t203 83.5h13q166 0 293 -131v119h417zM940 1241h-330
v301h330v-301zM532 1241h-329v301h329v-301z" />
    <glyph glyph-name="agrave.alt" horiz-adv-x="1097" 
d="M610 559q-88 -40 -112 -55q-30 -20 -42 -43t-12 -60v-73q0 -88 82 -88q40 0 62 25.5t22 62.5v231zM1012 324q0 -238 26 -314v-10h-401q-23 46 -23 131q-34 -48 -112 -97.5t-166 -49.5h-2q-131 0 -205 75.5t-74 196.5v147q0 120 55.5 186.5t176.5 102.5q52 18 158.5 44
t136.5 36q19 6 23.5 14t4.5 33v17q0 47 -18.5 68.5t-67.5 21.5h-2q-48 0 -67 -21.5t-19 -70.5v-52h-366v72q0 160 105 240t343 80h47q239 0 343 -79t104 -241v-530zM348 1241l-129 328h367l116 -328h-354z" />
    <glyph glyph-name="agrave.alt2" horiz-adv-x="1169" 
d="M584 258q40 0 61 29t21 78v397q0 108 -82 108q-45 0 -62.5 -25.5t-17.5 -82.5v-400q0 -104 80 -104zM1083 1147v-1147h-413v125q-38 -55 -117 -101.5t-168 -46.5h-10q-128 0 -212.5 91t-84.5 223v569q0 132 79 215.5t203 83.5h13q166 0 293 -131v119h417zM383 1241
l-129 328h367l116 -328h-354z" />
    <glyph glyph-name="amacron.alt" horiz-adv-x="1097" 
d="M610 559q-88 -40 -112 -55q-30 -20 -42 -43t-12 -60v-73q0 -88 82 -88q40 0 62 25.5t22 62.5v231zM1012 324q0 -238 26 -314v-10h-401q-23 46 -23 131q-34 -48 -112 -97.5t-166 -49.5h-2q-131 0 -205 75.5t-74 196.5v147q0 120 55.5 186.5t176.5 102.5q52 18 158.5 44
t136.5 36q19 6 23.5 14t4.5 33v17q0 47 -18.5 68.5t-67.5 21.5h-2q-48 0 -67 -21.5t-19 -70.5v-52h-366v72q0 160 105 240t343 80h47q239 0 343 -79t104 -241v-530zM238 1524h585v-256h-585v256z" />
    <glyph glyph-name="amacron.alt2" horiz-adv-x="1169" 
d="M584 258q40 0 61 29t21 78v397q0 108 -82 108q-45 0 -62.5 -25.5t-17.5 -82.5v-400q0 -104 80 -104zM1083 1147v-1147h-413v125q-38 -55 -117 -101.5t-168 -46.5h-10q-128 0 -212.5 91t-84.5 223v569q0 132 79 215.5t203 83.5h13q166 0 293 -131v119h417zM285 1524h585
v-256h-585v256z" />
    <glyph glyph-name="aogonek.alt" horiz-adv-x="1097" 
d="M610 559q-88 -40 -112 -55q-30 -20 -42 -43t-12 -60v-73q0 -88 82 -88q40 0 62 25.5t22 62.5v231zM1012 324q0 -238 26 -314v-10h-401q-23 46 -23 131q-34 -48 -112 -97.5t-166 -49.5h-2q-131 0 -205 75.5t-74 196.5v147q0 120 55.5 186.5t176.5 102.5q52 18 158.5 44
t136.5 36q19 6 23.5 14t4.5 33v17q0 47 -18.5 68.5t-67.5 21.5h-2q-48 0 -67 -21.5t-19 -70.5v-52h-366v72q0 160 105 240t343 80h47q239 0 343 -79t104 -241v-530zM608 -225q0 132 260 225h170q-106 -87 -106 -135v-4q0 -43 69 -43h37v-199h-221q-100 0 -154.5 38.5
t-54.5 111.5v6z" />
    <glyph glyph-name="aogonek.alt2" horiz-adv-x="1169" 
d="M584 258q40 0 61 29t21 78v397q0 108 -82 108q-45 0 -62.5 -25.5t-17.5 -82.5v-400q0 -104 80 -104zM1083 1147v-1147h-413v125q-38 -55 -117 -101.5t-168 -46.5h-10q-128 0 -212.5 91t-84.5 223v569q0 132 79 215.5t203 83.5h13q166 0 293 -131v119h417zM653 -225
q0 132 260 225h170q-106 -87 -106 -135v-4q0 -43 70 -43h36v-199h-221q-100 0 -154.5 38.5t-54.5 111.5v6z" />
    <glyph glyph-name="aring.alt" horiz-adv-x="1097" 
d="M610 559q-88 -40 -112 -55q-30 -20 -42 -43t-12 -60v-73q0 -88 82 -88q40 0 62 25.5t22 62.5v231zM1012 324q0 -238 26 -314v-10h-401q-23 46 -23 131q-34 -48 -112 -97.5t-166 -49.5h-2q-131 0 -205 75.5t-74 196.5v147q0 120 55.5 186.5t176.5 102.5q52 18 158.5 44
t136.5 36q19 6 23.5 14t4.5 33v17q0 47 -18.5 68.5t-67.5 21.5h-2q-48 0 -67 -21.5t-19 -70.5v-52h-366v72q0 160 105 240t343 80h47q239 0 343 -79t104 -241v-530zM524 1229q-105 0 -168 60t-63 159q0 100 62.5 158.5t168.5 58.5q105 0 168.5 -59t63.5 -158
q0 -98 -64 -158.5t-168 -60.5zM524 1356q39 0 63.5 25t24.5 67t-24.5 67t-63.5 25t-63.5 -25t-24.5 -67t24.5 -67t63.5 -25z" />
    <glyph glyph-name="aring.alt2" horiz-adv-x="1169" 
d="M584 258q40 0 61 29t21 78v397q0 108 -82 108q-45 0 -62.5 -25.5t-17.5 -82.5v-400q0 -104 80 -104zM1083 1147v-1147h-413v125q-38 -55 -117 -101.5t-168 -46.5h-10q-128 0 -212.5 91t-84.5 223v569q0 132 79 215.5t203 83.5h13q166 0 293 -131v119h417zM559 1229
q-105 0 -168 60t-63 159q0 100 62.5 158.5t168.5 58.5q105 0 168.5 -59t63.5 -158q0 -98 -64 -158.5t-168 -60.5zM559 1356q39 0 63.5 25t24.5 67t-24.5 67t-63.5 25t-63.5 -25t-24.5 -67t24.5 -67t63.5 -25z" />
    <glyph glyph-name="aringacute.alt" horiz-adv-x="1097" 
d="M610 559q-88 -40 -112 -55q-30 -20 -42 -43t-12 -60v-73q0 -88 82 -88q40 0 62 25.5t22 62.5v231zM1012 324q0 -238 26 -314v-10h-401q-23 46 -23 131q-34 -48 -112 -97.5t-166 -49.5h-2q-131 0 -205 75.5t-74 196.5v147q0 120 55.5 186.5t176.5 102.5q52 18 158.5 44
t136.5 36q19 6 23.5 14t4.5 33v17q0 47 -18.5 68.5t-67.5 21.5h-2q-48 0 -67 -21.5t-19 -70.5v-52h-366v72q0 160 105 240t343 80h47q239 0 343 -79t104 -241v-530zM524 1229q-105 0 -168 60t-63 159q0 100 62.5 158.5t168.5 58.5q105 0 168.5 -59t63.5 -158
q0 -98 -64 -158.5t-168 -60.5zM524 1356q39 0 63.5 25t24.5 67t-24.5 67t-63.5 25t-63.5 -25t-24.5 -67t24.5 -67t63.5 -25zM465 2048h366l-129 -328h-354z" />
    <glyph glyph-name="aringacute.alt2" horiz-adv-x="1169" 
d="M584 258q40 0 61 29t21 78v397q0 108 -82 108q-45 0 -62.5 -25.5t-17.5 -82.5v-400q0 -104 80 -104zM1083 1147v-1147h-413v125q-38 -55 -117 -101.5t-168 -46.5h-10q-128 0 -212.5 91t-84.5 223v569q0 132 79 215.5t203 83.5h13q166 0 293 -131v119h417zM559 1229
q-105 0 -168 60t-63 159q0 100 62.5 158.5t168.5 58.5q105 0 168.5 -59t63.5 -158q0 -98 -64 -158.5t-168 -60.5zM559 1356q39 0 63.5 25t24.5 67t-24.5 67t-63.5 25t-63.5 -25t-24.5 -67t24.5 -67t63.5 -25zM500 2048h366l-129 -328h-354z" />
    <glyph glyph-name="atilde.alt" horiz-adv-x="1097" 
d="M610 559q-88 -40 -112 -55q-30 -20 -42 -43t-12 -60v-73q0 -88 82 -88q40 0 62 25.5t22 62.5v231zM1012 324q0 -238 26 -314v-10h-401q-23 46 -23 131q-34 -48 -112 -97.5t-166 -49.5h-2q-131 0 -205 75.5t-74 196.5v147q0 120 55.5 186.5t176.5 102.5q52 18 158.5 44
t136.5 36q19 6 23.5 14t4.5 33v17q0 47 -18.5 68.5t-67.5 21.5h-2q-48 0 -67 -21.5t-19 -70.5v-52h-366v72q0 160 105 240t343 80h47q239 0 343 -79t104 -241v-530zM862 1421q0 -80 -38.5 -128t-108.5 -48h-6q-75 0 -179 49q-82 37 -96 37q-18 0 -18 -28v-62h-228v164
q0 80 39 128t109 48h6q73 0 176 -49q86 -39 98 -39q19 0 19 31v61h227v-164z" />
    <glyph glyph-name="atilde.alt2" horiz-adv-x="1169" 
d="M584 258q40 0 61 29t21 78v397q0 108 -82 108q-45 0 -62.5 -25.5t-17.5 -82.5v-400q0 -104 80 -104zM1083 1147v-1147h-413v125q-38 -55 -117 -101.5t-168 -46.5h-10q-128 0 -212.5 91t-84.5 223v569q0 132 79 215.5t203 83.5h13q166 0 293 -131v119h417zM911 1421
q0 -80 -38.5 -128t-108.5 -48h-6q-74 0 -178 49q-82 37 -97 37q-18 0 -18 -28v-62h-227v164q0 80 38.5 128t108.5 48h6q73 0 176 -49q86 -39 99 -39q18 0 18 31v61h227v-164z" />
    <glyph glyph-name="racute.alt" horiz-adv-x="907" 
d="M504 969q37 86 103.5 136t160.5 50h8q36 0 76 -8v-436q-54 14 -133 14h-14q-102 0 -149.5 -34.5t-47.5 -106.5v-584h-422v1147h418v-178zM469 1569h367l-129 -328h-355z" />
    <glyph glyph-name="rcaron.alt" horiz-adv-x="907" 
d="M504 969q37 86 103.5 136t160.5 50h8q36 0 76 -8v-436q-54 14 -133 14h-14q-102 0 -149.5 -34.5t-47.5 -106.5v-584h-422v1147h418v-178zM106 1569h316l74 -160l73 160h312l-172 -328h-430z" />
    <glyph glyph-name="rcommaaccent.alt" horiz-adv-x="907" 
d="M504 969q37 86 103.5 136t160.5 50h8q36 0 76 -8v-436q-54 14 -133 14h-14q-102 0 -149.5 -34.5t-47.5 -106.5v-584h-422v1147h418v-178zM199 -545q41 84 67 174h-155v277h372v-205q0 -26 -4.5 -54t-9.5 -48t-15 -46t-15.5 -38.5t-16.5 -34.5t-12 -25h-211z" />
    <glyph glyph-name="space_uni0326.alt" horiz-adv-x="819" 
d="M516 1700q-46 -94 -70 -174h154v-285h-381v209q0 115 72 250h225z" />
    <glyph glyph-name="ordfeminine.alt" horiz-adv-x="858" 
d="M477 1085q-42 -15 -92 -45q-37 -21 -37 -73v-29q0 -28 15.5 -47t46.5 -19q29 0 48 22t19 52v139zM479 803q-1 -1 -9.5 -12t-12 -14.5t-14 -15t-17 -17t-18.5 -16t-21.5 -15.5t-23.5 -12.5t-27 -11.5t-29.5 -6.5t-32.5 -2.5h-6q-92 0 -149.5 58.5t-57.5 146.5v84
q0 83 38 128t122 72l225 64q15 4 22 11.5t8 15t1 26.5v2q0 35 -15.5 49.5t-51.5 14.5q-64 0 -64 -64v-39h-272v37q0 123 71.5 186.5t247.5 63.5h27q195 0 272.5 -59t77.5 -191v-340q0 -183 18 -239v-11h-288q-21 37 -21 107z" />
    <glyph glyph-name="ordfeminine.alt2" horiz-adv-x="890" 
d="M436 887q72 0 72 84v264q0 86 -72 86q-63 0 -63 -86v-264q0 -84 63 -84zM803 1524v-828h-295v95q-92 -113 -217 -113h-4q-110 0 -164.5 70t-54.5 186v342q0 113 53.5 183.5t163.5 70.5h4q82 0 137 -35t82 -74v103h295z" />
    <glyph glyph-name="caron.alt" horiz-adv-x="819" 
d="M283 1563h278l-35 -322h-266z" />
    <glyph glyph-name="plus.uc" horiz-adv-x="1048" 
d="M664 573v-331h-279v331h-313v258h313v332h279v-332h313v-258h-313z" />
    <glyph glyph-name="minus.uc" horiz-adv-x="1007" 
d="M936 831v-258h-864v258h864z" />
    <glyph glyph-name="multiply.uc" horiz-adv-x="946" 
d="M471 520l-248 -250l-182 176l250 252l-250 248l182 189l252 -250l248 250l182 -177l-252 -253l252 -250l-182 -185z" />
    <glyph glyph-name="divide.uc" horiz-adv-x="1048" 
d="M690 944h-332v293h332v-293zM977 831v-258h-905v258h905zM690 164h-332v291h332v-291z" />
    <glyph glyph-name="equal.uc" horiz-adv-x="1028" 
d="M946 1022v-248h-864v248h864zM946 625v-248h-864v248h864z" />
    <glyph glyph-name="less.uc" horiz-adv-x="917" 
d="M72 573v246l774 322v-273l-465 -172l465 -172v-272z" />
    <glyph glyph-name="greater.uc" horiz-adv-x="917" 
d="M72 524l465 172l-465 172v273l774 -322v-246l-774 -321v272z" />
    <glyph glyph-name="questiondown.uc" horiz-adv-x="1044" 
d="M723 1042v-61q0 -86 -21 -142t-84 -141l-92 -118q-41 -54 -53 -85t-12 -87v-54q0 -82 76 -82q75 0 75 84v166h369v-174q0 -82 -19 -144.5t-64 -114.5t-129.5 -79.5t-205.5 -27.5h-55q-239 0 -345 92t-106 272v37q0 115 34 194.5t108 159.5l147 158q41 45 51.5 69t10.5 74
v4h315zM365 1524h397v-394h-397v394z" />
    <glyph glyph-name="exclamdown.uc" horiz-adv-x="593" 
d="M72 0l112 1042h226l112 -1042h-450zM496 1130h-398v394h398v-394z" />
    <glyph glyph-name="hyphen.uc" horiz-adv-x="669" 
d="M588 872v-352h-506v352h506z" />
    <glyph glyph-name="endash.uc" horiz-adv-x="1165" 
d="M1083 817v-235h-1001v235h1001z" />
    <glyph glyph-name="emdash.uc" horiz-adv-x="1722" 
d="M1640 817v-235h-1558v235h1558z" />
    <glyph glyph-name="guilsinglleft.uc" horiz-adv-x="641" 
d="M569 252h-344l-143 285v184l143 285h344l-172 -377z" />
    <glyph glyph-name="guilsinglright.uc" horiz-adv-x="641" 
d="M72 1006h344l143 -285v-184l-143 -285h-344l172 377z" />
    <glyph glyph-name="guillemotleft.uc" horiz-adv-x="1046" 
d="M528 252h-319l-127 285v184l127 285h319l-151 -377zM975 252h-324l-147 377l147 377h324l-152 -377z" />
    <glyph glyph-name="guillemotright.uc" horiz-adv-x="1046" 
d="M72 1006h323l148 -377l-148 -377h-323l151 377zM518 1006h320l127 -285v-184l-127 -285h-320l152 377z" />
    <glyph glyph-name="parenleft.uc" horiz-adv-x="612" 
d="M51 752q0 125 20 247t44.5 208t69.5 186t71 149t72 129h254q-199 -476 -199 -919q0 -444 199 -920h-254q-44 75 -72 127t-71.5 149.5t-69 185.5t-45 210.5t-19.5 247.5z" />
    <glyph glyph-name="parenright.uc" horiz-adv-x="612" 
d="M561 752q0 -125 -19.5 -247.5t-45 -210.5t-68.5 -185.5t-71.5 -150t-71.5 -126.5h-254q198 474 198 920q0 445 -198 919h254q45 -79 72 -128.5t71 -149.5t69 -186t44.5 -208t19.5 -247z" />
    <glyph glyph-name="bracketleft.uc" horiz-adv-x="630" 
d="M86 1673h483v-264h-170v-1309h170v-264h-483v1837z" />
    <glyph glyph-name="bracketright.uc" horiz-adv-x="630" 
d="M61 100h170v1309h-170v264h484v-1837h-484v264z" />
    <glyph glyph-name="braceleft.uc" horiz-adv-x="661" 
d="M391 -164q-287 0 -287 230q0 70 61.5 247t61.5 234q0 40 -26 64t-78 24h-66v252h66q104 0 104 84q0 49 -30.5 140.5t-61.5 185.5t-31 151q0 227 287 227h209v-252h-117q-77 0 -77 -61q0 -33 57 -180t57 -209q0 -86 -42 -137.5t-142 -73.5q100 -24 142 -77.5t42 -139.5
q0 -62 -57 -212t-57 -183q0 -62 77 -62h117v-252h-209z" />
    <glyph glyph-name="braceright.uc" horiz-adv-x="663" 
d="M61 -164v252h119q78 0 78 62q0 33 -57.5 183t-57.5 212q0 86 42.5 139.5t142.5 77.5q-101 22 -143 74t-42 137q0 62 57.5 209t57.5 180q0 61 -78 61h-119v252h211q287 0 287 -227q0 -57 -30.5 -151t-61.5 -185.5t-31 -140.5q0 -40 26 -62t79 -22h65v-252h-65
q-52 0 -78.5 -24t-26.5 -64q0 -57 61.5 -234t61.5 -247q0 -230 -287 -230h-211z" />
    <glyph glyph-name="slash.uc" horiz-adv-x="698" 
d="M291 -166h-258l366 1837h260z" />
    <glyph glyph-name="backslash.uc" horiz-adv-x="696" 
d="M406 -166l-367 1837h260l365 -1837h-258z" />
    <glyph glyph-name="bar.uc" horiz-adv-x="522" 
d="M389 -168h-256v1839h256v-1839z" />
    <glyph glyph-name="at.uc" horiz-adv-x="1787" 
d="M1503 -2q-32 -32 -79 -62t-117.5 -60t-171.5 -48t-217 -18h-13q-96 0 -180 10.5t-169 36.5t-153.5 68.5t-129 109.5t-101.5 154.5t-64.5 209t-23.5 269.5v71q0 423 208.5 646t616.5 223h2q147 0 265.5 -23t219 -75t168 -133.5t105 -203t37.5 -278.5v-70q0 -641 -426 -641
h-12q-212 0 -285 142q-21 -25 -34.5 -39t-49 -43t-81 -44.5t-97.5 -15.5h-8q-145 0 -215.5 88.5t-59.5 255.5l23 392q18 301 260 301h8q158 0 257 -122q1 -2 4 -6l5 -6l6 121h367l-51 -786q-3 -51 39 -51q63 0 104 119.5t41 334.5v64q0 99 -16.5 178t-44 134.5t-71.5 96
t-91.5 65t-110.5 38.5t-122 19t-134 5h-2q-146 0 -256 -37.5t-190.5 -118.5t-122 -214.5t-41.5 -317.5v-69q0 -163 32 -284.5t84.5 -195.5t132.5 -119t164.5 -61t192.5 -16h13q298 0 475 158zM981 889q8 102 -74 102q-37 0 -54 -24.5t-22 -77.5l-22 -375q-5 -46 11.5 -74
t56.5 -28q69 0 79 100z" />
    <glyph glyph-name="grave.uc" horiz-adv-x="819" 
d="M279 1616l-115 287h385l106 -287h-376z" />
    <glyph glyph-name="dieresis.uc" horiz-adv-x="819" 
d="M780 1616h-329v301h329v-301zM369 1616h-330v301h330v-301z" />
    <glyph glyph-name="macron.uc" horiz-adv-x="819" 
d="M117 1888h585v-256h-585v256z" />
    <glyph glyph-name="acute.uc" horiz-adv-x="819" 
d="M270 1903h385l-114 -287h-377z" />
    <glyph glyph-name="circumflex.uc" horiz-adv-x="819" 
d="M805 1612h-322l-75 129l-76 -129h-318l185 291h422z" />
    <glyph glyph-name="caron.uc" horiz-adv-x="819" 
d="M14 1907h322l76 -129l75 129h318l-184 -291h-422z" />
    <glyph glyph-name="breve.uc" horiz-adv-x="819" 
d="M408 1604q-161 0 -245.5 78.5t-84.5 207.5v13h266v-9q0 -73 68 -73q67 0 67 73v9h271v-13q0 -129 -84.5 -207.5t-245.5 -78.5h-12z" />
    <glyph glyph-name="dotaccent.uc" horiz-adv-x="819" 
d="M621 1616h-422v321h422v-321z" />
    <glyph glyph-name="ring.uc" horiz-adv-x="819" 
d="M410 1595q-105 0 -168.5 60.5t-63.5 159.5q0 100 63 158.5t169 58.5q105 0 168 -59t63 -158q0 -98 -63.5 -159t-167.5 -61zM410 1722q39 0 63.5 25.5t24.5 67.5t-24.5 67t-63.5 25t-63.5 -25t-24.5 -67t24.5 -67.5t63.5 -25.5z" />
    <glyph glyph-name="tilde.uc" horiz-adv-x="819" 
d="M745 1796q0 -80 -39 -128t-110 -48h-6q-30 0 -62 7.5t-54 16t-62 25.5q-88 37 -99 37q-18 0 -18 -29v-61h-223v143q0 80 39 128t110 48h6q70 0 179 -51q88 -37 98 -37q18 0 18 29v63h223v-143z" />
    <glyph glyph-name="hungarumlaut.uc" horiz-adv-x="819" 
d="M500 1903h307l-107 -287h-303zM109 1903h307l-103 -287h-301z" />
    <glyph glyph-name="emdash.altuc" horiz-adv-x="3280" 
d="M3199 582h-3117v235h3117v-235z" />
    <glyph glyph-name="f.short" horiz-adv-x="858" 
d="M813 1282h-106q-41 0 -55.5 -13t-14.5 -48v-74h176v-303h-176v-844h-416v844h-178v303h178v156q0 122 69.5 184.5t198.5 62.5h324v-268z" />
    <glyph glyph-name="f_f.short" horiz-adv-x="1581" 
d="M221 0v844h-178v303h178v156q0 122 69.5 184.5t198.5 62.5h328v-268h-110q-41 0 -55.5 -13t-14.5 -48v-74h307v156q0 122 69.5 184.5t198.5 62.5h324v-268h-106q-41 0 -55.5 -13t-14.5 -48v-74h176v-303h-176v-844h-416v844h-307v-844h-416z" />
    <glyph glyph-name="j.short" horiz-adv-x="595" 
d="M510 1241h-422v322h422v-322zM20 -55q37 0 52.5 14.5t15.5 52.5v1135h422v-1270q0 -117 -59 -185.5t-181 -68.5h-266v322h16z" />
    <glyph glyph-name="divide.uctab" 
d="M678 944h-332v293h332v-293zM952 831v-258h-880v258h880zM678 164h-332v291h332v-291z" />
    <glyph glyph-name="equal.uctab" 
d="M942 1022v-248h-860v248h860zM942 625v-248h-860v248h860z" />
    <glyph glyph-name="florin.tab" 
d="M684 688l-90 -1065h-395l84 1065h-232v299h256l23 283q11 127 75 190.5t191 63.5h362v-299h-161q-39 0 -53 -14.5t-19 -51.5l-14 -172h245v-299h-272z" />
    <glyph glyph-name="greater.uctab" 
d="M125 524l465 172l-465 172v273l774 -322v-246l-774 -321v272z" />
    <glyph glyph-name="less.uctab" 
d="M125 573v246l774 322v-273l-465 -172l465 -172v-272z" />
    <glyph glyph-name="minus.uctab" 
d="M952 831v-258h-880v258h880z" />
    <glyph glyph-name="multiply.uctab" 
d="M510 520l-248 -250l-182 176l250 252l-250 248l182 189l252 -250l248 250l182 -177l-252 -253l252 -250l-182 -185z" />
    <glyph glyph-name="plus.uctab" 
d="M649 573v-331h-274v331h-303v258h303v332h274v-332h303v-258h-303z" />
    </font>
</defs>
</svg>
